G04 EAGLE Gerber X2 export*
%TF.Part,Single*%
%TF.FileFunction,Soldermask,Top,1*%
%TF.FilePolarity,Positive*%
%TF.GenerationSoftware,Autodesk,EAGLE,9.6.1*%
%TF.CreationDate,2020-04-14T06:35:51Z*%
G75*
%MOMM*%
%FSLAX34Y34*%
%LPD*%
%INSoldermask Top*%
%AMOC8*
5,1,8,0,0,1.08239X$1,22.5*%
G01*
%ADD10C,3.203200*%
%ADD11C,1.524000*%
%ADD12C,2.003200*%
%ADD13C,1.727200*%
%ADD14P,1.649562X8X112.500000*%
%ADD15C,2.203200*%
%ADD16C,0.959600*%


D10*
X36000Y470000D03*
X36000Y37000D03*
X455000Y37000D03*
X455000Y470000D03*
D11*
X127000Y275604D02*
X127000Y262396D01*
X152400Y262396D02*
X152400Y275604D01*
X279400Y275604D02*
X279400Y262396D01*
X304800Y262396D02*
X304800Y275604D01*
X177800Y275604D02*
X177800Y262396D01*
X203200Y262396D02*
X203200Y275604D01*
X254000Y275604D02*
X254000Y262396D01*
X228600Y262396D02*
X228600Y275604D01*
X330200Y275604D02*
X330200Y262396D01*
X355600Y262396D02*
X355600Y275604D01*
X355600Y338596D02*
X355600Y351804D01*
X330200Y351804D02*
X330200Y338596D01*
X304800Y338596D02*
X304800Y351804D01*
X279400Y351804D02*
X279400Y338596D01*
X254000Y338596D02*
X254000Y351804D01*
X228600Y351804D02*
X228600Y338596D01*
X203200Y338596D02*
X203200Y351804D01*
X177800Y351804D02*
X177800Y338596D01*
X152400Y338596D02*
X152400Y351804D01*
X127000Y351804D02*
X127000Y338596D01*
D12*
X203200Y100200D02*
X203200Y82200D01*
X190500Y133000D02*
X190500Y151000D01*
X177800Y100200D02*
X177800Y82200D01*
X165100Y133000D02*
X165100Y151000D01*
X152400Y100200D02*
X152400Y82200D01*
X139700Y133000D02*
X139700Y151000D01*
X215900Y151000D02*
X215900Y133000D01*
X228600Y100200D02*
X228600Y82200D01*
X241300Y133000D02*
X241300Y151000D01*
X254000Y100200D02*
X254000Y82200D01*
X266700Y133000D02*
X266700Y151000D01*
X127000Y100200D02*
X127000Y82200D01*
X114300Y133000D02*
X114300Y151000D01*
X279400Y100200D02*
X279400Y82200D01*
X292100Y133000D02*
X292100Y151000D01*
D13*
X114300Y464580D02*
X114300Y479820D01*
X88900Y479820D02*
X88900Y464580D01*
X58420Y205500D02*
X43180Y205500D01*
X43180Y230900D02*
X58420Y230900D01*
X58420Y256300D02*
X43180Y256300D01*
X43180Y281700D02*
X58420Y281700D01*
X58420Y307100D02*
X43180Y307100D01*
X43180Y332500D02*
X58420Y332500D01*
X58420Y357900D02*
X43180Y357900D01*
X43180Y383300D02*
X58420Y383300D01*
D14*
X349250Y450610D03*
X349250Y476010D03*
D15*
X453140Y253549D03*
X453140Y304349D03*
X453140Y355149D03*
X453140Y405949D03*
X453140Y151949D03*
X453140Y202749D03*
D16*
X210000Y210000D03*
X270000Y210000D03*
X330000Y122000D03*
X309000Y57000D03*
X163000Y53000D03*
X375000Y135000D03*
X431306Y123000D03*
X390000Y60000D03*
X188000Y240000D03*
X158000Y446000D03*
X315000Y480000D03*
X150000Y225000D03*
X75000Y150000D03*
X75000Y90000D03*
X204000Y49000D03*
X380000Y224000D03*
X210000Y375000D03*
X270000Y375000D03*
X105000Y405000D03*
X180000Y420000D03*
X150000Y195000D03*
X45000Y180000D03*
X135000Y210000D03*
M02*
