G04 EAGLE Gerber RS-274X export*
G75*
%MOMM*%
%FSLAX34Y34*%
%LPD*%
%INTop Copper*%
%IPPOS*%
%AMOC8*
5,1,8,0,0,1.08239X$1,22.5*%
G01*
%ADD10C,1.320800*%
%ADD11C,1.800000*%
%ADD12C,1.524000*%
%ADD13P,1.429621X8X112.500000*%
%ADD14C,2.000000*%
%ADD15C,1.270000*%
%ADD16C,0.756400*%
%ADD17C,0.508000*%
%ADD18C,2.000000*%

G36*
X391743Y43399D02*
X391743Y43399D01*
X391869Y43406D01*
X391915Y43419D01*
X391963Y43425D01*
X392082Y43467D01*
X392204Y43502D01*
X392246Y43526D01*
X392292Y43542D01*
X392398Y43611D01*
X392508Y43672D01*
X392554Y43712D01*
X392584Y43731D01*
X392618Y43766D01*
X392694Y43831D01*
X470269Y121406D01*
X470348Y121505D01*
X470432Y121599D01*
X470456Y121641D01*
X470486Y121679D01*
X470540Y121793D01*
X470601Y121904D01*
X470614Y121950D01*
X470635Y121994D01*
X470661Y122117D01*
X470696Y122239D01*
X470701Y122300D01*
X470708Y122335D01*
X470707Y122383D01*
X470715Y122483D01*
X470715Y386107D01*
X470701Y386233D01*
X470694Y386359D01*
X470681Y386405D01*
X470675Y386453D01*
X470633Y386572D01*
X470598Y386694D01*
X470574Y386736D01*
X470558Y386782D01*
X470489Y386888D01*
X470428Y386998D01*
X470388Y387044D01*
X470369Y387074D01*
X470334Y387108D01*
X470269Y387184D01*
X461524Y395930D01*
X461464Y395977D01*
X461411Y396032D01*
X461328Y396085D01*
X461251Y396146D01*
X461182Y396179D01*
X461117Y396220D01*
X461025Y396253D01*
X460936Y396295D01*
X460861Y396311D01*
X460789Y396337D01*
X460691Y396348D01*
X460595Y396369D01*
X460519Y396367D01*
X460443Y396376D01*
X460345Y396364D01*
X460247Y396363D01*
X460173Y396344D01*
X460097Y396335D01*
X459954Y396289D01*
X459909Y396278D01*
X459892Y396269D01*
X459864Y396260D01*
X455432Y394424D01*
X450848Y394424D01*
X446612Y396179D01*
X443370Y399421D01*
X441615Y403657D01*
X441615Y408241D01*
X443370Y412477D01*
X446612Y415719D01*
X450848Y417474D01*
X455432Y417474D01*
X459668Y415719D01*
X461118Y414270D01*
X461217Y414191D01*
X461310Y414107D01*
X461353Y414083D01*
X461391Y414053D01*
X461505Y413999D01*
X461615Y413938D01*
X461662Y413925D01*
X461706Y413904D01*
X461829Y413878D01*
X461951Y413843D01*
X462012Y413838D01*
X462046Y413831D01*
X462094Y413832D01*
X462195Y413824D01*
X464207Y413824D01*
X467102Y412625D01*
X469531Y410195D01*
X482339Y397388D01*
X482417Y397325D01*
X482490Y397255D01*
X482554Y397217D01*
X482612Y397171D01*
X482703Y397128D01*
X482789Y397077D01*
X482860Y397054D01*
X482927Y397022D01*
X483025Y397001D01*
X483121Y396970D01*
X483195Y396964D01*
X483268Y396949D01*
X483368Y396950D01*
X483468Y396942D01*
X483542Y396953D01*
X483616Y396955D01*
X483713Y396979D01*
X483813Y396994D01*
X483882Y397022D01*
X483954Y397040D01*
X484044Y397086D01*
X484137Y397123D01*
X484198Y397165D01*
X484264Y397199D01*
X484341Y397265D01*
X484423Y397322D01*
X484473Y397377D01*
X484529Y397425D01*
X484589Y397506D01*
X484656Y397581D01*
X484692Y397646D01*
X484737Y397705D01*
X484776Y397798D01*
X484825Y397886D01*
X484845Y397957D01*
X484875Y398025D01*
X484892Y398124D01*
X484920Y398221D01*
X484928Y398321D01*
X484936Y398368D01*
X484934Y398404D01*
X484939Y398465D01*
X484939Y495316D01*
X484936Y495342D01*
X484938Y495368D01*
X484916Y495515D01*
X484899Y495662D01*
X484891Y495687D01*
X484887Y495713D01*
X484832Y495851D01*
X484782Y495990D01*
X484768Y496012D01*
X484758Y496037D01*
X484673Y496158D01*
X484593Y496283D01*
X484574Y496301D01*
X484559Y496323D01*
X484449Y496422D01*
X484342Y496525D01*
X484320Y496539D01*
X484300Y496556D01*
X484170Y496628D01*
X484043Y496704D01*
X484018Y496712D01*
X483995Y496725D01*
X483852Y496765D01*
X483711Y496810D01*
X483685Y496812D01*
X483660Y496820D01*
X483416Y496839D01*
X463618Y496839D01*
X463470Y496822D01*
X463320Y496810D01*
X463297Y496802D01*
X463272Y496799D01*
X463131Y496749D01*
X462989Y496703D01*
X462967Y496690D01*
X462944Y496682D01*
X462818Y496600D01*
X462690Y496524D01*
X462672Y496506D01*
X462651Y496493D01*
X462547Y496385D01*
X462440Y496281D01*
X462426Y496260D01*
X462409Y496242D01*
X462332Y496113D01*
X462251Y495988D01*
X462243Y495964D01*
X462230Y495943D01*
X462184Y495801D01*
X462134Y495660D01*
X462131Y495635D01*
X462124Y495611D01*
X462112Y495462D01*
X462095Y495313D01*
X462098Y495289D01*
X462096Y495264D01*
X462118Y495116D01*
X462135Y494967D01*
X462144Y494944D01*
X462148Y494919D01*
X462203Y494780D01*
X462254Y494639D01*
X462267Y494618D01*
X462276Y494595D01*
X462362Y494472D01*
X462443Y494347D01*
X462461Y494330D01*
X462475Y494309D01*
X462586Y494209D01*
X462694Y494105D01*
X462716Y494092D01*
X462734Y494076D01*
X462865Y494003D01*
X462994Y493927D01*
X463022Y493917D01*
X463039Y493907D01*
X463085Y493894D01*
X463224Y493845D01*
X464712Y493446D01*
X470449Y490134D01*
X475134Y485449D01*
X478446Y479712D01*
X480161Y473312D01*
X480161Y466688D01*
X478446Y460288D01*
X475134Y454551D01*
X470449Y449866D01*
X464712Y446554D01*
X458312Y444839D01*
X451688Y444839D01*
X445288Y446554D01*
X439551Y449866D01*
X434866Y454551D01*
X431554Y460288D01*
X429839Y466688D01*
X429839Y473312D01*
X431554Y479712D01*
X434866Y485449D01*
X439551Y490134D01*
X445288Y493446D01*
X446776Y493845D01*
X446915Y493900D01*
X447056Y493950D01*
X447077Y493964D01*
X447100Y493973D01*
X447223Y494058D01*
X447349Y494139D01*
X447366Y494157D01*
X447387Y494171D01*
X447487Y494282D01*
X447591Y494390D01*
X447604Y494411D01*
X447621Y494430D01*
X447693Y494561D01*
X447770Y494689D01*
X447777Y494713D01*
X447790Y494734D01*
X447831Y494879D01*
X447876Y495021D01*
X447878Y495046D01*
X447885Y495070D01*
X447892Y495219D01*
X447904Y495368D01*
X447900Y495393D01*
X447902Y495418D01*
X447875Y495564D01*
X447852Y495713D01*
X447843Y495736D01*
X447839Y495760D01*
X447779Y495898D01*
X447724Y496037D01*
X447710Y496057D01*
X447700Y496080D01*
X447610Y496200D01*
X447525Y496323D01*
X447506Y496340D01*
X447491Y496359D01*
X447377Y496456D01*
X447266Y496556D01*
X447244Y496568D01*
X447225Y496584D01*
X447092Y496652D01*
X446961Y496725D01*
X446937Y496732D01*
X446915Y496743D01*
X446770Y496779D01*
X446626Y496820D01*
X446596Y496822D01*
X446577Y496827D01*
X446529Y496827D01*
X446382Y496839D01*
X44618Y496839D01*
X44470Y496822D01*
X44320Y496810D01*
X44297Y496802D01*
X44272Y496799D01*
X44131Y496749D01*
X43989Y496703D01*
X43967Y496690D01*
X43944Y496682D01*
X43818Y496600D01*
X43690Y496524D01*
X43672Y496506D01*
X43651Y496493D01*
X43547Y496385D01*
X43440Y496281D01*
X43426Y496260D01*
X43409Y496242D01*
X43332Y496113D01*
X43251Y495988D01*
X43243Y495964D01*
X43230Y495943D01*
X43184Y495801D01*
X43134Y495660D01*
X43131Y495635D01*
X43124Y495611D01*
X43112Y495462D01*
X43095Y495313D01*
X43098Y495289D01*
X43096Y495264D01*
X43118Y495116D01*
X43135Y494967D01*
X43144Y494944D01*
X43148Y494919D01*
X43203Y494780D01*
X43254Y494639D01*
X43267Y494618D01*
X43276Y494595D01*
X43362Y494472D01*
X43443Y494347D01*
X43461Y494330D01*
X43475Y494309D01*
X43586Y494209D01*
X43694Y494105D01*
X43716Y494092D01*
X43734Y494076D01*
X43865Y494003D01*
X43994Y493927D01*
X44022Y493917D01*
X44039Y493907D01*
X44085Y493894D01*
X44224Y493845D01*
X45712Y493446D01*
X51449Y490134D01*
X56134Y485449D01*
X59446Y479712D01*
X61161Y473312D01*
X61161Y466688D01*
X59446Y460288D01*
X56134Y454551D01*
X51449Y449866D01*
X45712Y446554D01*
X39312Y444839D01*
X32688Y444839D01*
X26288Y446554D01*
X20551Y449866D01*
X15866Y454551D01*
X13003Y459510D01*
X12929Y459611D01*
X12861Y459716D01*
X12825Y459750D01*
X12796Y459790D01*
X12700Y459871D01*
X12610Y459958D01*
X12568Y459983D01*
X12530Y460016D01*
X12418Y460073D01*
X12311Y460137D01*
X12264Y460152D01*
X12220Y460175D01*
X12098Y460205D01*
X11979Y460243D01*
X11930Y460247D01*
X11881Y460259D01*
X11756Y460261D01*
X11632Y460271D01*
X11583Y460264D01*
X11533Y460264D01*
X11411Y460238D01*
X11287Y460219D01*
X11241Y460201D01*
X11192Y460190D01*
X11080Y460137D01*
X10963Y460091D01*
X10923Y460062D01*
X10878Y460041D01*
X10780Y459963D01*
X10677Y459892D01*
X10644Y459855D01*
X10605Y459824D01*
X10527Y459726D01*
X10444Y459633D01*
X10420Y459589D01*
X10389Y459550D01*
X10336Y459437D01*
X10275Y459328D01*
X10262Y459280D01*
X10240Y459235D01*
X10214Y459113D01*
X10180Y458992D01*
X10175Y458930D01*
X10168Y458894D01*
X10169Y458846D01*
X10161Y458749D01*
X10161Y414975D01*
X10172Y414875D01*
X10174Y414775D01*
X10192Y414702D01*
X10201Y414629D01*
X10234Y414534D01*
X10259Y414437D01*
X10293Y414370D01*
X10318Y414300D01*
X10373Y414216D01*
X10419Y414127D01*
X10467Y414070D01*
X10507Y414008D01*
X10579Y413938D01*
X10644Y413861D01*
X10704Y413817D01*
X10758Y413765D01*
X10844Y413714D01*
X10925Y413654D01*
X10993Y413625D01*
X11057Y413587D01*
X11153Y413556D01*
X11245Y413516D01*
X11318Y413503D01*
X11389Y413480D01*
X11489Y413472D01*
X11588Y413455D01*
X11662Y413458D01*
X11736Y413452D01*
X11836Y413467D01*
X11936Y413472D01*
X12007Y413493D01*
X12081Y413504D01*
X12174Y413541D01*
X12271Y413569D01*
X12336Y413605D01*
X12405Y413633D01*
X12487Y413690D01*
X12575Y413739D01*
X12651Y413804D01*
X12691Y413832D01*
X12715Y413858D01*
X12761Y413898D01*
X25539Y426676D01*
X28434Y427875D01*
X226566Y427875D01*
X229461Y426676D01*
X272816Y383321D01*
X272915Y383242D01*
X273009Y383158D01*
X273051Y383134D01*
X273089Y383104D01*
X273203Y383050D01*
X273314Y382989D01*
X273360Y382976D01*
X273404Y382955D01*
X273527Y382929D01*
X273649Y382894D01*
X273710Y382889D01*
X273745Y382882D01*
X273793Y382883D01*
X273893Y382875D01*
X320802Y382875D01*
X320828Y382878D01*
X320854Y382876D01*
X321001Y382898D01*
X321148Y382915D01*
X321173Y382923D01*
X321199Y382927D01*
X321337Y382982D01*
X321476Y383032D01*
X321498Y383046D01*
X321523Y383056D01*
X321644Y383141D01*
X321769Y383221D01*
X321787Y383240D01*
X321809Y383255D01*
X321908Y383365D01*
X322011Y383472D01*
X322025Y383494D01*
X322042Y383514D01*
X322114Y383644D01*
X322190Y383771D01*
X322198Y383796D01*
X322211Y383819D01*
X322251Y383962D01*
X322296Y384103D01*
X322298Y384129D01*
X322306Y384154D01*
X322325Y384398D01*
X322325Y433126D01*
X323524Y436021D01*
X340675Y453172D01*
X340754Y453271D01*
X340838Y453365D01*
X340862Y453407D01*
X340892Y453445D01*
X340946Y453559D01*
X341007Y453670D01*
X341020Y453716D01*
X341041Y453760D01*
X341067Y453883D01*
X341083Y453939D01*
X345883Y458739D01*
X352617Y458739D01*
X357379Y453977D01*
X357379Y447243D01*
X352582Y442446D01*
X352543Y442441D01*
X352424Y442399D01*
X352302Y442364D01*
X352260Y442340D01*
X352214Y442324D01*
X352108Y442255D01*
X351998Y442194D01*
X351952Y442154D01*
X351922Y442135D01*
X351888Y442100D01*
X351812Y442035D01*
X338521Y428744D01*
X338442Y428645D01*
X338358Y428551D01*
X338334Y428509D01*
X338304Y428471D01*
X338250Y428357D01*
X338189Y428246D01*
X338176Y428200D01*
X338155Y428156D01*
X338129Y428033D01*
X338094Y427911D01*
X338089Y427850D01*
X338082Y427815D01*
X338083Y427767D01*
X338075Y427667D01*
X338075Y354337D01*
X338075Y354335D01*
X338075Y354333D01*
X338095Y354162D01*
X338115Y353991D01*
X338115Y353989D01*
X338116Y353987D01*
X338191Y353754D01*
X338329Y353421D01*
X338329Y336979D01*
X337091Y333991D01*
X334696Y331596D01*
X334663Y331575D01*
X334577Y331486D01*
X334485Y331402D01*
X334456Y331361D01*
X334421Y331324D01*
X334357Y331218D01*
X334287Y331116D01*
X334268Y331069D01*
X334242Y331025D01*
X334204Y330907D01*
X334159Y330792D01*
X334151Y330742D01*
X334136Y330693D01*
X334126Y330570D01*
X334108Y330447D01*
X334112Y330396D01*
X334108Y330346D01*
X334126Y330223D01*
X334136Y330100D01*
X334152Y330051D01*
X334159Y330001D01*
X334205Y329886D01*
X334243Y329768D01*
X334269Y329724D01*
X334288Y329677D01*
X334359Y329576D01*
X334423Y329469D01*
X334458Y329433D01*
X334487Y329391D01*
X334579Y329308D01*
X334665Y329219D01*
X334708Y329192D01*
X334746Y329158D01*
X334855Y329098D01*
X334959Y329031D01*
X335006Y329014D01*
X335051Y328989D01*
X335170Y328955D01*
X335287Y328914D01*
X335337Y328908D01*
X335386Y328894D01*
X335630Y328875D01*
X370566Y328875D01*
X373461Y327676D01*
X386676Y314461D01*
X387875Y311566D01*
X387875Y222434D01*
X386676Y219539D01*
X384461Y217324D01*
X381566Y216125D01*
X378434Y216125D01*
X375539Y217324D01*
X373324Y219539D01*
X372125Y222434D01*
X372125Y306107D01*
X372111Y306233D01*
X372104Y306359D01*
X372091Y306405D01*
X372085Y306453D01*
X372043Y306572D01*
X372008Y306694D01*
X371984Y306736D01*
X371968Y306782D01*
X371899Y306888D01*
X371838Y306998D01*
X371798Y307044D01*
X371779Y307074D01*
X371744Y307108D01*
X371679Y307184D01*
X366184Y312679D01*
X366085Y312758D01*
X365991Y312842D01*
X365949Y312866D01*
X365911Y312896D01*
X365797Y312950D01*
X365686Y313011D01*
X365640Y313024D01*
X365596Y313045D01*
X365473Y313071D01*
X365351Y313106D01*
X365290Y313111D01*
X365255Y313118D01*
X365207Y313117D01*
X365107Y313125D01*
X282434Y313125D01*
X279539Y314324D01*
X272724Y321139D01*
X271525Y324034D01*
X271525Y336063D01*
X271525Y336065D01*
X271525Y336067D01*
X271505Y336238D01*
X271485Y336409D01*
X271485Y336411D01*
X271484Y336413D01*
X271409Y336646D01*
X271271Y336979D01*
X271271Y353421D01*
X272509Y356409D01*
X274795Y358695D01*
X277783Y359933D01*
X281017Y359933D01*
X284005Y358695D01*
X286291Y356409D01*
X287529Y353421D01*
X287529Y336979D01*
X287391Y336646D01*
X287390Y336644D01*
X287389Y336642D01*
X287342Y336475D01*
X287295Y336311D01*
X287295Y336309D01*
X287294Y336307D01*
X287275Y336063D01*
X287275Y330398D01*
X287278Y330372D01*
X287276Y330346D01*
X287298Y330199D01*
X287315Y330052D01*
X287323Y330027D01*
X287327Y330001D01*
X287382Y329863D01*
X287432Y329724D01*
X287446Y329702D01*
X287456Y329677D01*
X287541Y329556D01*
X287621Y329431D01*
X287640Y329413D01*
X287655Y329391D01*
X287765Y329292D01*
X287872Y329189D01*
X287894Y329175D01*
X287914Y329158D01*
X288044Y329086D01*
X288171Y329010D01*
X288196Y329002D01*
X288219Y328989D01*
X288362Y328949D01*
X288503Y328904D01*
X288529Y328902D01*
X288554Y328894D01*
X288798Y328875D01*
X299370Y328875D01*
X299420Y328881D01*
X299471Y328878D01*
X299593Y328900D01*
X299716Y328915D01*
X299764Y328932D01*
X299814Y328941D01*
X299928Y328990D01*
X300044Y329032D01*
X300087Y329060D01*
X300134Y329080D01*
X300233Y329154D01*
X300337Y329221D01*
X300372Y329258D01*
X300413Y329288D01*
X300493Y329383D01*
X300579Y329472D01*
X300605Y329515D01*
X300638Y329554D01*
X300695Y329665D01*
X300758Y329771D01*
X300774Y329819D01*
X300797Y329864D01*
X300827Y329985D01*
X300864Y330103D01*
X300868Y330153D01*
X300881Y330203D01*
X300882Y330327D01*
X300892Y330450D01*
X300885Y330500D01*
X300886Y330551D01*
X300859Y330672D01*
X300841Y330795D01*
X300822Y330842D01*
X300811Y330892D01*
X300758Y331004D01*
X300712Y331119D01*
X300683Y331160D01*
X300661Y331206D01*
X300584Y331303D01*
X300513Y331405D01*
X300475Y331439D01*
X300444Y331479D01*
X300346Y331555D01*
X300333Y331567D01*
X297909Y333991D01*
X296671Y336979D01*
X296671Y353421D01*
X297909Y356409D01*
X300195Y358695D01*
X303183Y359933D01*
X306417Y359933D01*
X309405Y358695D01*
X311691Y356409D01*
X312929Y353421D01*
X312929Y336979D01*
X311691Y333991D01*
X309296Y331596D01*
X309263Y331575D01*
X309177Y331486D01*
X309085Y331402D01*
X309056Y331361D01*
X309021Y331324D01*
X308957Y331218D01*
X308887Y331116D01*
X308868Y331069D01*
X308842Y331025D01*
X308804Y330907D01*
X308759Y330792D01*
X308751Y330742D01*
X308736Y330693D01*
X308726Y330570D01*
X308708Y330447D01*
X308712Y330396D01*
X308708Y330346D01*
X308726Y330223D01*
X308736Y330100D01*
X308752Y330051D01*
X308759Y330001D01*
X308805Y329886D01*
X308843Y329768D01*
X308869Y329724D01*
X308888Y329677D01*
X308959Y329576D01*
X309023Y329469D01*
X309058Y329433D01*
X309087Y329391D01*
X309179Y329308D01*
X309265Y329219D01*
X309308Y329192D01*
X309346Y329158D01*
X309455Y329098D01*
X309559Y329031D01*
X309606Y329014D01*
X309651Y328989D01*
X309770Y328955D01*
X309887Y328914D01*
X309937Y328908D01*
X309986Y328894D01*
X310230Y328875D01*
X324770Y328875D01*
X324820Y328881D01*
X324871Y328878D01*
X324993Y328900D01*
X325116Y328915D01*
X325164Y328932D01*
X325214Y328941D01*
X325328Y328990D01*
X325444Y329032D01*
X325487Y329060D01*
X325534Y329080D01*
X325633Y329154D01*
X325737Y329221D01*
X325772Y329258D01*
X325813Y329288D01*
X325893Y329383D01*
X325979Y329472D01*
X326005Y329515D01*
X326038Y329554D01*
X326095Y329665D01*
X326158Y329771D01*
X326174Y329819D01*
X326197Y329864D01*
X326227Y329985D01*
X326264Y330103D01*
X326268Y330153D01*
X326281Y330203D01*
X326282Y330327D01*
X326292Y330450D01*
X326285Y330500D01*
X326286Y330551D01*
X326259Y330672D01*
X326241Y330795D01*
X326222Y330842D01*
X326211Y330892D01*
X326158Y331004D01*
X326112Y331119D01*
X326083Y331160D01*
X326061Y331206D01*
X325984Y331303D01*
X325913Y331405D01*
X325875Y331439D01*
X325844Y331479D01*
X325746Y331555D01*
X325733Y331567D01*
X323309Y333991D01*
X322071Y336979D01*
X322071Y353421D01*
X322209Y353754D01*
X322210Y353756D01*
X322211Y353758D01*
X322258Y353925D01*
X322305Y354089D01*
X322305Y354091D01*
X322306Y354093D01*
X322325Y354337D01*
X322325Y365602D01*
X322322Y365628D01*
X322324Y365654D01*
X322302Y365801D01*
X322285Y365948D01*
X322277Y365973D01*
X322273Y365999D01*
X322218Y366137D01*
X322168Y366276D01*
X322154Y366298D01*
X322144Y366323D01*
X322059Y366444D01*
X321979Y366569D01*
X321960Y366587D01*
X321945Y366609D01*
X321835Y366708D01*
X321728Y366811D01*
X321706Y366825D01*
X321686Y366842D01*
X321556Y366914D01*
X321429Y366990D01*
X321404Y366998D01*
X321381Y367011D01*
X321238Y367051D01*
X321097Y367096D01*
X321071Y367098D01*
X321046Y367106D01*
X320802Y367125D01*
X268434Y367125D01*
X265539Y368324D01*
X222184Y411679D01*
X222085Y411758D01*
X221991Y411842D01*
X221949Y411866D01*
X221911Y411896D01*
X221797Y411950D01*
X221686Y412011D01*
X221640Y412024D01*
X221596Y412045D01*
X221473Y412071D01*
X221351Y412106D01*
X221290Y412111D01*
X221255Y412118D01*
X221207Y412117D01*
X221107Y412125D01*
X114398Y412125D01*
X114372Y412122D01*
X114346Y412124D01*
X114199Y412102D01*
X114052Y412085D01*
X114027Y412077D01*
X114001Y412073D01*
X113863Y412018D01*
X113724Y411968D01*
X113702Y411954D01*
X113677Y411944D01*
X113555Y411859D01*
X113431Y411779D01*
X113413Y411760D01*
X113391Y411745D01*
X113292Y411635D01*
X113189Y411528D01*
X113175Y411506D01*
X113158Y411486D01*
X113086Y411356D01*
X113010Y411229D01*
X113002Y411204D01*
X112989Y411181D01*
X112949Y411038D01*
X112904Y410897D01*
X112902Y410871D01*
X112894Y410846D01*
X112875Y410602D01*
X112875Y403434D01*
X111676Y400539D01*
X109461Y398324D01*
X106566Y397125D01*
X103434Y397125D01*
X100539Y398324D01*
X98324Y400539D01*
X97125Y403434D01*
X97125Y410602D01*
X97122Y410628D01*
X97124Y410654D01*
X97102Y410801D01*
X97085Y410948D01*
X97077Y410973D01*
X97073Y410999D01*
X97018Y411137D01*
X96968Y411276D01*
X96954Y411298D01*
X96944Y411323D01*
X96859Y411444D01*
X96779Y411569D01*
X96760Y411587D01*
X96745Y411609D01*
X96635Y411708D01*
X96528Y411811D01*
X96506Y411825D01*
X96486Y411842D01*
X96356Y411914D01*
X96229Y411990D01*
X96204Y411998D01*
X96181Y412011D01*
X96038Y412051D01*
X95897Y412096D01*
X95871Y412098D01*
X95846Y412106D01*
X95602Y412125D01*
X33893Y412125D01*
X33767Y412111D01*
X33641Y412104D01*
X33595Y412091D01*
X33547Y412085D01*
X33428Y412043D01*
X33306Y412008D01*
X33264Y411984D01*
X33218Y411968D01*
X33112Y411899D01*
X33002Y411838D01*
X32956Y411798D01*
X32926Y411779D01*
X32892Y411744D01*
X32816Y411679D01*
X24831Y403694D01*
X24752Y403595D01*
X24668Y403501D01*
X24644Y403459D01*
X24614Y403421D01*
X24560Y403307D01*
X24499Y403196D01*
X24486Y403150D01*
X24465Y403106D01*
X24439Y402983D01*
X24404Y402861D01*
X24399Y402800D01*
X24392Y402765D01*
X24393Y402717D01*
X24385Y402617D01*
X24385Y317383D01*
X24399Y317257D01*
X24406Y317131D01*
X24419Y317085D01*
X24425Y317037D01*
X24467Y316918D01*
X24502Y316796D01*
X24526Y316754D01*
X24542Y316708D01*
X24611Y316602D01*
X24672Y316492D01*
X24712Y316446D01*
X24731Y316416D01*
X24766Y316382D01*
X24831Y316306D01*
X25716Y315421D01*
X25815Y315342D01*
X25909Y315258D01*
X25951Y315234D01*
X25989Y315204D01*
X26103Y315150D01*
X26214Y315089D01*
X26260Y315076D01*
X26304Y315055D01*
X26427Y315029D01*
X26549Y314994D01*
X26610Y314989D01*
X26645Y314982D01*
X26693Y314983D01*
X26793Y314975D01*
X37992Y314975D01*
X37994Y314975D01*
X37996Y314975D01*
X38167Y314995D01*
X38338Y315015D01*
X38340Y315015D01*
X38342Y315016D01*
X38575Y315091D01*
X41361Y316245D01*
X60239Y316245D01*
X63600Y314852D01*
X66172Y312280D01*
X67565Y308919D01*
X67565Y305281D01*
X66172Y301920D01*
X63600Y299348D01*
X60239Y297955D01*
X41361Y297955D01*
X38575Y299109D01*
X38573Y299110D01*
X38571Y299111D01*
X38409Y299157D01*
X38240Y299205D01*
X38238Y299205D01*
X38236Y299206D01*
X37992Y299225D01*
X21334Y299225D01*
X18439Y300424D01*
X12761Y306102D01*
X12683Y306165D01*
X12610Y306235D01*
X12546Y306273D01*
X12488Y306319D01*
X12397Y306362D01*
X12311Y306413D01*
X12240Y306436D01*
X12173Y306468D01*
X12075Y306489D01*
X11979Y306520D01*
X11905Y306526D01*
X11832Y306541D01*
X11732Y306540D01*
X11632Y306548D01*
X11558Y306537D01*
X11484Y306535D01*
X11387Y306511D01*
X11287Y306496D01*
X11218Y306468D01*
X11146Y306450D01*
X11056Y306404D01*
X10963Y306367D01*
X10902Y306325D01*
X10836Y306291D01*
X10759Y306225D01*
X10677Y306168D01*
X10627Y306113D01*
X10571Y306065D01*
X10511Y305984D01*
X10444Y305909D01*
X10408Y305844D01*
X10363Y305785D01*
X10324Y305692D01*
X10275Y305604D01*
X10255Y305533D01*
X10225Y305465D01*
X10208Y305366D01*
X10180Y305269D01*
X10172Y305169D01*
X10164Y305122D01*
X10166Y305086D01*
X10161Y305025D01*
X10161Y264587D01*
X10172Y264487D01*
X10174Y264386D01*
X10192Y264314D01*
X10201Y264240D01*
X10235Y264146D01*
X10259Y264048D01*
X10293Y263982D01*
X10318Y263912D01*
X10373Y263828D01*
X10419Y263739D01*
X10467Y263682D01*
X10507Y263619D01*
X10579Y263550D01*
X10644Y263473D01*
X10704Y263429D01*
X10758Y263377D01*
X10844Y263326D01*
X10925Y263266D01*
X10993Y263237D01*
X11057Y263198D01*
X11153Y263168D01*
X11245Y263128D01*
X11318Y263115D01*
X11389Y263092D01*
X11489Y263084D01*
X11588Y263066D01*
X11662Y263070D01*
X11736Y263064D01*
X11836Y263079D01*
X11936Y263084D01*
X12007Y263105D01*
X12081Y263116D01*
X12174Y263153D01*
X12271Y263181D01*
X12336Y263217D01*
X12405Y263245D01*
X12487Y263302D01*
X12575Y263351D01*
X12651Y263416D01*
X12691Y263444D01*
X12715Y263470D01*
X12761Y263509D01*
X13762Y264511D01*
X22316Y273065D01*
X35205Y273065D01*
X35305Y273076D01*
X35405Y273078D01*
X35478Y273096D01*
X35551Y273105D01*
X35646Y273139D01*
X35743Y273163D01*
X35809Y273197D01*
X35880Y273222D01*
X35964Y273277D01*
X36053Y273323D01*
X36110Y273371D01*
X36172Y273411D01*
X36242Y273483D01*
X36319Y273548D01*
X36363Y273608D01*
X36415Y273662D01*
X36466Y273748D01*
X36526Y273829D01*
X36555Y273897D01*
X36593Y273961D01*
X36624Y274057D01*
X36664Y274149D01*
X36677Y274222D01*
X36700Y274293D01*
X36708Y274393D01*
X36725Y274492D01*
X36722Y274566D01*
X36728Y274640D01*
X36713Y274740D01*
X36708Y274840D01*
X36687Y274911D01*
X36676Y274985D01*
X36639Y275078D01*
X36611Y275175D01*
X36575Y275240D01*
X36547Y275309D01*
X36490Y275391D01*
X36441Y275479D01*
X36376Y275555D01*
X36348Y275595D01*
X36322Y275619D01*
X36282Y275665D01*
X35427Y276520D01*
X34035Y279881D01*
X34035Y283519D01*
X35428Y286880D01*
X38000Y289452D01*
X41361Y290845D01*
X60239Y290845D01*
X63025Y289691D01*
X63027Y289690D01*
X63029Y289689D01*
X63191Y289643D01*
X63360Y289595D01*
X63362Y289595D01*
X63364Y289594D01*
X63608Y289575D01*
X82807Y289575D01*
X82933Y289589D01*
X83059Y289596D01*
X83105Y289609D01*
X83153Y289615D01*
X83272Y289657D01*
X83394Y289692D01*
X83436Y289716D01*
X83482Y289732D01*
X83588Y289801D01*
X83698Y289862D01*
X83744Y289902D01*
X83774Y289921D01*
X83808Y289956D01*
X83884Y290021D01*
X100539Y306676D01*
X103434Y307875D01*
X112311Y307875D01*
X112411Y307886D01*
X112511Y307888D01*
X112584Y307906D01*
X112657Y307915D01*
X112752Y307948D01*
X112849Y307973D01*
X112916Y308007D01*
X112986Y308032D01*
X113070Y308087D01*
X113159Y308133D01*
X113216Y308181D01*
X113278Y308221D01*
X113348Y308293D01*
X113425Y308358D01*
X113469Y308418D01*
X113521Y308472D01*
X113572Y308558D01*
X113632Y308639D01*
X113661Y308707D01*
X113699Y308771D01*
X113730Y308867D01*
X113770Y308959D01*
X113783Y309032D01*
X113806Y309103D01*
X113814Y309203D01*
X113831Y309302D01*
X113828Y309376D01*
X113834Y309450D01*
X113819Y309550D01*
X113814Y309650D01*
X113793Y309721D01*
X113782Y309795D01*
X113745Y309888D01*
X113717Y309985D01*
X113681Y310050D01*
X113653Y310119D01*
X113596Y310201D01*
X113547Y310289D01*
X113482Y310365D01*
X113454Y310405D01*
X113428Y310429D01*
X113388Y310475D01*
X99684Y324179D01*
X99585Y324258D01*
X99491Y324342D01*
X99449Y324366D01*
X99411Y324396D01*
X99297Y324450D01*
X99186Y324511D01*
X99140Y324524D01*
X99096Y324545D01*
X98973Y324571D01*
X98851Y324606D01*
X98790Y324611D01*
X98755Y324618D01*
X98707Y324617D01*
X98607Y324625D01*
X63608Y324625D01*
X63606Y324625D01*
X63604Y324625D01*
X63433Y324605D01*
X63262Y324585D01*
X63260Y324585D01*
X63258Y324584D01*
X63025Y324509D01*
X60239Y323355D01*
X41361Y323355D01*
X38000Y324748D01*
X35428Y327320D01*
X34035Y330681D01*
X34035Y334319D01*
X35428Y337680D01*
X38000Y340252D01*
X41361Y341645D01*
X60239Y341645D01*
X63025Y340491D01*
X63027Y340490D01*
X63029Y340489D01*
X63191Y340443D01*
X63360Y340395D01*
X63362Y340395D01*
X63364Y340394D01*
X63608Y340375D01*
X104066Y340375D01*
X106961Y339176D01*
X122816Y323321D01*
X122915Y323242D01*
X123009Y323158D01*
X123051Y323134D01*
X123089Y323104D01*
X123203Y323050D01*
X123314Y322989D01*
X123360Y322976D01*
X123404Y322955D01*
X123527Y322929D01*
X123649Y322894D01*
X123710Y322889D01*
X123745Y322882D01*
X123793Y322883D01*
X123893Y322875D01*
X191107Y322875D01*
X191233Y322889D01*
X191359Y322896D01*
X191405Y322909D01*
X191453Y322915D01*
X191572Y322957D01*
X191694Y322992D01*
X191736Y323016D01*
X191782Y323032D01*
X191888Y323101D01*
X191998Y323162D01*
X192044Y323202D01*
X192074Y323221D01*
X192108Y323256D01*
X192184Y323321D01*
X194879Y326016D01*
X194958Y326115D01*
X195042Y326209D01*
X195066Y326251D01*
X195096Y326289D01*
X195150Y326403D01*
X195211Y326514D01*
X195224Y326560D01*
X195245Y326604D01*
X195271Y326727D01*
X195306Y326849D01*
X195311Y326910D01*
X195318Y326945D01*
X195317Y326993D01*
X195325Y327093D01*
X195325Y336063D01*
X195325Y336065D01*
X195325Y336067D01*
X195305Y336238D01*
X195285Y336409D01*
X195285Y336411D01*
X195284Y336413D01*
X195209Y336646D01*
X195071Y336979D01*
X195071Y353421D01*
X196309Y356409D01*
X198595Y358695D01*
X201583Y359933D01*
X204817Y359933D01*
X207805Y358695D01*
X210091Y356409D01*
X211329Y353421D01*
X211329Y336979D01*
X211191Y336646D01*
X211190Y336644D01*
X211189Y336642D01*
X211142Y336475D01*
X211095Y336311D01*
X211095Y336309D01*
X211094Y336307D01*
X211075Y336063D01*
X211075Y321634D01*
X209876Y318739D01*
X201890Y310754D01*
X201612Y310475D01*
X201549Y310397D01*
X201479Y310324D01*
X201441Y310260D01*
X201395Y310202D01*
X201352Y310111D01*
X201301Y310025D01*
X201278Y309954D01*
X201246Y309887D01*
X201225Y309789D01*
X201194Y309693D01*
X201188Y309619D01*
X201173Y309546D01*
X201174Y309446D01*
X201166Y309346D01*
X201177Y309272D01*
X201179Y309198D01*
X201203Y309100D01*
X201218Y309001D01*
X201246Y308932D01*
X201264Y308860D01*
X201310Y308771D01*
X201347Y308677D01*
X201389Y308616D01*
X201423Y308550D01*
X201488Y308473D01*
X201546Y308391D01*
X201601Y308341D01*
X201649Y308285D01*
X201730Y308225D01*
X201805Y308158D01*
X201870Y308122D01*
X201929Y308078D01*
X202021Y308038D01*
X202110Y307989D01*
X202181Y307969D01*
X202249Y307939D01*
X202348Y307922D01*
X202445Y307894D01*
X202545Y307886D01*
X202592Y307878D01*
X202628Y307880D01*
X202689Y307875D01*
X346566Y307875D01*
X349461Y306676D01*
X362276Y293861D01*
X363475Y290966D01*
X363475Y278137D01*
X363475Y278135D01*
X363475Y278133D01*
X363495Y277958D01*
X363515Y277791D01*
X363515Y277789D01*
X363516Y277787D01*
X363591Y277554D01*
X363729Y277221D01*
X363729Y260779D01*
X362491Y257791D01*
X360205Y255505D01*
X357217Y254267D01*
X353983Y254267D01*
X350995Y255505D01*
X348709Y257791D01*
X347471Y260779D01*
X347471Y277221D01*
X347609Y277554D01*
X347610Y277556D01*
X347611Y277558D01*
X347658Y277725D01*
X347705Y277889D01*
X347705Y277891D01*
X347706Y277893D01*
X347725Y278137D01*
X347725Y285507D01*
X347711Y285633D01*
X347704Y285759D01*
X347691Y285805D01*
X347685Y285853D01*
X347643Y285972D01*
X347608Y286094D01*
X347584Y286136D01*
X347568Y286182D01*
X347499Y286288D01*
X347438Y286398D01*
X347398Y286444D01*
X347379Y286474D01*
X347344Y286508D01*
X347279Y286584D01*
X342184Y291679D01*
X342085Y291758D01*
X341991Y291842D01*
X341949Y291866D01*
X341911Y291896D01*
X341797Y291950D01*
X341686Y292011D01*
X341640Y292024D01*
X341596Y292045D01*
X341473Y292071D01*
X341351Y292106D01*
X341290Y292111D01*
X341255Y292118D01*
X341207Y292117D01*
X341107Y292125D01*
X226301Y292125D01*
X226201Y292114D01*
X226100Y292112D01*
X226028Y292094D01*
X225954Y292085D01*
X225860Y292052D01*
X225762Y292027D01*
X225696Y291993D01*
X225626Y291968D01*
X225542Y291913D01*
X225453Y291867D01*
X225396Y291819D01*
X225333Y291779D01*
X225264Y291707D01*
X225187Y291642D01*
X225143Y291582D01*
X225091Y291528D01*
X225040Y291442D01*
X224980Y291361D01*
X224951Y291293D01*
X224912Y291229D01*
X224882Y291133D01*
X224842Y291041D01*
X224829Y290968D01*
X224806Y290897D01*
X224798Y290797D01*
X224780Y290698D01*
X224784Y290624D01*
X224778Y290550D01*
X224793Y290450D01*
X224798Y290350D01*
X224819Y290279D01*
X224830Y290205D01*
X224867Y290112D01*
X224895Y290015D01*
X224931Y289950D01*
X224959Y289881D01*
X225016Y289799D01*
X225065Y289711D01*
X225130Y289635D01*
X225158Y289595D01*
X225184Y289571D01*
X225223Y289525D01*
X227239Y287510D01*
X229838Y284911D01*
X231366Y283382D01*
X231368Y283381D01*
X231369Y283379D01*
X231503Y283274D01*
X231639Y283166D01*
X231641Y283165D01*
X231643Y283163D01*
X231860Y283052D01*
X233205Y282495D01*
X235491Y280209D01*
X236729Y277221D01*
X236729Y260779D01*
X235491Y257791D01*
X233205Y255505D01*
X230217Y254267D01*
X226983Y254267D01*
X223995Y255505D01*
X221709Y257791D01*
X220471Y260779D01*
X220471Y277221D01*
X221664Y280101D01*
X221706Y280246D01*
X221751Y280389D01*
X221753Y280413D01*
X221760Y280436D01*
X221767Y280587D01*
X221779Y280736D01*
X221776Y280760D01*
X221777Y280784D01*
X221750Y280932D01*
X221728Y281081D01*
X221719Y281103D01*
X221714Y281127D01*
X221654Y281265D01*
X221599Y281405D01*
X221585Y281425D01*
X221576Y281447D01*
X221486Y281568D01*
X221400Y281691D01*
X221382Y281707D01*
X221368Y281727D01*
X221253Y281824D01*
X221141Y281924D01*
X221120Y281936D01*
X221102Y281952D01*
X220968Y282020D01*
X220836Y282093D01*
X220813Y282099D01*
X220791Y282110D01*
X220646Y282147D01*
X220501Y282188D01*
X220472Y282190D01*
X220453Y282195D01*
X220406Y282195D01*
X220257Y282207D01*
X211543Y282207D01*
X211394Y282190D01*
X211244Y282178D01*
X211221Y282170D01*
X211197Y282167D01*
X211056Y282117D01*
X210912Y282071D01*
X210891Y282058D01*
X210869Y282050D01*
X210743Y281968D01*
X210614Y281891D01*
X210596Y281874D01*
X210576Y281861D01*
X210471Y281753D01*
X210364Y281648D01*
X210350Y281628D01*
X210334Y281610D01*
X210256Y281481D01*
X210175Y281355D01*
X210167Y281332D01*
X210155Y281311D01*
X210109Y281168D01*
X210059Y281026D01*
X210056Y281002D01*
X210049Y280979D01*
X210037Y280830D01*
X210020Y280680D01*
X210023Y280656D01*
X210021Y280632D01*
X210043Y280483D01*
X210061Y280334D01*
X210069Y280306D01*
X210072Y280287D01*
X210090Y280243D01*
X210136Y280101D01*
X211329Y277221D01*
X211329Y260779D01*
X211191Y260446D01*
X211190Y260444D01*
X211189Y260442D01*
X211140Y260269D01*
X211095Y260111D01*
X211095Y260109D01*
X211094Y260107D01*
X211075Y259863D01*
X211075Y250693D01*
X211089Y250567D01*
X211096Y250441D01*
X211109Y250395D01*
X211115Y250347D01*
X211157Y250228D01*
X211192Y250106D01*
X211216Y250064D01*
X211232Y250018D01*
X211301Y249912D01*
X211362Y249802D01*
X211402Y249756D01*
X211421Y249726D01*
X211456Y249692D01*
X211521Y249616D01*
X247976Y213161D01*
X249175Y210266D01*
X249175Y158640D01*
X249189Y158515D01*
X249196Y158389D01*
X249209Y158342D01*
X249215Y158294D01*
X249257Y158175D01*
X249292Y158054D01*
X249316Y158012D01*
X249332Y157966D01*
X249401Y157860D01*
X249462Y157750D01*
X249502Y157703D01*
X249521Y157673D01*
X249556Y157640D01*
X249621Y157563D01*
X250222Y156962D01*
X251825Y153093D01*
X251825Y130907D01*
X250222Y127038D01*
X247262Y124078D01*
X243393Y122475D01*
X239207Y122475D01*
X235338Y124078D01*
X232378Y127038D01*
X230775Y130907D01*
X230775Y153093D01*
X232378Y156962D01*
X232979Y157563D01*
X233058Y157662D01*
X233142Y157756D01*
X233166Y157799D01*
X233196Y157836D01*
X233250Y157951D01*
X233311Y158061D01*
X233324Y158108D01*
X233345Y158151D01*
X233371Y158275D01*
X233406Y158397D01*
X233411Y158457D01*
X233418Y158492D01*
X233417Y158540D01*
X233425Y158640D01*
X233425Y204807D01*
X233411Y204933D01*
X233404Y205059D01*
X233391Y205105D01*
X233385Y205153D01*
X233343Y205272D01*
X233308Y205394D01*
X233284Y205436D01*
X233268Y205482D01*
X233199Y205588D01*
X233138Y205698D01*
X233098Y205744D01*
X233079Y205774D01*
X233044Y205808D01*
X232979Y205884D01*
X198475Y240388D01*
X198397Y240451D01*
X198324Y240521D01*
X198260Y240559D01*
X198202Y240605D01*
X198111Y240648D01*
X198025Y240699D01*
X197954Y240722D01*
X197887Y240754D01*
X197789Y240775D01*
X197693Y240806D01*
X197619Y240812D01*
X197546Y240827D01*
X197446Y240826D01*
X197346Y240834D01*
X197272Y240823D01*
X197198Y240821D01*
X197101Y240797D01*
X197001Y240782D01*
X196932Y240754D01*
X196860Y240736D01*
X196770Y240690D01*
X196677Y240653D01*
X196616Y240611D01*
X196550Y240577D01*
X196473Y240511D01*
X196391Y240454D01*
X196341Y240399D01*
X196285Y240351D01*
X196225Y240270D01*
X196158Y240195D01*
X196122Y240130D01*
X196077Y240071D01*
X196038Y239978D01*
X195989Y239890D01*
X195969Y239819D01*
X195939Y239751D01*
X195922Y239652D01*
X195894Y239555D01*
X195886Y239455D01*
X195878Y239408D01*
X195880Y239372D01*
X195875Y239311D01*
X195875Y238434D01*
X194676Y235539D01*
X173421Y214284D01*
X173342Y214185D01*
X173258Y214091D01*
X173234Y214049D01*
X173204Y214011D01*
X173150Y213897D01*
X173089Y213786D01*
X173076Y213740D01*
X173055Y213696D01*
X173029Y213573D01*
X172994Y213451D01*
X172989Y213390D01*
X172982Y213355D01*
X172983Y213307D01*
X172975Y213207D01*
X172975Y158640D01*
X172989Y158515D01*
X172996Y158389D01*
X173009Y158342D01*
X173015Y158294D01*
X173057Y158175D01*
X173092Y158054D01*
X173116Y158012D01*
X173132Y157966D01*
X173201Y157860D01*
X173262Y157750D01*
X173302Y157703D01*
X173321Y157673D01*
X173356Y157640D01*
X173421Y157563D01*
X174022Y156962D01*
X175625Y153093D01*
X175625Y130907D01*
X174022Y127038D01*
X171062Y124078D01*
X170863Y123995D01*
X170819Y123971D01*
X170772Y123954D01*
X170667Y123886D01*
X170559Y123826D01*
X170521Y123792D01*
X170479Y123765D01*
X170392Y123675D01*
X170300Y123592D01*
X170272Y123550D01*
X170237Y123514D01*
X170173Y123408D01*
X170102Y123305D01*
X170084Y123258D01*
X170058Y123215D01*
X170020Y123097D01*
X169974Y122981D01*
X169967Y122931D01*
X169952Y122883D01*
X169942Y122759D01*
X169924Y122636D01*
X169928Y122586D01*
X169924Y122536D01*
X169942Y122413D01*
X169952Y122289D01*
X169968Y122241D01*
X169975Y122191D01*
X170021Y122076D01*
X170060Y121957D01*
X170086Y121914D01*
X170104Y121867D01*
X170175Y121765D01*
X170239Y121659D01*
X170274Y121622D01*
X170303Y121581D01*
X170395Y121498D01*
X170482Y121409D01*
X170524Y121381D01*
X170562Y121348D01*
X170671Y121287D01*
X170775Y121220D01*
X170823Y121204D01*
X170867Y121179D01*
X170987Y121145D01*
X171104Y121104D01*
X171154Y121098D01*
X171202Y121084D01*
X171446Y121065D01*
X184154Y121065D01*
X184204Y121070D01*
X184254Y121068D01*
X184377Y121090D01*
X184500Y121105D01*
X184548Y121122D01*
X184597Y121131D01*
X184711Y121180D01*
X184828Y121222D01*
X184871Y121249D01*
X184917Y121270D01*
X185017Y121344D01*
X185121Y121411D01*
X185156Y121447D01*
X185197Y121477D01*
X185277Y121572D01*
X185363Y121662D01*
X185389Y121705D01*
X185422Y121743D01*
X185478Y121854D01*
X185542Y121961D01*
X185557Y122009D01*
X185580Y122054D01*
X185610Y122174D01*
X185648Y122293D01*
X185652Y122343D01*
X185665Y122392D01*
X185666Y122516D01*
X185676Y122640D01*
X185669Y122690D01*
X185670Y122740D01*
X185643Y122862D01*
X185625Y122985D01*
X185606Y123032D01*
X185595Y123081D01*
X185542Y123193D01*
X185496Y123309D01*
X185467Y123350D01*
X185446Y123396D01*
X185368Y123493D01*
X185297Y123595D01*
X185260Y123629D01*
X185228Y123668D01*
X185130Y123745D01*
X185038Y123828D01*
X184994Y123853D01*
X184955Y123884D01*
X184737Y123995D01*
X184538Y124078D01*
X181578Y127038D01*
X179975Y130907D01*
X179975Y153093D01*
X181578Y156962D01*
X184538Y159922D01*
X188407Y161525D01*
X192593Y161525D01*
X196462Y159922D01*
X199422Y156962D01*
X201025Y153093D01*
X201025Y130907D01*
X199422Y127038D01*
X196462Y124078D01*
X196263Y123995D01*
X196219Y123971D01*
X196172Y123954D01*
X196067Y123886D01*
X195959Y123826D01*
X195921Y123792D01*
X195879Y123765D01*
X195792Y123675D01*
X195700Y123592D01*
X195672Y123550D01*
X195637Y123514D01*
X195573Y123408D01*
X195502Y123305D01*
X195484Y123258D01*
X195458Y123215D01*
X195420Y123097D01*
X195374Y122981D01*
X195367Y122931D01*
X195352Y122883D01*
X195342Y122759D01*
X195324Y122636D01*
X195328Y122586D01*
X195324Y122536D01*
X195342Y122413D01*
X195352Y122289D01*
X195368Y122241D01*
X195375Y122191D01*
X195421Y122076D01*
X195460Y121957D01*
X195486Y121914D01*
X195504Y121867D01*
X195575Y121765D01*
X195639Y121659D01*
X195674Y121622D01*
X195703Y121581D01*
X195795Y121498D01*
X195882Y121409D01*
X195924Y121381D01*
X195962Y121348D01*
X196071Y121287D01*
X196175Y121220D01*
X196223Y121204D01*
X196267Y121179D01*
X196387Y121145D01*
X196504Y121104D01*
X196554Y121098D01*
X196602Y121084D01*
X196846Y121065D01*
X209554Y121065D01*
X209604Y121070D01*
X209654Y121068D01*
X209777Y121090D01*
X209900Y121105D01*
X209948Y121122D01*
X209997Y121131D01*
X210111Y121180D01*
X210228Y121222D01*
X210271Y121249D01*
X210317Y121270D01*
X210417Y121344D01*
X210521Y121411D01*
X210556Y121447D01*
X210597Y121477D01*
X210677Y121572D01*
X210763Y121662D01*
X210789Y121705D01*
X210822Y121743D01*
X210878Y121854D01*
X210942Y121961D01*
X210957Y122009D01*
X210980Y122054D01*
X211010Y122174D01*
X211048Y122293D01*
X211052Y122343D01*
X211065Y122392D01*
X211066Y122516D01*
X211076Y122640D01*
X211069Y122690D01*
X211070Y122740D01*
X211043Y122862D01*
X211025Y122985D01*
X211006Y123032D01*
X210995Y123081D01*
X210942Y123193D01*
X210896Y123309D01*
X210867Y123350D01*
X210846Y123396D01*
X210768Y123493D01*
X210697Y123595D01*
X210660Y123629D01*
X210628Y123668D01*
X210530Y123745D01*
X210438Y123828D01*
X210394Y123853D01*
X210355Y123884D01*
X210137Y123995D01*
X209938Y124078D01*
X206978Y127038D01*
X205375Y130907D01*
X205375Y153093D01*
X206978Y156962D01*
X207579Y157563D01*
X207658Y157662D01*
X207742Y157756D01*
X207766Y157799D01*
X207796Y157836D01*
X207850Y157951D01*
X207911Y158061D01*
X207924Y158108D01*
X207945Y158151D01*
X207971Y158275D01*
X208006Y158397D01*
X208011Y158457D01*
X208018Y158492D01*
X208017Y158540D01*
X208025Y158640D01*
X208025Y200207D01*
X208011Y200333D01*
X208004Y200459D01*
X207991Y200505D01*
X207985Y200553D01*
X207943Y200672D01*
X207908Y200794D01*
X207884Y200836D01*
X207868Y200882D01*
X207799Y200988D01*
X207738Y201098D01*
X207698Y201144D01*
X207679Y201174D01*
X207644Y201208D01*
X207579Y201284D01*
X203324Y205539D01*
X202125Y208434D01*
X202125Y211566D01*
X203324Y214461D01*
X205539Y216676D01*
X208434Y217875D01*
X211566Y217875D01*
X214461Y216676D01*
X222576Y208561D01*
X223775Y205666D01*
X223775Y158640D01*
X223789Y158515D01*
X223796Y158389D01*
X223809Y158342D01*
X223815Y158294D01*
X223857Y158175D01*
X223892Y158054D01*
X223916Y158012D01*
X223932Y157966D01*
X224001Y157860D01*
X224062Y157750D01*
X224102Y157703D01*
X224121Y157673D01*
X224156Y157640D01*
X224221Y157563D01*
X224822Y156962D01*
X226425Y153093D01*
X226425Y130907D01*
X224822Y127038D01*
X221862Y124078D01*
X221005Y123722D01*
X220873Y123650D01*
X220739Y123581D01*
X220721Y123565D01*
X220700Y123553D01*
X220589Y123452D01*
X220474Y123355D01*
X220460Y123335D01*
X220442Y123319D01*
X220356Y123195D01*
X220267Y123074D01*
X220257Y123052D01*
X220244Y123032D01*
X220188Y122892D01*
X220129Y122754D01*
X220125Y122731D01*
X220116Y122708D01*
X220094Y122559D01*
X220067Y122411D01*
X220068Y122387D01*
X220065Y122363D01*
X220077Y122213D01*
X220085Y122063D01*
X220092Y122040D01*
X220094Y122016D01*
X220140Y121873D01*
X220182Y121729D01*
X220194Y121707D01*
X220201Y121684D01*
X220279Y121555D01*
X220352Y121424D01*
X220371Y121402D01*
X220381Y121386D01*
X220414Y121352D01*
X220510Y121238D01*
X223511Y118238D01*
X231043Y110706D01*
X231044Y110704D01*
X231046Y110703D01*
X231182Y110595D01*
X231316Y110489D01*
X231318Y110488D01*
X231319Y110487D01*
X231537Y110375D01*
X234562Y109122D01*
X237522Y106162D01*
X239125Y102293D01*
X239125Y80107D01*
X237522Y76238D01*
X234562Y73278D01*
X231007Y71805D01*
X230963Y71781D01*
X230916Y71764D01*
X230811Y71696D01*
X230703Y71636D01*
X230665Y71602D01*
X230623Y71575D01*
X230537Y71485D01*
X230445Y71402D01*
X230416Y71360D01*
X230381Y71324D01*
X230317Y71217D01*
X230246Y71115D01*
X230228Y71068D01*
X230202Y71025D01*
X230164Y70907D01*
X230119Y70791D01*
X230111Y70741D01*
X230096Y70693D01*
X230086Y70569D01*
X230068Y70446D01*
X230072Y70396D01*
X230068Y70346D01*
X230086Y70223D01*
X230097Y70099D01*
X230112Y70051D01*
X230120Y70001D01*
X230166Y69886D01*
X230204Y69767D01*
X230230Y69724D01*
X230248Y69677D01*
X230319Y69575D01*
X230383Y69469D01*
X230419Y69432D01*
X230447Y69391D01*
X230539Y69308D01*
X230626Y69219D01*
X230669Y69191D01*
X230706Y69158D01*
X230815Y69098D01*
X230920Y69030D01*
X230967Y69013D01*
X231011Y68989D01*
X231131Y68955D01*
X231248Y68914D01*
X231298Y68908D01*
X231347Y68894D01*
X231590Y68875D01*
X251010Y68875D01*
X251060Y68880D01*
X251110Y68878D01*
X251232Y68900D01*
X251356Y68915D01*
X251403Y68932D01*
X251453Y68941D01*
X251567Y68990D01*
X251684Y69032D01*
X251726Y69059D01*
X251773Y69079D01*
X251872Y69154D01*
X251977Y69221D01*
X252012Y69257D01*
X252052Y69287D01*
X252133Y69382D01*
X252219Y69472D01*
X252245Y69515D01*
X252277Y69553D01*
X252334Y69664D01*
X252398Y69771D01*
X252413Y69819D01*
X252436Y69864D01*
X252466Y69984D01*
X252504Y70103D01*
X252508Y70153D01*
X252520Y70202D01*
X252522Y70326D01*
X252532Y70450D01*
X252525Y70500D01*
X252525Y70550D01*
X252499Y70672D01*
X252480Y70795D01*
X252462Y70842D01*
X252451Y70891D01*
X252398Y71003D01*
X252352Y71119D01*
X252323Y71160D01*
X252301Y71206D01*
X252224Y71303D01*
X252153Y71405D01*
X252115Y71439D01*
X252084Y71478D01*
X251986Y71555D01*
X251894Y71638D01*
X251850Y71663D01*
X251810Y71694D01*
X251593Y71805D01*
X248038Y73278D01*
X245078Y76238D01*
X243475Y80107D01*
X243475Y102293D01*
X245078Y106162D01*
X248038Y109122D01*
X251907Y110725D01*
X256093Y110725D01*
X259962Y109122D01*
X262922Y106162D01*
X264525Y102293D01*
X264525Y80107D01*
X262922Y76238D01*
X259962Y73278D01*
X256407Y71805D01*
X256363Y71781D01*
X256316Y71764D01*
X256211Y71696D01*
X256103Y71636D01*
X256065Y71602D01*
X256023Y71575D01*
X255937Y71485D01*
X255845Y71402D01*
X255816Y71360D01*
X255781Y71324D01*
X255717Y71217D01*
X255646Y71115D01*
X255628Y71068D01*
X255602Y71025D01*
X255564Y70907D01*
X255519Y70791D01*
X255511Y70741D01*
X255496Y70693D01*
X255486Y70569D01*
X255468Y70446D01*
X255472Y70396D01*
X255468Y70346D01*
X255486Y70223D01*
X255497Y70099D01*
X255512Y70051D01*
X255520Y70001D01*
X255566Y69886D01*
X255604Y69767D01*
X255630Y69724D01*
X255648Y69677D01*
X255719Y69575D01*
X255783Y69469D01*
X255819Y69432D01*
X255847Y69391D01*
X255939Y69308D01*
X256026Y69219D01*
X256069Y69191D01*
X256106Y69158D01*
X256215Y69098D01*
X256320Y69030D01*
X256367Y69013D01*
X256411Y68989D01*
X256531Y68955D01*
X256648Y68914D01*
X256698Y68908D01*
X256747Y68894D01*
X256990Y68875D01*
X276410Y68875D01*
X276460Y68880D01*
X276510Y68878D01*
X276632Y68900D01*
X276756Y68915D01*
X276803Y68932D01*
X276853Y68941D01*
X276967Y68990D01*
X277084Y69032D01*
X277126Y69059D01*
X277173Y69079D01*
X277272Y69154D01*
X277377Y69221D01*
X277412Y69257D01*
X277452Y69287D01*
X277532Y69382D01*
X277619Y69472D01*
X277645Y69515D01*
X277677Y69553D01*
X277734Y69664D01*
X277798Y69771D01*
X277813Y69819D01*
X277836Y69864D01*
X277866Y69984D01*
X277904Y70103D01*
X277908Y70153D01*
X277920Y70202D01*
X277922Y70326D01*
X277932Y70450D01*
X277925Y70500D01*
X277925Y70550D01*
X277899Y70672D01*
X277880Y70795D01*
X277862Y70842D01*
X277851Y70891D01*
X277798Y71003D01*
X277752Y71119D01*
X277723Y71160D01*
X277701Y71206D01*
X277624Y71303D01*
X277553Y71405D01*
X277515Y71439D01*
X277484Y71478D01*
X277386Y71555D01*
X277294Y71638D01*
X277250Y71663D01*
X277210Y71694D01*
X276993Y71805D01*
X273438Y73278D01*
X270478Y76238D01*
X268875Y80107D01*
X268875Y86190D01*
X268875Y86192D01*
X268875Y86194D01*
X268855Y86370D01*
X268835Y86537D01*
X268835Y86538D01*
X268834Y86541D01*
X268759Y86773D01*
X267875Y88908D01*
X267875Y93492D01*
X268759Y95627D01*
X268760Y95629D01*
X268761Y95630D01*
X268807Y95795D01*
X268855Y95962D01*
X268855Y95964D01*
X268856Y95966D01*
X268875Y96210D01*
X268875Y102293D01*
X270478Y106162D01*
X273438Y109122D01*
X277307Y110725D01*
X281534Y110725D01*
X281595Y110714D01*
X281689Y110687D01*
X281765Y110683D01*
X281841Y110670D01*
X281939Y110675D01*
X282037Y110670D01*
X282112Y110684D01*
X282189Y110687D01*
X282283Y110715D01*
X282380Y110732D01*
X282450Y110763D01*
X282524Y110784D01*
X282610Y110832D01*
X282700Y110871D01*
X282761Y110917D01*
X282828Y110954D01*
X282924Y111036D01*
X282933Y111042D01*
X282943Y111052D01*
X282980Y111079D01*
X282992Y111094D01*
X283014Y111113D01*
X284672Y112770D01*
X288908Y114525D01*
X322661Y114525D01*
X322761Y114536D01*
X322861Y114538D01*
X322934Y114556D01*
X323007Y114565D01*
X323102Y114598D01*
X323199Y114623D01*
X323266Y114657D01*
X323336Y114682D01*
X323420Y114737D01*
X323509Y114783D01*
X323566Y114831D01*
X323628Y114871D01*
X323698Y114943D01*
X323775Y115008D01*
X323819Y115068D01*
X323871Y115122D01*
X323922Y115208D01*
X323982Y115289D01*
X324011Y115357D01*
X324049Y115421D01*
X324080Y115517D01*
X324120Y115609D01*
X324133Y115682D01*
X324156Y115753D01*
X324164Y115853D01*
X324181Y115952D01*
X324178Y116026D01*
X324184Y116100D01*
X324169Y116200D01*
X324164Y116300D01*
X324143Y116371D01*
X324132Y116445D01*
X324095Y116538D01*
X324067Y116635D01*
X324031Y116700D01*
X324003Y116769D01*
X323946Y116851D01*
X323897Y116939D01*
X323832Y117015D01*
X323804Y117055D01*
X323778Y117079D01*
X323738Y117125D01*
X310754Y130110D01*
X310753Y130110D01*
X308324Y132539D01*
X307125Y135434D01*
X307125Y191107D01*
X307111Y191233D01*
X307104Y191359D01*
X307091Y191405D01*
X307085Y191453D01*
X307043Y191572D01*
X307008Y191694D01*
X306984Y191736D01*
X306968Y191782D01*
X306899Y191888D01*
X306838Y191998D01*
X306798Y192044D01*
X306779Y192074D01*
X306744Y192108D01*
X306679Y192184D01*
X272724Y226139D01*
X271525Y229034D01*
X271525Y259863D01*
X271525Y259865D01*
X271525Y259867D01*
X271505Y260038D01*
X271485Y260209D01*
X271485Y260211D01*
X271484Y260213D01*
X271409Y260446D01*
X271271Y260779D01*
X271271Y277221D01*
X272509Y280209D01*
X274795Y282495D01*
X277783Y283733D01*
X281017Y283733D01*
X284005Y282495D01*
X286291Y280209D01*
X287529Y277221D01*
X287529Y260779D01*
X287391Y260446D01*
X287390Y260444D01*
X287389Y260442D01*
X287340Y260269D01*
X287295Y260111D01*
X287295Y260109D01*
X287294Y260107D01*
X287275Y259863D01*
X287275Y234493D01*
X287289Y234367D01*
X287296Y234241D01*
X287309Y234195D01*
X287315Y234147D01*
X287357Y234028D01*
X287392Y233906D01*
X287416Y233864D01*
X287432Y233818D01*
X287501Y233712D01*
X287562Y233602D01*
X287602Y233556D01*
X287621Y233526D01*
X287656Y233492D01*
X287721Y233416D01*
X319246Y201890D01*
X319247Y201890D01*
X321676Y199461D01*
X322875Y196566D01*
X322875Y140893D01*
X322889Y140767D01*
X322896Y140641D01*
X322909Y140595D01*
X322915Y140547D01*
X322957Y140428D01*
X322992Y140306D01*
X323016Y140264D01*
X323032Y140218D01*
X323101Y140112D01*
X323162Y140002D01*
X323202Y139956D01*
X323221Y139926D01*
X323256Y139892D01*
X323321Y139816D01*
X336676Y126461D01*
X337875Y123566D01*
X337875Y120434D01*
X336676Y117539D01*
X336262Y117125D01*
X336199Y117047D01*
X336129Y116974D01*
X336091Y116910D01*
X336045Y116852D01*
X336002Y116761D01*
X335951Y116675D01*
X335928Y116604D01*
X335896Y116537D01*
X335875Y116439D01*
X335844Y116343D01*
X335838Y116269D01*
X335823Y116196D01*
X335824Y116096D01*
X335816Y115996D01*
X335827Y115922D01*
X335829Y115848D01*
X335853Y115751D01*
X335868Y115651D01*
X335896Y115582D01*
X335914Y115510D01*
X335960Y115421D01*
X335997Y115327D01*
X336039Y115266D01*
X336073Y115200D01*
X336139Y115123D01*
X336196Y115041D01*
X336251Y114991D01*
X336299Y114935D01*
X336380Y114875D01*
X336455Y114808D01*
X336520Y114772D01*
X336579Y114727D01*
X336672Y114688D01*
X336760Y114639D01*
X336831Y114619D01*
X336899Y114589D01*
X336998Y114572D01*
X337095Y114544D01*
X337195Y114536D01*
X337242Y114528D01*
X337278Y114530D01*
X337339Y114525D01*
X382595Y114525D01*
X382721Y114539D01*
X382847Y114546D01*
X382894Y114559D01*
X382942Y114565D01*
X383061Y114607D01*
X383182Y114642D01*
X383224Y114666D01*
X383270Y114682D01*
X383376Y114751D01*
X383486Y114812D01*
X383532Y114852D01*
X383562Y114871D01*
X383596Y114906D01*
X383672Y114971D01*
X393029Y124328D01*
X393108Y124427D01*
X393192Y124520D01*
X393216Y124563D01*
X393246Y124601D01*
X393300Y124715D01*
X393361Y124825D01*
X393374Y124872D01*
X393395Y124916D01*
X393421Y125039D01*
X393456Y125161D01*
X393461Y125222D01*
X393468Y125256D01*
X393467Y125304D01*
X393475Y125405D01*
X393475Y242292D01*
X395230Y246528D01*
X412021Y263319D01*
X416257Y265074D01*
X455432Y265074D01*
X459668Y263319D01*
X462910Y260077D01*
X464665Y255841D01*
X464665Y251257D01*
X462910Y247021D01*
X459668Y243779D01*
X455432Y242024D01*
X423954Y242024D01*
X423828Y242010D01*
X423702Y242003D01*
X423655Y241990D01*
X423607Y241984D01*
X423488Y241942D01*
X423367Y241907D01*
X423325Y241883D01*
X423279Y241867D01*
X423173Y241798D01*
X423063Y241737D01*
X423017Y241697D01*
X422987Y241678D01*
X422953Y241643D01*
X422877Y241578D01*
X416971Y235672D01*
X416892Y235573D01*
X416808Y235480D01*
X416784Y235437D01*
X416754Y235399D01*
X416700Y235285D01*
X416639Y235175D01*
X416626Y235128D01*
X416605Y235084D01*
X416579Y234961D01*
X416544Y234839D01*
X416539Y234778D01*
X416532Y234744D01*
X416533Y234696D01*
X416525Y234595D01*
X416525Y117708D01*
X414770Y113472D01*
X394528Y93230D01*
X390292Y91475D01*
X296605Y91475D01*
X296479Y91461D01*
X296353Y91454D01*
X296306Y91441D01*
X296258Y91435D01*
X296139Y91393D01*
X296018Y91358D01*
X295976Y91334D01*
X295930Y91318D01*
X295824Y91249D01*
X295714Y91188D01*
X295668Y91148D01*
X295638Y91129D01*
X295604Y91094D01*
X295528Y91029D01*
X290371Y85872D01*
X290308Y85793D01*
X290243Y85726D01*
X290231Y85705D01*
X290208Y85680D01*
X290184Y85637D01*
X290154Y85599D01*
X290104Y85494D01*
X290064Y85427D01*
X290059Y85411D01*
X290039Y85375D01*
X290026Y85328D01*
X290005Y85284D01*
X289979Y85161D01*
X289975Y85147D01*
X289958Y85095D01*
X289957Y85086D01*
X289944Y85039D01*
X289939Y84978D01*
X289932Y84944D01*
X289933Y84896D01*
X289925Y84795D01*
X289925Y80107D01*
X288322Y76238D01*
X285362Y73278D01*
X281807Y71805D01*
X281763Y71781D01*
X281716Y71764D01*
X281611Y71696D01*
X281503Y71636D01*
X281465Y71602D01*
X281423Y71575D01*
X281337Y71485D01*
X281245Y71402D01*
X281216Y71360D01*
X281181Y71324D01*
X281117Y71217D01*
X281046Y71115D01*
X281028Y71068D01*
X281002Y71025D01*
X280964Y70907D01*
X280919Y70791D01*
X280911Y70741D01*
X280896Y70693D01*
X280886Y70569D01*
X280868Y70446D01*
X280872Y70396D01*
X280868Y70346D01*
X280886Y70223D01*
X280897Y70099D01*
X280912Y70051D01*
X280920Y70001D01*
X280966Y69886D01*
X281004Y69767D01*
X281030Y69724D01*
X281048Y69677D01*
X281119Y69575D01*
X281183Y69469D01*
X281219Y69432D01*
X281247Y69391D01*
X281339Y69308D01*
X281426Y69219D01*
X281469Y69191D01*
X281506Y69158D01*
X281615Y69098D01*
X281720Y69030D01*
X281767Y69013D01*
X281811Y68989D01*
X281931Y68955D01*
X282048Y68914D01*
X282098Y68908D01*
X282146Y68894D01*
X282390Y68875D01*
X296566Y68875D01*
X299461Y67676D01*
X301816Y65321D01*
X301915Y65242D01*
X302009Y65158D01*
X302051Y65134D01*
X302089Y65104D01*
X302203Y65050D01*
X302314Y64989D01*
X302360Y64976D01*
X302404Y64955D01*
X302527Y64929D01*
X302649Y64894D01*
X302710Y64889D01*
X302745Y64882D01*
X302793Y64883D01*
X302893Y64875D01*
X310566Y64875D01*
X313461Y63676D01*
X315676Y61461D01*
X316875Y58566D01*
X316875Y55434D01*
X315676Y52539D01*
X313461Y50324D01*
X310566Y49125D01*
X297434Y49125D01*
X294539Y50324D01*
X292184Y52679D01*
X292085Y52758D01*
X291991Y52842D01*
X291949Y52866D01*
X291911Y52896D01*
X291797Y52950D01*
X291686Y53011D01*
X291640Y53024D01*
X291596Y53045D01*
X291473Y53071D01*
X291351Y53106D01*
X291290Y53111D01*
X291255Y53118D01*
X291207Y53117D01*
X291107Y53125D01*
X177434Y53125D01*
X174539Y54324D01*
X173475Y55388D01*
X173396Y55451D01*
X173324Y55521D01*
X173260Y55559D01*
X173202Y55605D01*
X173111Y55648D01*
X173025Y55699D01*
X172954Y55722D01*
X172887Y55754D01*
X172789Y55775D01*
X172693Y55806D01*
X172619Y55812D01*
X172546Y55827D01*
X172446Y55826D01*
X172346Y55834D01*
X172272Y55823D01*
X172198Y55821D01*
X172101Y55797D01*
X172001Y55782D01*
X171932Y55754D01*
X171860Y55736D01*
X171771Y55690D01*
X171677Y55653D01*
X171616Y55611D01*
X171550Y55577D01*
X171474Y55512D01*
X171391Y55454D01*
X171341Y55399D01*
X171285Y55351D01*
X171225Y55270D01*
X171158Y55195D01*
X171122Y55130D01*
X171077Y55071D01*
X171038Y54978D01*
X170989Y54890D01*
X170969Y54819D01*
X170939Y54751D01*
X170922Y54652D01*
X170894Y54555D01*
X170886Y54455D01*
X170878Y54408D01*
X170880Y54372D01*
X170875Y54311D01*
X170875Y51434D01*
X169676Y48539D01*
X167461Y46324D01*
X167439Y46315D01*
X167395Y46291D01*
X167348Y46274D01*
X167243Y46206D01*
X167135Y46146D01*
X167097Y46112D01*
X167055Y46085D01*
X166969Y45995D01*
X166877Y45912D01*
X166848Y45870D01*
X166813Y45834D01*
X166749Y45728D01*
X166678Y45625D01*
X166660Y45578D01*
X166634Y45535D01*
X166596Y45417D01*
X166551Y45301D01*
X166543Y45251D01*
X166528Y45203D01*
X166518Y45079D01*
X166500Y44956D01*
X166504Y44906D01*
X166500Y44856D01*
X166518Y44733D01*
X166529Y44609D01*
X166544Y44561D01*
X166552Y44511D01*
X166598Y44395D01*
X166636Y44277D01*
X166662Y44234D01*
X166680Y44187D01*
X166751Y44085D01*
X166815Y43979D01*
X166851Y43942D01*
X166879Y43901D01*
X166971Y43818D01*
X167058Y43729D01*
X167101Y43701D01*
X167138Y43668D01*
X167247Y43607D01*
X167351Y43540D01*
X167399Y43524D01*
X167443Y43499D01*
X167563Y43465D01*
X167680Y43424D01*
X167730Y43418D01*
X167778Y43404D01*
X168022Y43385D01*
X391617Y43385D01*
X391743Y43399D01*
G37*
G36*
X446530Y10178D02*
X446530Y10178D01*
X446680Y10190D01*
X446703Y10198D01*
X446728Y10201D01*
X446869Y10251D01*
X447011Y10297D01*
X447033Y10310D01*
X447056Y10318D01*
X447182Y10400D01*
X447310Y10476D01*
X447328Y10494D01*
X447349Y10507D01*
X447453Y10615D01*
X447560Y10719D01*
X447574Y10740D01*
X447591Y10758D01*
X447668Y10887D01*
X447749Y11012D01*
X447757Y11036D01*
X447770Y11057D01*
X447816Y11199D01*
X447866Y11340D01*
X447869Y11365D01*
X447876Y11389D01*
X447888Y11538D01*
X447905Y11687D01*
X447902Y11711D01*
X447904Y11736D01*
X447882Y11884D01*
X447865Y12033D01*
X447856Y12056D01*
X447852Y12081D01*
X447797Y12220D01*
X447746Y12361D01*
X447733Y12382D01*
X447724Y12405D01*
X447638Y12528D01*
X447557Y12653D01*
X447539Y12670D01*
X447525Y12691D01*
X447414Y12791D01*
X447306Y12895D01*
X447284Y12908D01*
X447266Y12924D01*
X447135Y12997D01*
X447006Y13073D01*
X446978Y13083D01*
X446961Y13093D01*
X446915Y13106D01*
X446776Y13155D01*
X445288Y13554D01*
X439551Y16866D01*
X434866Y21551D01*
X431554Y27288D01*
X429839Y33688D01*
X429839Y40312D01*
X431554Y46712D01*
X434866Y52449D01*
X439551Y57134D01*
X445288Y60446D01*
X451688Y62161D01*
X458312Y62161D01*
X464712Y60446D01*
X470449Y57134D01*
X475134Y52449D01*
X478446Y46712D01*
X480161Y40312D01*
X480161Y33688D01*
X478446Y27288D01*
X475134Y21551D01*
X470449Y16866D01*
X464712Y13554D01*
X463224Y13155D01*
X463085Y13100D01*
X462944Y13050D01*
X462923Y13036D01*
X462900Y13027D01*
X462777Y12942D01*
X462651Y12861D01*
X462634Y12843D01*
X462613Y12829D01*
X462513Y12718D01*
X462409Y12610D01*
X462396Y12589D01*
X462379Y12570D01*
X462307Y12439D01*
X462230Y12311D01*
X462223Y12287D01*
X462210Y12266D01*
X462169Y12121D01*
X462124Y11979D01*
X462122Y11954D01*
X462115Y11930D01*
X462108Y11781D01*
X462096Y11632D01*
X462100Y11607D01*
X462098Y11582D01*
X462125Y11436D01*
X462148Y11287D01*
X462157Y11264D01*
X462161Y11240D01*
X462221Y11102D01*
X462276Y10963D01*
X462290Y10943D01*
X462300Y10920D01*
X462390Y10800D01*
X462475Y10677D01*
X462494Y10660D01*
X462509Y10641D01*
X462623Y10544D01*
X462734Y10444D01*
X462756Y10432D01*
X462775Y10416D01*
X462908Y10348D01*
X463039Y10275D01*
X463063Y10268D01*
X463085Y10257D01*
X463230Y10221D01*
X463374Y10180D01*
X463404Y10178D01*
X463423Y10173D01*
X463471Y10173D01*
X463618Y10161D01*
X483416Y10161D01*
X483442Y10164D01*
X483468Y10162D01*
X483615Y10184D01*
X483762Y10201D01*
X483787Y10209D01*
X483813Y10213D01*
X483951Y10268D01*
X484090Y10318D01*
X484112Y10332D01*
X484137Y10342D01*
X484258Y10427D01*
X484383Y10507D01*
X484401Y10526D01*
X484423Y10541D01*
X484522Y10651D01*
X484625Y10758D01*
X484639Y10780D01*
X484656Y10800D01*
X484728Y10930D01*
X484804Y11057D01*
X484812Y11082D01*
X484825Y11105D01*
X484865Y11248D01*
X484910Y11389D01*
X484912Y11415D01*
X484920Y11440D01*
X484939Y11684D01*
X484939Y110125D01*
X484928Y110225D01*
X484926Y110325D01*
X484908Y110398D01*
X484899Y110471D01*
X484866Y110566D01*
X484841Y110663D01*
X484807Y110730D01*
X484782Y110800D01*
X484727Y110884D01*
X484681Y110973D01*
X484633Y111030D01*
X484593Y111092D01*
X484521Y111162D01*
X484456Y111239D01*
X484396Y111283D01*
X484342Y111335D01*
X484256Y111386D01*
X484175Y111446D01*
X484107Y111475D01*
X484043Y111513D01*
X483947Y111544D01*
X483855Y111584D01*
X483782Y111597D01*
X483711Y111620D01*
X483611Y111628D01*
X483512Y111645D01*
X483438Y111642D01*
X483364Y111648D01*
X483264Y111633D01*
X483164Y111628D01*
X483093Y111607D01*
X483019Y111596D01*
X482926Y111559D01*
X482829Y111531D01*
X482764Y111495D01*
X482695Y111467D01*
X482613Y111410D01*
X482525Y111361D01*
X482449Y111296D01*
X482409Y111268D01*
X482385Y111242D01*
X482339Y111202D01*
X399971Y28834D01*
X397076Y27635D01*
X144434Y27635D01*
X141539Y28834D01*
X120324Y50049D01*
X119125Y52944D01*
X119125Y74560D01*
X119111Y74685D01*
X119104Y74811D01*
X119091Y74858D01*
X119085Y74906D01*
X119043Y75025D01*
X119008Y75146D01*
X118984Y75188D01*
X118968Y75234D01*
X118899Y75340D01*
X118838Y75450D01*
X118798Y75497D01*
X118779Y75527D01*
X118744Y75560D01*
X118679Y75637D01*
X118078Y76238D01*
X116475Y80107D01*
X116475Y102293D01*
X118078Y106162D01*
X121038Y109122D01*
X123168Y110005D01*
X123212Y110029D01*
X123260Y110046D01*
X123364Y110114D01*
X123473Y110174D01*
X123510Y110208D01*
X123552Y110235D01*
X123639Y110325D01*
X123731Y110408D01*
X123760Y110450D01*
X123795Y110486D01*
X123858Y110593D01*
X123929Y110695D01*
X123948Y110742D01*
X123973Y110785D01*
X124011Y110903D01*
X124057Y111019D01*
X124064Y111069D01*
X124080Y111117D01*
X124090Y111241D01*
X124108Y111364D01*
X124104Y111414D01*
X124108Y111464D01*
X124089Y111587D01*
X124079Y111711D01*
X124063Y111759D01*
X124056Y111809D01*
X124010Y111924D01*
X123972Y112043D01*
X123946Y112086D01*
X123927Y112133D01*
X123856Y112235D01*
X123792Y112341D01*
X123757Y112378D01*
X123728Y112419D01*
X123636Y112502D01*
X123549Y112591D01*
X123507Y112619D01*
X123470Y112652D01*
X123361Y112712D01*
X123256Y112780D01*
X123209Y112797D01*
X123164Y112821D01*
X123045Y112855D01*
X122928Y112896D01*
X122877Y112902D01*
X122829Y112916D01*
X122585Y112935D01*
X61316Y112935D01*
X12761Y161491D01*
X12683Y161553D01*
X12610Y161623D01*
X12546Y161661D01*
X12488Y161707D01*
X12397Y161750D01*
X12311Y161802D01*
X12240Y161824D01*
X12173Y161856D01*
X12075Y161877D01*
X11979Y161908D01*
X11905Y161914D01*
X11832Y161929D01*
X11732Y161928D01*
X11632Y161936D01*
X11558Y161925D01*
X11484Y161923D01*
X11387Y161899D01*
X11287Y161884D01*
X11218Y161857D01*
X11146Y161838D01*
X11056Y161792D01*
X10963Y161755D01*
X10902Y161713D01*
X10836Y161679D01*
X10759Y161614D01*
X10677Y161556D01*
X10627Y161501D01*
X10571Y161453D01*
X10511Y161372D01*
X10444Y161298D01*
X10408Y161233D01*
X10363Y161173D01*
X10324Y161081D01*
X10275Y160993D01*
X10255Y160921D01*
X10225Y160853D01*
X10208Y160754D01*
X10180Y160657D01*
X10172Y160557D01*
X10164Y160510D01*
X10166Y160474D01*
X10161Y160413D01*
X10161Y48251D01*
X10175Y48127D01*
X10181Y48002D01*
X10195Y47954D01*
X10201Y47905D01*
X10243Y47788D01*
X10277Y47667D01*
X10301Y47624D01*
X10318Y47577D01*
X10386Y47472D01*
X10447Y47363D01*
X10480Y47326D01*
X10507Y47284D01*
X10597Y47197D01*
X10681Y47105D01*
X10722Y47077D01*
X10758Y47042D01*
X10865Y46978D01*
X10968Y46907D01*
X11014Y46889D01*
X11057Y46863D01*
X11176Y46825D01*
X11292Y46779D01*
X11342Y46772D01*
X11389Y46757D01*
X11513Y46747D01*
X11637Y46729D01*
X11687Y46733D01*
X11736Y46729D01*
X11860Y46748D01*
X11984Y46758D01*
X12032Y46773D01*
X12081Y46781D01*
X12197Y46827D01*
X12316Y46865D01*
X12359Y46891D01*
X12405Y46909D01*
X12507Y46981D01*
X12615Y47045D01*
X12650Y47080D01*
X12691Y47108D01*
X12774Y47201D01*
X12864Y47288D01*
X12900Y47340D01*
X12924Y47367D01*
X12947Y47409D01*
X13003Y47490D01*
X15866Y52449D01*
X20551Y57134D01*
X26288Y60446D01*
X32688Y62161D01*
X39312Y62161D01*
X45712Y60446D01*
X51449Y57134D01*
X56134Y52449D01*
X59446Y46712D01*
X61161Y40312D01*
X61161Y33688D01*
X59446Y27288D01*
X56134Y21551D01*
X51449Y16866D01*
X45712Y13554D01*
X44224Y13155D01*
X44085Y13100D01*
X43944Y13050D01*
X43923Y13036D01*
X43900Y13027D01*
X43777Y12942D01*
X43651Y12861D01*
X43634Y12843D01*
X43613Y12829D01*
X43513Y12718D01*
X43409Y12610D01*
X43396Y12589D01*
X43379Y12570D01*
X43307Y12439D01*
X43230Y12311D01*
X43223Y12287D01*
X43210Y12266D01*
X43169Y12121D01*
X43124Y11979D01*
X43122Y11954D01*
X43115Y11930D01*
X43108Y11781D01*
X43096Y11632D01*
X43100Y11607D01*
X43098Y11582D01*
X43125Y11436D01*
X43148Y11287D01*
X43157Y11264D01*
X43161Y11240D01*
X43221Y11102D01*
X43276Y10963D01*
X43290Y10943D01*
X43300Y10920D01*
X43390Y10800D01*
X43475Y10677D01*
X43494Y10660D01*
X43509Y10641D01*
X43623Y10544D01*
X43734Y10444D01*
X43756Y10432D01*
X43775Y10416D01*
X43908Y10348D01*
X44039Y10275D01*
X44063Y10268D01*
X44085Y10257D01*
X44230Y10221D01*
X44374Y10180D01*
X44404Y10178D01*
X44423Y10173D01*
X44471Y10173D01*
X44618Y10161D01*
X446382Y10161D01*
X446530Y10178D01*
G37*
G36*
X108004Y121070D02*
X108004Y121070D01*
X108054Y121068D01*
X108177Y121090D01*
X108300Y121105D01*
X108348Y121122D01*
X108397Y121131D01*
X108511Y121180D01*
X108628Y121222D01*
X108671Y121249D01*
X108717Y121270D01*
X108817Y121344D01*
X108921Y121411D01*
X108956Y121447D01*
X108997Y121477D01*
X109077Y121572D01*
X109163Y121662D01*
X109189Y121705D01*
X109222Y121743D01*
X109278Y121854D01*
X109342Y121961D01*
X109357Y122009D01*
X109380Y122054D01*
X109410Y122174D01*
X109448Y122293D01*
X109452Y122343D01*
X109465Y122392D01*
X109466Y122516D01*
X109476Y122640D01*
X109469Y122690D01*
X109470Y122740D01*
X109443Y122862D01*
X109425Y122985D01*
X109406Y123032D01*
X109395Y123081D01*
X109342Y123193D01*
X109296Y123309D01*
X109267Y123350D01*
X109246Y123396D01*
X109168Y123493D01*
X109097Y123595D01*
X109060Y123629D01*
X109028Y123668D01*
X108930Y123745D01*
X108838Y123828D01*
X108794Y123853D01*
X108755Y123884D01*
X108537Y123995D01*
X108338Y124078D01*
X105378Y127038D01*
X103775Y130907D01*
X103775Y153093D01*
X105378Y156962D01*
X108338Y159922D01*
X112207Y161525D01*
X116393Y161525D01*
X120262Y159922D01*
X123222Y156962D01*
X124825Y153093D01*
X124825Y130907D01*
X123222Y127038D01*
X120262Y124078D01*
X120063Y123995D01*
X120019Y123971D01*
X119972Y123954D01*
X119867Y123886D01*
X119759Y123826D01*
X119721Y123792D01*
X119679Y123765D01*
X119592Y123675D01*
X119500Y123592D01*
X119472Y123550D01*
X119437Y123514D01*
X119373Y123408D01*
X119302Y123305D01*
X119284Y123258D01*
X119258Y123215D01*
X119220Y123097D01*
X119174Y122981D01*
X119167Y122931D01*
X119152Y122883D01*
X119142Y122759D01*
X119124Y122636D01*
X119128Y122586D01*
X119124Y122536D01*
X119142Y122413D01*
X119152Y122289D01*
X119168Y122241D01*
X119175Y122191D01*
X119221Y122076D01*
X119260Y121957D01*
X119286Y121914D01*
X119304Y121867D01*
X119375Y121765D01*
X119439Y121659D01*
X119474Y121622D01*
X119503Y121581D01*
X119595Y121498D01*
X119682Y121409D01*
X119724Y121381D01*
X119762Y121348D01*
X119871Y121287D01*
X119975Y121220D01*
X120023Y121204D01*
X120067Y121179D01*
X120187Y121145D01*
X120304Y121104D01*
X120354Y121098D01*
X120402Y121084D01*
X120646Y121065D01*
X133354Y121065D01*
X133404Y121070D01*
X133454Y121068D01*
X133577Y121090D01*
X133700Y121105D01*
X133748Y121122D01*
X133797Y121131D01*
X133911Y121180D01*
X134028Y121222D01*
X134071Y121249D01*
X134117Y121270D01*
X134217Y121344D01*
X134321Y121411D01*
X134356Y121447D01*
X134397Y121477D01*
X134477Y121572D01*
X134563Y121662D01*
X134589Y121705D01*
X134622Y121743D01*
X134678Y121854D01*
X134742Y121961D01*
X134757Y122009D01*
X134780Y122054D01*
X134810Y122174D01*
X134848Y122293D01*
X134852Y122343D01*
X134865Y122392D01*
X134866Y122516D01*
X134876Y122640D01*
X134869Y122690D01*
X134870Y122740D01*
X134843Y122862D01*
X134825Y122985D01*
X134806Y123032D01*
X134795Y123081D01*
X134742Y123193D01*
X134696Y123309D01*
X134667Y123350D01*
X134646Y123396D01*
X134568Y123493D01*
X134497Y123595D01*
X134460Y123629D01*
X134428Y123668D01*
X134330Y123745D01*
X134238Y123828D01*
X134194Y123853D01*
X134155Y123884D01*
X133937Y123995D01*
X133738Y124078D01*
X130778Y127038D01*
X129175Y130907D01*
X129175Y153093D01*
X130778Y156962D01*
X133738Y159922D01*
X137607Y161525D01*
X141793Y161525D01*
X145662Y159922D01*
X148622Y156962D01*
X150225Y153093D01*
X150225Y130907D01*
X148622Y127038D01*
X145662Y124078D01*
X145463Y123995D01*
X145419Y123971D01*
X145372Y123954D01*
X145267Y123886D01*
X145159Y123826D01*
X145121Y123792D01*
X145079Y123765D01*
X144992Y123675D01*
X144900Y123592D01*
X144872Y123550D01*
X144837Y123514D01*
X144773Y123408D01*
X144702Y123305D01*
X144684Y123258D01*
X144658Y123215D01*
X144620Y123097D01*
X144574Y122981D01*
X144567Y122931D01*
X144552Y122883D01*
X144542Y122759D01*
X144524Y122636D01*
X144528Y122586D01*
X144524Y122536D01*
X144542Y122413D01*
X144552Y122289D01*
X144568Y122241D01*
X144575Y122191D01*
X144621Y122076D01*
X144660Y121957D01*
X144686Y121914D01*
X144704Y121867D01*
X144775Y121765D01*
X144839Y121659D01*
X144874Y121622D01*
X144903Y121581D01*
X144995Y121498D01*
X145082Y121409D01*
X145124Y121381D01*
X145162Y121348D01*
X145271Y121287D01*
X145375Y121220D01*
X145423Y121204D01*
X145467Y121179D01*
X145587Y121145D01*
X145704Y121104D01*
X145754Y121098D01*
X145802Y121084D01*
X146046Y121065D01*
X158754Y121065D01*
X158804Y121070D01*
X158854Y121068D01*
X158977Y121090D01*
X159100Y121105D01*
X159148Y121122D01*
X159197Y121131D01*
X159311Y121180D01*
X159428Y121222D01*
X159471Y121249D01*
X159517Y121270D01*
X159617Y121344D01*
X159721Y121411D01*
X159756Y121447D01*
X159797Y121477D01*
X159877Y121572D01*
X159963Y121662D01*
X159989Y121705D01*
X160022Y121743D01*
X160078Y121854D01*
X160142Y121961D01*
X160157Y122009D01*
X160180Y122054D01*
X160210Y122174D01*
X160248Y122293D01*
X160252Y122343D01*
X160265Y122392D01*
X160266Y122516D01*
X160276Y122640D01*
X160269Y122690D01*
X160270Y122740D01*
X160243Y122862D01*
X160225Y122985D01*
X160206Y123032D01*
X160195Y123081D01*
X160142Y123193D01*
X160096Y123309D01*
X160067Y123350D01*
X160046Y123396D01*
X159968Y123493D01*
X159897Y123595D01*
X159860Y123629D01*
X159828Y123668D01*
X159730Y123745D01*
X159638Y123828D01*
X159594Y123853D01*
X159555Y123884D01*
X159337Y123995D01*
X159138Y124078D01*
X156178Y127038D01*
X154575Y130907D01*
X154575Y153093D01*
X156178Y156962D01*
X156779Y157563D01*
X156858Y157662D01*
X156942Y157756D01*
X156966Y157799D01*
X156996Y157836D01*
X157050Y157951D01*
X157111Y158061D01*
X157124Y158108D01*
X157145Y158151D01*
X157171Y158275D01*
X157206Y158397D01*
X157211Y158457D01*
X157218Y158492D01*
X157217Y158540D01*
X157225Y158640D01*
X157225Y187411D01*
X157214Y187511D01*
X157212Y187611D01*
X157194Y187684D01*
X157185Y187757D01*
X157152Y187852D01*
X157127Y187949D01*
X157093Y188016D01*
X157068Y188086D01*
X157013Y188170D01*
X156967Y188259D01*
X156919Y188316D01*
X156879Y188378D01*
X156807Y188448D01*
X156742Y188525D01*
X156682Y188569D01*
X156628Y188621D01*
X156542Y188672D01*
X156461Y188732D01*
X156393Y188761D01*
X156329Y188799D01*
X156233Y188830D01*
X156141Y188870D01*
X156068Y188883D01*
X155997Y188906D01*
X155897Y188914D01*
X155798Y188931D01*
X155724Y188928D01*
X155650Y188934D01*
X155550Y188919D01*
X155450Y188914D01*
X155379Y188893D01*
X155305Y188882D01*
X155212Y188845D01*
X155115Y188817D01*
X155050Y188781D01*
X154981Y188753D01*
X154899Y188696D01*
X154811Y188647D01*
X154735Y188582D01*
X154695Y188554D01*
X154671Y188528D01*
X154625Y188488D01*
X141890Y175754D01*
X139461Y173324D01*
X136566Y172125D01*
X43434Y172125D01*
X40539Y173324D01*
X38324Y175539D01*
X37125Y178434D01*
X37125Y181566D01*
X38324Y184461D01*
X40539Y186676D01*
X43434Y187875D01*
X131107Y187875D01*
X131233Y187889D01*
X131359Y187896D01*
X131405Y187909D01*
X131453Y187915D01*
X131572Y187957D01*
X131694Y187992D01*
X131736Y188016D01*
X131782Y188032D01*
X131888Y188101D01*
X131998Y188162D01*
X132044Y188202D01*
X132074Y188221D01*
X132108Y188256D01*
X132184Y188321D01*
X145539Y201676D01*
X148434Y202875D01*
X151566Y202875D01*
X154461Y201676D01*
X154625Y201512D01*
X154704Y201449D01*
X154776Y201379D01*
X154840Y201341D01*
X154898Y201295D01*
X154989Y201252D01*
X155075Y201201D01*
X155146Y201178D01*
X155213Y201146D01*
X155311Y201125D01*
X155407Y201094D01*
X155481Y201088D01*
X155554Y201073D01*
X155654Y201074D01*
X155754Y201066D01*
X155828Y201077D01*
X155902Y201079D01*
X156000Y201103D01*
X156099Y201118D01*
X156168Y201146D01*
X156240Y201164D01*
X156329Y201210D01*
X156423Y201247D01*
X156484Y201289D01*
X156550Y201323D01*
X156626Y201388D01*
X156709Y201446D01*
X156759Y201501D01*
X156815Y201549D01*
X156875Y201630D01*
X156942Y201705D01*
X156978Y201770D01*
X157023Y201829D01*
X157062Y201922D01*
X157111Y202010D01*
X157131Y202081D01*
X157161Y202149D01*
X157178Y202248D01*
X157206Y202345D01*
X157214Y202445D01*
X157222Y202492D01*
X157220Y202528D01*
X157225Y202589D01*
X157225Y218666D01*
X158424Y221561D01*
X160853Y223990D01*
X160854Y223990D01*
X166388Y229525D01*
X166451Y229603D01*
X166521Y229676D01*
X166559Y229740D01*
X166605Y229798D01*
X166648Y229889D01*
X166699Y229975D01*
X166722Y230046D01*
X166754Y230113D01*
X166775Y230211D01*
X166806Y230307D01*
X166812Y230381D01*
X166827Y230454D01*
X166826Y230554D01*
X166834Y230654D01*
X166823Y230728D01*
X166821Y230802D01*
X166797Y230899D01*
X166782Y230999D01*
X166754Y231068D01*
X166736Y231140D01*
X166690Y231230D01*
X166653Y231323D01*
X166611Y231384D01*
X166577Y231450D01*
X166511Y231527D01*
X166454Y231609D01*
X166399Y231659D01*
X166351Y231715D01*
X166270Y231775D01*
X166195Y231842D01*
X166130Y231878D01*
X166071Y231923D01*
X165978Y231962D01*
X165890Y232011D01*
X165819Y232031D01*
X165751Y232061D01*
X165652Y232078D01*
X165555Y232106D01*
X165455Y232114D01*
X165408Y232122D01*
X165372Y232120D01*
X165311Y232125D01*
X103434Y232125D01*
X100539Y233324D01*
X85884Y247979D01*
X85785Y248058D01*
X85691Y248142D01*
X85649Y248166D01*
X85611Y248196D01*
X85497Y248250D01*
X85386Y248311D01*
X85340Y248324D01*
X85296Y248345D01*
X85173Y248371D01*
X85051Y248406D01*
X84990Y248411D01*
X84955Y248418D01*
X84907Y248417D01*
X84807Y248425D01*
X63608Y248425D01*
X63606Y248425D01*
X63604Y248425D01*
X63433Y248405D01*
X63262Y248385D01*
X63260Y248385D01*
X63258Y248384D01*
X63025Y248309D01*
X60239Y247155D01*
X41361Y247155D01*
X38000Y248548D01*
X35428Y251120D01*
X34035Y254481D01*
X34035Y258119D01*
X35427Y261480D01*
X36282Y262335D01*
X36345Y262414D01*
X36415Y262486D01*
X36453Y262550D01*
X36499Y262608D01*
X36542Y262699D01*
X36593Y262785D01*
X36616Y262856D01*
X36648Y262923D01*
X36669Y263021D01*
X36700Y263117D01*
X36706Y263191D01*
X36721Y263264D01*
X36720Y263364D01*
X36728Y263464D01*
X36717Y263538D01*
X36715Y263612D01*
X36691Y263709D01*
X36676Y263809D01*
X36648Y263878D01*
X36630Y263950D01*
X36584Y264039D01*
X36547Y264133D01*
X36505Y264194D01*
X36471Y264260D01*
X36406Y264336D01*
X36348Y264419D01*
X36293Y264469D01*
X36245Y264525D01*
X36164Y264585D01*
X36089Y264652D01*
X36024Y264688D01*
X35965Y264733D01*
X35872Y264772D01*
X35784Y264821D01*
X35713Y264841D01*
X35645Y264871D01*
X35546Y264888D01*
X35449Y264916D01*
X35349Y264924D01*
X35302Y264932D01*
X35266Y264930D01*
X35205Y264935D01*
X26315Y264935D01*
X26189Y264921D01*
X26063Y264914D01*
X26016Y264901D01*
X25968Y264895D01*
X25849Y264853D01*
X25728Y264818D01*
X25686Y264794D01*
X25640Y264778D01*
X25534Y264709D01*
X25424Y264648D01*
X25378Y264608D01*
X25348Y264589D01*
X25314Y264554D01*
X25238Y264489D01*
X19511Y258762D01*
X19432Y258663D01*
X19348Y258570D01*
X19324Y258527D01*
X19294Y258489D01*
X19240Y258375D01*
X19179Y258265D01*
X19166Y258218D01*
X19145Y258174D01*
X19119Y258051D01*
X19084Y257929D01*
X19079Y257868D01*
X19072Y257834D01*
X19073Y257786D01*
X19065Y257685D01*
X19065Y167315D01*
X19079Y167189D01*
X19086Y167063D01*
X19099Y167016D01*
X19105Y166968D01*
X19147Y166849D01*
X19182Y166728D01*
X19206Y166686D01*
X19222Y166640D01*
X19291Y166534D01*
X19352Y166424D01*
X19392Y166378D01*
X19411Y166348D01*
X19446Y166314D01*
X19511Y166238D01*
X64238Y121511D01*
X64337Y121432D01*
X64430Y121348D01*
X64473Y121324D01*
X64511Y121294D01*
X64625Y121240D01*
X64735Y121179D01*
X64782Y121166D01*
X64826Y121145D01*
X64949Y121119D01*
X65071Y121084D01*
X65132Y121079D01*
X65166Y121072D01*
X65214Y121073D01*
X65315Y121065D01*
X107954Y121065D01*
X108004Y121070D01*
G37*
%LPC*%
G36*
X176183Y330467D02*
X176183Y330467D01*
X173195Y331705D01*
X170909Y333991D01*
X169671Y336979D01*
X169671Y353421D01*
X169809Y353754D01*
X169810Y353756D01*
X169811Y353758D01*
X169858Y353925D01*
X169905Y354089D01*
X169905Y354091D01*
X169906Y354093D01*
X169925Y354337D01*
X169925Y358307D01*
X169911Y358433D01*
X169904Y358559D01*
X169891Y358605D01*
X169885Y358653D01*
X169843Y358772D01*
X169808Y358894D01*
X169784Y358936D01*
X169768Y358982D01*
X169699Y359088D01*
X169638Y359198D01*
X169598Y359244D01*
X169579Y359274D01*
X169544Y359308D01*
X169479Y359384D01*
X162184Y366679D01*
X162085Y366758D01*
X161991Y366842D01*
X161949Y366866D01*
X161911Y366896D01*
X161797Y366950D01*
X161686Y367011D01*
X161640Y367024D01*
X161596Y367045D01*
X161473Y367071D01*
X161351Y367106D01*
X161290Y367111D01*
X161255Y367118D01*
X161207Y367117D01*
X161107Y367125D01*
X108893Y367125D01*
X108767Y367111D01*
X108641Y367104D01*
X108595Y367091D01*
X108547Y367085D01*
X108428Y367043D01*
X108306Y367008D01*
X108264Y366984D01*
X108218Y366968D01*
X108112Y366899D01*
X108002Y366838D01*
X107956Y366798D01*
X107926Y366779D01*
X107892Y366744D01*
X107816Y366679D01*
X92361Y351224D01*
X89466Y350025D01*
X63608Y350025D01*
X63606Y350025D01*
X63604Y350025D01*
X63433Y350005D01*
X63262Y349985D01*
X63260Y349985D01*
X63258Y349984D01*
X63025Y349909D01*
X60239Y348755D01*
X41361Y348755D01*
X38000Y350148D01*
X35428Y352720D01*
X34035Y356081D01*
X34035Y359719D01*
X35428Y363080D01*
X38000Y365652D01*
X41361Y367045D01*
X60239Y367045D01*
X63025Y365891D01*
X63027Y365890D01*
X63029Y365889D01*
X63191Y365843D01*
X63360Y365795D01*
X63362Y365795D01*
X63364Y365794D01*
X63608Y365775D01*
X84007Y365775D01*
X84133Y365789D01*
X84259Y365796D01*
X84305Y365809D01*
X84353Y365815D01*
X84472Y365857D01*
X84594Y365892D01*
X84636Y365916D01*
X84682Y365932D01*
X84788Y366001D01*
X84898Y366062D01*
X84944Y366102D01*
X84974Y366121D01*
X85008Y366156D01*
X85084Y366221D01*
X100539Y381676D01*
X103434Y382875D01*
X166566Y382875D01*
X169461Y381676D01*
X184476Y366661D01*
X185675Y363766D01*
X185675Y354337D01*
X185675Y354335D01*
X185675Y354333D01*
X185695Y354162D01*
X185715Y353991D01*
X185715Y353989D01*
X185716Y353987D01*
X185791Y353754D01*
X185929Y353421D01*
X185929Y336979D01*
X184691Y333991D01*
X182405Y331705D01*
X179417Y330467D01*
X176183Y330467D01*
G37*
%LPD*%
%LPC*%
G36*
X373434Y127125D02*
X373434Y127125D01*
X370539Y128324D01*
X368324Y130539D01*
X367125Y133434D01*
X367125Y191107D01*
X367111Y191233D01*
X367104Y191359D01*
X367091Y191405D01*
X367085Y191453D01*
X367043Y191572D01*
X367008Y191694D01*
X366984Y191736D01*
X366968Y191782D01*
X366899Y191888D01*
X366838Y191998D01*
X366798Y192044D01*
X366779Y192074D01*
X366744Y192108D01*
X366679Y192184D01*
X323524Y235339D01*
X322325Y238234D01*
X322325Y259863D01*
X322325Y259865D01*
X322325Y259867D01*
X322305Y260038D01*
X322285Y260209D01*
X322285Y260211D01*
X322284Y260213D01*
X322209Y260446D01*
X322071Y260779D01*
X322071Y277221D01*
X323309Y280209D01*
X325595Y282495D01*
X328583Y283733D01*
X331817Y283733D01*
X334805Y282495D01*
X337091Y280209D01*
X338329Y277221D01*
X338329Y260779D01*
X338191Y260446D01*
X338190Y260444D01*
X338189Y260442D01*
X338140Y260269D01*
X338095Y260111D01*
X338095Y260109D01*
X338094Y260107D01*
X338075Y259863D01*
X338075Y243693D01*
X338089Y243567D01*
X338096Y243441D01*
X338109Y243395D01*
X338115Y243347D01*
X338157Y243228D01*
X338192Y243106D01*
X338216Y243064D01*
X338232Y243018D01*
X338301Y242912D01*
X338362Y242802D01*
X338402Y242756D01*
X338421Y242726D01*
X338456Y242692D01*
X338521Y242616D01*
X381676Y199461D01*
X382875Y196566D01*
X382875Y133434D01*
X381676Y130539D01*
X379461Y128324D01*
X376566Y127125D01*
X373434Y127125D01*
G37*
%LPD*%
G36*
X161233Y247889D02*
X161233Y247889D01*
X161359Y247896D01*
X161405Y247909D01*
X161453Y247915D01*
X161572Y247957D01*
X161694Y247992D01*
X161736Y248016D01*
X161782Y248032D01*
X161888Y248101D01*
X161998Y248162D01*
X162044Y248202D01*
X162074Y248221D01*
X162108Y248256D01*
X162184Y248321D01*
X169479Y255616D01*
X169558Y255715D01*
X169642Y255809D01*
X169666Y255851D01*
X169696Y255889D01*
X169750Y256003D01*
X169811Y256114D01*
X169824Y256160D01*
X169845Y256204D01*
X169871Y256327D01*
X169906Y256449D01*
X169911Y256510D01*
X169918Y256545D01*
X169917Y256593D01*
X169925Y256693D01*
X169925Y259863D01*
X169925Y259865D01*
X169925Y259867D01*
X169905Y260038D01*
X169885Y260209D01*
X169885Y260211D01*
X169884Y260213D01*
X169809Y260446D01*
X169671Y260779D01*
X169671Y277221D01*
X170864Y280101D01*
X170906Y280246D01*
X170951Y280389D01*
X170953Y280413D01*
X170960Y280436D01*
X170967Y280587D01*
X170979Y280736D01*
X170976Y280760D01*
X170977Y280784D01*
X170950Y280932D01*
X170928Y281081D01*
X170919Y281103D01*
X170914Y281127D01*
X170854Y281265D01*
X170799Y281405D01*
X170785Y281425D01*
X170776Y281447D01*
X170686Y281568D01*
X170600Y281691D01*
X170582Y281707D01*
X170568Y281727D01*
X170453Y281824D01*
X170341Y281924D01*
X170320Y281936D01*
X170302Y281952D01*
X170168Y282020D01*
X170036Y282093D01*
X170013Y282099D01*
X169991Y282110D01*
X169846Y282147D01*
X169701Y282188D01*
X169672Y282190D01*
X169653Y282195D01*
X169606Y282195D01*
X169457Y282207D01*
X135343Y282207D01*
X135194Y282190D01*
X135044Y282178D01*
X135021Y282170D01*
X134997Y282167D01*
X134856Y282117D01*
X134712Y282071D01*
X134691Y282058D01*
X134669Y282050D01*
X134543Y281968D01*
X134414Y281891D01*
X134396Y281874D01*
X134376Y281861D01*
X134271Y281753D01*
X134164Y281648D01*
X134150Y281628D01*
X134134Y281610D01*
X134056Y281481D01*
X133975Y281355D01*
X133967Y281332D01*
X133955Y281311D01*
X133909Y281168D01*
X133859Y281026D01*
X133856Y281002D01*
X133849Y280979D01*
X133837Y280830D01*
X133820Y280680D01*
X133823Y280656D01*
X133821Y280632D01*
X133843Y280483D01*
X133861Y280334D01*
X133869Y280306D01*
X133872Y280287D01*
X133890Y280243D01*
X133936Y280101D01*
X135129Y277221D01*
X135129Y260779D01*
X133891Y257791D01*
X131605Y255505D01*
X128617Y254267D01*
X125383Y254267D01*
X122395Y255505D01*
X120109Y257791D01*
X118871Y260779D01*
X118871Y277221D01*
X120064Y280101D01*
X120106Y280246D01*
X120151Y280389D01*
X120153Y280413D01*
X120160Y280436D01*
X120167Y280587D01*
X120179Y280736D01*
X120176Y280760D01*
X120177Y280784D01*
X120150Y280932D01*
X120128Y281081D01*
X120119Y281103D01*
X120114Y281127D01*
X120054Y281265D01*
X119999Y281405D01*
X119985Y281425D01*
X119976Y281447D01*
X119886Y281568D01*
X119800Y281691D01*
X119782Y281707D01*
X119768Y281727D01*
X119653Y281824D01*
X119541Y281924D01*
X119520Y281936D01*
X119502Y281952D01*
X119368Y282020D01*
X119236Y282093D01*
X119213Y282099D01*
X119191Y282110D01*
X119046Y282147D01*
X118901Y282188D01*
X118872Y282190D01*
X118853Y282195D01*
X118806Y282195D01*
X118657Y282207D01*
X116587Y282207D01*
X116461Y282193D01*
X116335Y282186D01*
X116288Y282173D01*
X116240Y282167D01*
X116121Y282125D01*
X116000Y282090D01*
X115958Y282066D01*
X115912Y282050D01*
X115806Y281981D01*
X115696Y281920D01*
X115649Y281880D01*
X115619Y281861D01*
X115586Y281826D01*
X115510Y281761D01*
X98684Y264935D01*
X94879Y264935D01*
X94779Y264924D01*
X94679Y264922D01*
X94606Y264904D01*
X94533Y264895D01*
X94438Y264862D01*
X94341Y264837D01*
X94274Y264803D01*
X94204Y264778D01*
X94120Y264723D01*
X94031Y264677D01*
X93974Y264629D01*
X93912Y264589D01*
X93842Y264517D01*
X93765Y264452D01*
X93721Y264392D01*
X93669Y264338D01*
X93618Y264252D01*
X93558Y264171D01*
X93529Y264103D01*
X93491Y264039D01*
X93460Y263943D01*
X93420Y263851D01*
X93407Y263778D01*
X93384Y263707D01*
X93376Y263607D01*
X93359Y263508D01*
X93362Y263434D01*
X93356Y263360D01*
X93371Y263260D01*
X93376Y263160D01*
X93397Y263089D01*
X93408Y263015D01*
X93445Y262922D01*
X93473Y262825D01*
X93509Y262760D01*
X93537Y262691D01*
X93594Y262609D01*
X93643Y262521D01*
X93708Y262445D01*
X93736Y262405D01*
X93762Y262381D01*
X93802Y262335D01*
X107816Y248321D01*
X107915Y248242D01*
X108009Y248158D01*
X108051Y248134D01*
X108089Y248104D01*
X108203Y248050D01*
X108314Y247989D01*
X108360Y247976D01*
X108404Y247955D01*
X108527Y247929D01*
X108649Y247894D01*
X108710Y247889D01*
X108745Y247882D01*
X108793Y247883D01*
X108893Y247875D01*
X161107Y247875D01*
X161233Y247889D01*
G37*
%LPC*%
G36*
X41361Y196355D02*
X41361Y196355D01*
X38000Y197748D01*
X35428Y200320D01*
X34035Y203681D01*
X34035Y207319D01*
X35428Y210680D01*
X38000Y213252D01*
X41361Y214645D01*
X60239Y214645D01*
X63025Y213491D01*
X63027Y213490D01*
X63029Y213489D01*
X63191Y213443D01*
X63360Y213395D01*
X63362Y213395D01*
X63364Y213394D01*
X63608Y213375D01*
X126607Y213375D01*
X126733Y213389D01*
X126859Y213396D01*
X126905Y213409D01*
X126953Y213415D01*
X127072Y213457D01*
X127194Y213492D01*
X127236Y213516D01*
X127282Y213532D01*
X127388Y213601D01*
X127498Y213662D01*
X127544Y213702D01*
X127574Y213721D01*
X127608Y213756D01*
X127684Y213821D01*
X130539Y216676D01*
X133434Y217875D01*
X136566Y217875D01*
X139461Y216676D01*
X141676Y214461D01*
X142875Y211566D01*
X142875Y208434D01*
X141676Y205539D01*
X134961Y198824D01*
X132066Y197625D01*
X63608Y197625D01*
X63606Y197625D01*
X63604Y197625D01*
X63433Y197605D01*
X63262Y197585D01*
X63260Y197585D01*
X63258Y197584D01*
X63025Y197509D01*
X60239Y196355D01*
X41361Y196355D01*
G37*
%LPD*%
%LPC*%
G36*
X388434Y52125D02*
X388434Y52125D01*
X385539Y53324D01*
X383324Y55539D01*
X382125Y58434D01*
X382125Y61566D01*
X383324Y64461D01*
X385539Y66676D01*
X385782Y66776D01*
X385784Y66777D01*
X385785Y66778D01*
X385933Y66861D01*
X386086Y66946D01*
X386088Y66947D01*
X386090Y66948D01*
X386276Y67107D01*
X422985Y103816D01*
X423064Y103915D01*
X423148Y104009D01*
X423172Y104051D01*
X423202Y104089D01*
X423256Y104203D01*
X423317Y104314D01*
X423330Y104360D01*
X423351Y104404D01*
X423377Y104527D01*
X423412Y104649D01*
X423417Y104710D01*
X423424Y104745D01*
X423423Y104793D01*
X423431Y104893D01*
X423431Y124566D01*
X424630Y127461D01*
X426845Y129676D01*
X429740Y130875D01*
X432872Y130875D01*
X435767Y129676D01*
X437982Y127461D01*
X439181Y124566D01*
X439181Y99434D01*
X437982Y96539D01*
X394767Y53324D01*
X391872Y52125D01*
X388434Y52125D01*
G37*
%LPD*%
G36*
X225660Y68880D02*
X225660Y68880D01*
X225710Y68878D01*
X225832Y68900D01*
X225956Y68915D01*
X226003Y68932D01*
X226053Y68941D01*
X226167Y68990D01*
X226284Y69032D01*
X226326Y69059D01*
X226373Y69079D01*
X226472Y69154D01*
X226577Y69221D01*
X226612Y69257D01*
X226652Y69287D01*
X226733Y69382D01*
X226819Y69472D01*
X226845Y69515D01*
X226877Y69553D01*
X226934Y69664D01*
X226998Y69771D01*
X227013Y69819D01*
X227036Y69864D01*
X227066Y69984D01*
X227104Y70103D01*
X227108Y70153D01*
X227120Y70202D01*
X227122Y70326D01*
X227132Y70450D01*
X227125Y70500D01*
X227125Y70550D01*
X227099Y70672D01*
X227080Y70795D01*
X227062Y70842D01*
X227051Y70891D01*
X226998Y71003D01*
X226952Y71119D01*
X226923Y71160D01*
X226901Y71206D01*
X226824Y71303D01*
X226753Y71405D01*
X226715Y71439D01*
X226684Y71478D01*
X226586Y71555D01*
X226494Y71638D01*
X226450Y71663D01*
X226410Y71694D01*
X226193Y71805D01*
X222638Y73278D01*
X219678Y76238D01*
X218075Y80107D01*
X218075Y102293D01*
X219678Y106162D01*
X220807Y107291D01*
X220823Y107311D01*
X220843Y107328D01*
X220931Y107448D01*
X221023Y107564D01*
X221034Y107587D01*
X221050Y107609D01*
X221109Y107745D01*
X221172Y107879D01*
X221178Y107905D01*
X221188Y107929D01*
X221214Y108075D01*
X221245Y108220D01*
X221245Y108246D01*
X221250Y108272D01*
X221242Y108420D01*
X221240Y108568D01*
X221233Y108594D01*
X221232Y108620D01*
X221191Y108762D01*
X221155Y108906D01*
X221143Y108929D01*
X221135Y108955D01*
X221063Y109084D01*
X220995Y109216D01*
X220978Y109236D01*
X220965Y109259D01*
X220807Y109445D01*
X217762Y112489D01*
X217663Y112568D01*
X217570Y112652D01*
X217527Y112676D01*
X217489Y112706D01*
X217375Y112760D01*
X217265Y112821D01*
X217218Y112834D01*
X217174Y112855D01*
X217051Y112881D01*
X216929Y112916D01*
X216868Y112921D01*
X216834Y112928D01*
X216786Y112927D01*
X216685Y112935D01*
X182215Y112935D01*
X182165Y112930D01*
X182114Y112932D01*
X181992Y112910D01*
X181868Y112895D01*
X181821Y112878D01*
X181772Y112869D01*
X181657Y112820D01*
X181540Y112778D01*
X181498Y112751D01*
X181452Y112731D01*
X181352Y112656D01*
X181248Y112589D01*
X181213Y112553D01*
X181172Y112523D01*
X181092Y112428D01*
X181005Y112338D01*
X180979Y112295D01*
X180947Y112257D01*
X180890Y112146D01*
X180827Y112039D01*
X180811Y111991D01*
X180788Y111946D01*
X180758Y111826D01*
X180720Y111707D01*
X180716Y111657D01*
X180704Y111608D01*
X180702Y111484D01*
X180692Y111360D01*
X180700Y111310D01*
X180699Y111260D01*
X180726Y111138D01*
X180744Y111015D01*
X180763Y110968D01*
X180773Y110919D01*
X180827Y110807D01*
X180873Y110691D01*
X180902Y110650D01*
X180923Y110604D01*
X181001Y110507D01*
X181072Y110405D01*
X181109Y110371D01*
X181140Y110332D01*
X181238Y110255D01*
X181330Y110172D01*
X181375Y110147D01*
X181414Y110116D01*
X181632Y110005D01*
X183762Y109122D01*
X186722Y106162D01*
X188325Y102293D01*
X188325Y80107D01*
X186722Y76238D01*
X186121Y75637D01*
X186042Y75538D01*
X185958Y75444D01*
X185934Y75401D01*
X185904Y75364D01*
X185850Y75249D01*
X185789Y75139D01*
X185776Y75092D01*
X185755Y75049D01*
X185729Y74925D01*
X185694Y74803D01*
X185689Y74743D01*
X185682Y74708D01*
X185683Y74660D01*
X185675Y74560D01*
X185675Y70398D01*
X185678Y70372D01*
X185676Y70346D01*
X185698Y70199D01*
X185715Y70052D01*
X185723Y70027D01*
X185727Y70001D01*
X185782Y69863D01*
X185832Y69724D01*
X185846Y69702D01*
X185856Y69677D01*
X185941Y69556D01*
X186021Y69431D01*
X186040Y69413D01*
X186055Y69391D01*
X186165Y69292D01*
X186272Y69189D01*
X186294Y69175D01*
X186314Y69158D01*
X186444Y69086D01*
X186571Y69010D01*
X186596Y69002D01*
X186619Y68989D01*
X186762Y68949D01*
X186903Y68904D01*
X186929Y68902D01*
X186954Y68894D01*
X187198Y68875D01*
X225610Y68875D01*
X225660Y68880D01*
G37*
%LPC*%
G36*
X268434Y202125D02*
X268434Y202125D01*
X265539Y203324D01*
X247324Y221539D01*
X246125Y224434D01*
X246125Y259863D01*
X246125Y259865D01*
X246125Y259867D01*
X246105Y260038D01*
X246085Y260209D01*
X246085Y260211D01*
X246084Y260213D01*
X246009Y260446D01*
X245871Y260779D01*
X245871Y277221D01*
X247109Y280209D01*
X249395Y282495D01*
X252383Y283733D01*
X255617Y283733D01*
X258605Y282495D01*
X260891Y280209D01*
X262129Y277221D01*
X262129Y260779D01*
X261991Y260446D01*
X261990Y260444D01*
X261989Y260442D01*
X261940Y260269D01*
X261895Y260111D01*
X261895Y260109D01*
X261894Y260107D01*
X261875Y259863D01*
X261875Y229893D01*
X261889Y229767D01*
X261896Y229641D01*
X261909Y229595D01*
X261915Y229547D01*
X261957Y229428D01*
X261992Y229306D01*
X262016Y229264D01*
X262032Y229218D01*
X262101Y229112D01*
X262162Y229002D01*
X262202Y228956D01*
X262221Y228926D01*
X262256Y228892D01*
X262321Y228816D01*
X276676Y214461D01*
X277875Y211566D01*
X277875Y208434D01*
X276676Y205539D01*
X274461Y203324D01*
X271566Y202125D01*
X268434Y202125D01*
G37*
%LPD*%
%LPC*%
G36*
X252383Y330467D02*
X252383Y330467D01*
X249395Y331705D01*
X247109Y333991D01*
X245871Y336979D01*
X245871Y353421D01*
X246009Y353754D01*
X246010Y353756D01*
X246011Y353758D01*
X246058Y353925D01*
X246105Y354089D01*
X246105Y354091D01*
X246106Y354093D01*
X246125Y354337D01*
X246125Y357107D01*
X246111Y357233D01*
X246104Y357359D01*
X246091Y357405D01*
X246085Y357453D01*
X246043Y357572D01*
X246008Y357694D01*
X245984Y357736D01*
X245968Y357782D01*
X245899Y357888D01*
X245838Y357998D01*
X245798Y358044D01*
X245779Y358074D01*
X245744Y358108D01*
X245679Y358184D01*
X237184Y366679D01*
X237085Y366758D01*
X236991Y366842D01*
X236949Y366866D01*
X236911Y366896D01*
X236797Y366950D01*
X236686Y367011D01*
X236640Y367024D01*
X236596Y367045D01*
X236473Y367071D01*
X236351Y367106D01*
X236290Y367111D01*
X236255Y367118D01*
X236207Y367117D01*
X236107Y367125D01*
X208434Y367125D01*
X205539Y368324D01*
X203324Y370539D01*
X202125Y373434D01*
X202125Y376566D01*
X203324Y379461D01*
X205539Y381676D01*
X208434Y382875D01*
X241566Y382875D01*
X244461Y381676D01*
X260676Y365461D01*
X261875Y362566D01*
X261875Y354337D01*
X261875Y354335D01*
X261875Y354333D01*
X261895Y354162D01*
X261915Y353991D01*
X261915Y353989D01*
X261916Y353987D01*
X261991Y353754D01*
X262129Y353421D01*
X262129Y336979D01*
X260891Y333991D01*
X258605Y331705D01*
X255617Y330467D01*
X252383Y330467D01*
G37*
%LPD*%
%LPC*%
G36*
X264607Y122475D02*
X264607Y122475D01*
X260738Y124078D01*
X257778Y127038D01*
X256175Y130907D01*
X256175Y153093D01*
X257778Y156962D01*
X260738Y159922D01*
X264607Y161525D01*
X268793Y161525D01*
X272662Y159922D01*
X275622Y156962D01*
X277225Y153093D01*
X277225Y130907D01*
X275622Y127038D01*
X272662Y124078D01*
X268793Y122475D01*
X264607Y122475D01*
G37*
%LPD*%
%LPC*%
G36*
X290007Y122475D02*
X290007Y122475D01*
X286138Y124078D01*
X283178Y127038D01*
X281575Y130907D01*
X281575Y153093D01*
X283178Y156962D01*
X286138Y159922D01*
X290007Y161525D01*
X294193Y161525D01*
X298062Y159922D01*
X301022Y156962D01*
X302625Y153093D01*
X302625Y130907D01*
X301022Y127038D01*
X298062Y124078D01*
X294193Y122475D01*
X290007Y122475D01*
G37*
%LPD*%
%LPC*%
G36*
X41361Y374155D02*
X41361Y374155D01*
X38000Y375548D01*
X35428Y378120D01*
X34035Y381481D01*
X34035Y385119D01*
X35428Y388480D01*
X38000Y391052D01*
X41361Y392445D01*
X60239Y392445D01*
X63600Y391052D01*
X66172Y388480D01*
X67565Y385119D01*
X67565Y381481D01*
X66172Y378120D01*
X63600Y375548D01*
X60239Y374155D01*
X41361Y374155D01*
G37*
%LPD*%
%LPC*%
G36*
X112481Y455435D02*
X112481Y455435D01*
X109120Y456828D01*
X106548Y459400D01*
X105155Y462761D01*
X105155Y481639D01*
X106548Y485000D01*
X109120Y487572D01*
X112481Y488965D01*
X116119Y488965D01*
X119480Y487572D01*
X122052Y485000D01*
X123445Y481639D01*
X123445Y462761D01*
X122052Y459400D01*
X119480Y456828D01*
X116119Y455435D01*
X112481Y455435D01*
G37*
%LPD*%
%LPC*%
G36*
X150783Y330467D02*
X150783Y330467D01*
X147795Y331705D01*
X145509Y333991D01*
X144271Y336979D01*
X144271Y353421D01*
X145509Y356409D01*
X147795Y358695D01*
X150783Y359933D01*
X154017Y359933D01*
X157005Y358695D01*
X159291Y356409D01*
X160529Y353421D01*
X160529Y336979D01*
X159291Y333991D01*
X157005Y331705D01*
X154017Y330467D01*
X150783Y330467D01*
G37*
%LPD*%
%LPC*%
G36*
X303183Y254267D02*
X303183Y254267D01*
X300195Y255505D01*
X297909Y257791D01*
X296671Y260779D01*
X296671Y277221D01*
X297909Y280209D01*
X300195Y282495D01*
X303183Y283733D01*
X306417Y283733D01*
X309405Y282495D01*
X311691Y280209D01*
X312929Y277221D01*
X312929Y260779D01*
X311691Y257791D01*
X309405Y255505D01*
X306417Y254267D01*
X303183Y254267D01*
G37*
%LPD*%
%LPC*%
G36*
X125383Y330467D02*
X125383Y330467D01*
X122395Y331705D01*
X120109Y333991D01*
X118871Y336979D01*
X118871Y353421D01*
X120109Y356409D01*
X122395Y358695D01*
X125383Y359933D01*
X128617Y359933D01*
X131605Y358695D01*
X133891Y356409D01*
X135129Y353421D01*
X135129Y336979D01*
X133891Y333991D01*
X131605Y331705D01*
X128617Y330467D01*
X125383Y330467D01*
G37*
%LPD*%
%LPC*%
G36*
X226983Y330467D02*
X226983Y330467D01*
X223995Y331705D01*
X221709Y333991D01*
X220471Y336979D01*
X220471Y353421D01*
X221709Y356409D01*
X223995Y358695D01*
X226983Y359933D01*
X230217Y359933D01*
X233205Y358695D01*
X235491Y356409D01*
X236729Y353421D01*
X236729Y336979D01*
X235491Y333991D01*
X233205Y331705D01*
X230217Y330467D01*
X226983Y330467D01*
G37*
%LPD*%
%LPC*%
G36*
X450848Y292824D02*
X450848Y292824D01*
X446612Y294579D01*
X443370Y297821D01*
X441615Y302057D01*
X441615Y306641D01*
X443370Y310877D01*
X446612Y314119D01*
X450848Y315874D01*
X455432Y315874D01*
X459668Y314119D01*
X462910Y310877D01*
X464665Y306641D01*
X464665Y302057D01*
X462910Y297821D01*
X459668Y294579D01*
X455432Y292824D01*
X450848Y292824D01*
G37*
%LPD*%
%LPC*%
G36*
X450848Y343624D02*
X450848Y343624D01*
X446612Y345379D01*
X443370Y348621D01*
X441615Y352857D01*
X441615Y357441D01*
X443370Y361677D01*
X446612Y364919D01*
X450848Y366674D01*
X455432Y366674D01*
X459668Y364919D01*
X462910Y361677D01*
X464665Y357441D01*
X464665Y352857D01*
X462910Y348621D01*
X459668Y345379D01*
X455432Y343624D01*
X450848Y343624D01*
G37*
%LPD*%
%LPC*%
G36*
X450848Y140424D02*
X450848Y140424D01*
X446612Y142179D01*
X443370Y145421D01*
X441615Y149657D01*
X441615Y154241D01*
X443370Y158477D01*
X446612Y161719D01*
X450848Y163474D01*
X455432Y163474D01*
X459668Y161719D01*
X462910Y158477D01*
X464665Y154241D01*
X464665Y149657D01*
X462910Y145421D01*
X459668Y142179D01*
X455432Y140424D01*
X450848Y140424D01*
G37*
%LPD*%
%LPC*%
G36*
X345883Y467881D02*
X345883Y467881D01*
X341121Y472643D01*
X341121Y479377D01*
X345883Y484139D01*
X352617Y484139D01*
X357379Y479377D01*
X357379Y472643D01*
X352617Y467881D01*
X345883Y467881D01*
G37*
%LPD*%
D10*
X127000Y262396D02*
X127000Y275604D01*
X152400Y275604D02*
X152400Y262396D01*
X279400Y262396D02*
X279400Y275604D01*
X304800Y275604D02*
X304800Y262396D01*
X177800Y262396D02*
X177800Y275604D01*
X203200Y275604D02*
X203200Y262396D01*
X254000Y262396D02*
X254000Y275604D01*
X228600Y275604D02*
X228600Y262396D01*
X330200Y262396D02*
X330200Y275604D01*
X355600Y275604D02*
X355600Y262396D01*
X355600Y338596D02*
X355600Y351804D01*
X330200Y351804D02*
X330200Y338596D01*
X304800Y338596D02*
X304800Y351804D01*
X279400Y351804D02*
X279400Y338596D01*
X254000Y338596D02*
X254000Y351804D01*
X228600Y351804D02*
X228600Y338596D01*
X203200Y338596D02*
X203200Y351804D01*
X177800Y351804D02*
X177800Y338596D01*
X152400Y338596D02*
X152400Y351804D01*
X127000Y351804D02*
X127000Y338596D01*
D11*
X203200Y100200D02*
X203200Y82200D01*
X190500Y133000D02*
X190500Y151000D01*
X177800Y100200D02*
X177800Y82200D01*
X165100Y133000D02*
X165100Y151000D01*
X152400Y100200D02*
X152400Y82200D01*
X139700Y133000D02*
X139700Y151000D01*
X215900Y151000D02*
X215900Y133000D01*
X228600Y100200D02*
X228600Y82200D01*
X241300Y133000D02*
X241300Y151000D01*
X254000Y100200D02*
X254000Y82200D01*
X266700Y133000D02*
X266700Y151000D01*
X127000Y100200D02*
X127000Y82200D01*
X114300Y133000D02*
X114300Y151000D01*
X279400Y100200D02*
X279400Y82200D01*
X292100Y133000D02*
X292100Y151000D01*
D12*
X114300Y464580D02*
X114300Y479820D01*
X88900Y479820D02*
X88900Y464580D01*
X58420Y205500D02*
X43180Y205500D01*
X43180Y230900D02*
X58420Y230900D01*
X58420Y256300D02*
X43180Y256300D01*
X43180Y281700D02*
X58420Y281700D01*
X58420Y307100D02*
X43180Y307100D01*
X43180Y332500D02*
X58420Y332500D01*
X58420Y357900D02*
X43180Y357900D01*
X43180Y383300D02*
X58420Y383300D01*
D13*
X349250Y450610D03*
X349250Y476010D03*
D14*
X453140Y253549D03*
X453140Y304349D03*
X453140Y355149D03*
X453140Y405949D03*
X453140Y151949D03*
X453140Y202749D03*
D15*
X203200Y323200D02*
X203200Y345200D01*
X203200Y323200D02*
X195000Y315000D01*
X120000Y315000D01*
X102500Y332500D02*
X50800Y332500D01*
X102500Y332500D02*
X120000Y315000D01*
X87900Y357900D02*
X50800Y357900D01*
X87900Y357900D02*
X105000Y375000D01*
X165000Y375000D01*
X177800Y362200D02*
X177800Y345200D01*
X177800Y362200D02*
X165000Y375000D01*
X86700Y281700D02*
X50800Y281700D01*
X86700Y281700D02*
X105000Y300000D01*
X355600Y289400D02*
X355600Y269000D01*
X355600Y289400D02*
X345000Y300000D01*
X105000Y300000D01*
X241300Y208700D02*
X241300Y142000D01*
X203200Y246800D02*
X203200Y269000D01*
X203200Y246800D02*
X241300Y208700D01*
X215900Y204100D02*
X215900Y142000D01*
X215900Y204100D02*
X210000Y210000D01*
D16*
X210000Y210000D03*
X270000Y210000D03*
D15*
X254000Y226000D01*
X254000Y269000D01*
X279400Y269000D02*
X279400Y230600D01*
X315000Y195000D01*
X315000Y137000D02*
X330000Y122000D01*
D16*
X330000Y122000D03*
X309000Y57000D03*
D15*
X299000Y57000D01*
X295000Y61000D01*
X179000Y61000D01*
X177800Y62200D02*
X177800Y91200D01*
X315000Y137000D02*
X315000Y195000D01*
X179000Y61000D02*
X177800Y62200D01*
X330200Y239800D02*
X330200Y269000D01*
X330200Y239800D02*
X375000Y195000D01*
X152400Y91200D02*
X152400Y63600D01*
X163000Y53000D01*
D16*
X163000Y53000D03*
D15*
X375000Y135000D02*
X375000Y195000D01*
D16*
X375000Y135000D03*
X431306Y123000D03*
D15*
X431306Y101000D02*
X390306Y60000D01*
X390000Y60000D01*
X431306Y101000D02*
X431306Y123000D01*
D16*
X390000Y60000D03*
D17*
X228600Y91200D02*
X228600Y107400D01*
X15000Y165000D02*
X15000Y260000D01*
X219000Y117000D02*
X228600Y107400D01*
X219000Y117000D02*
X63000Y117000D01*
X15000Y165000D01*
X228600Y269000D02*
X228600Y280400D01*
X222728Y286272D02*
X114272Y286272D01*
X97000Y269000D02*
X24000Y269000D01*
X15000Y260000D01*
X222728Y286272D02*
X228600Y280400D01*
X114272Y286272D02*
X97000Y269000D01*
D15*
X165100Y217100D02*
X188000Y240000D01*
D16*
X188000Y240000D03*
D15*
X165100Y217100D02*
X165100Y142000D01*
X88900Y453100D02*
X88900Y472200D01*
X88900Y453100D02*
X96000Y446000D01*
X158000Y446000D01*
D16*
X158000Y446000D03*
D15*
X355600Y415600D02*
X355600Y345200D01*
X355600Y415600D02*
X375000Y435000D01*
X375000Y480000D01*
X364510Y490490D01*
X325490Y490490D02*
X315000Y480000D01*
D16*
X315000Y480000D03*
D15*
X325490Y490490D02*
X364510Y490490D01*
D16*
X150000Y225000D03*
X75000Y150000D03*
X75000Y90000D03*
X204000Y49000D03*
D15*
X88700Y256300D02*
X50800Y256300D01*
X88700Y256300D02*
X105000Y240000D01*
X165000Y240000D01*
X177800Y252800D02*
X177800Y269000D01*
X177800Y252800D02*
X165000Y240000D01*
X279400Y325600D02*
X279400Y345200D01*
X279400Y325600D02*
X284000Y321000D01*
X369000Y321000D01*
X380000Y310000D01*
X380000Y224000D01*
D16*
X380000Y224000D03*
D15*
X254000Y345200D02*
X254000Y361000D01*
X240000Y375000D01*
X210000Y375000D01*
D16*
X210000Y375000D03*
D18*
X418549Y253549D02*
X453140Y253549D01*
X418549Y253549D02*
X405000Y240000D01*
X405000Y120000D01*
X388000Y103000D01*
X291200Y103000D02*
X279400Y91200D01*
X291200Y103000D02*
X388000Y103000D01*
D15*
X127000Y91200D02*
X127000Y54510D01*
X146000Y35510D01*
X395510Y35510D01*
X478590Y118590D02*
X478590Y390000D01*
X462641Y405949D01*
X453140Y405949D01*
X478590Y118590D02*
X395510Y35510D01*
X330200Y431560D02*
X349250Y450610D01*
X330200Y375000D02*
X330200Y345200D01*
X330200Y375000D02*
X330200Y431560D01*
D16*
X270000Y375000D03*
D15*
X330200Y375000D01*
X270000Y375000D02*
X225000Y420000D01*
X180000Y420000D01*
X105000Y420000D01*
X30000Y420000D01*
X16510Y406510D01*
X22900Y307100D02*
X50800Y307100D01*
X16510Y313490D02*
X16510Y406510D01*
X16510Y313490D02*
X22900Y307100D01*
X105000Y405000D02*
X105000Y420000D01*
D16*
X105000Y405000D03*
X180000Y420000D03*
X150000Y195000D03*
D15*
X135000Y180000D01*
X45000Y180000D01*
D16*
X45000Y180000D03*
D15*
X50800Y205500D02*
X130500Y205500D01*
X135000Y210000D01*
D16*
X135000Y210000D03*
M02*
