G04 EAGLE Gerber RS-274X export*
G75*
%MOMM*%
%FSLAX34Y34*%
%LPD*%
%INBottom Copper*%
%IPPOS*%
%AMOC8*
5,1,8,0,0,1.08239X$1,22.5*%
G01*
%ADD10R,1.300000X1.600000*%
%ADD11C,1.320800*%
%ADD12C,1.800000*%
%ADD13C,1.524000*%
%ADD14P,1.429621X8X112.500000*%
%ADD15R,1.300000X1.500000*%
%ADD16R,1.800000X3.200000*%
%ADD17R,3.200000X1.800000*%
%ADD18C,2.000000*%
%ADD19C,1.270000*%
%ADD20C,0.756400*%
%ADD21C,2.000000*%
%ADD22C,0.304800*%

G36*
X191125Y10172D02*
X191125Y10172D01*
X191225Y10174D01*
X191298Y10192D01*
X191371Y10201D01*
X191466Y10234D01*
X191563Y10259D01*
X191630Y10293D01*
X191700Y10318D01*
X191784Y10373D01*
X191873Y10419D01*
X191930Y10467D01*
X191992Y10507D01*
X192062Y10579D01*
X192139Y10644D01*
X192183Y10704D01*
X192235Y10758D01*
X192286Y10844D01*
X192346Y10925D01*
X192375Y10993D01*
X192413Y11057D01*
X192444Y11153D01*
X192484Y11245D01*
X192497Y11318D01*
X192520Y11389D01*
X192528Y11489D01*
X192545Y11588D01*
X192542Y11662D01*
X192548Y11736D01*
X192533Y11836D01*
X192528Y11936D01*
X192507Y12007D01*
X192496Y12081D01*
X192459Y12174D01*
X192431Y12271D01*
X192395Y12336D01*
X192367Y12405D01*
X192310Y12487D01*
X192261Y12575D01*
X192196Y12651D01*
X192168Y12691D01*
X192142Y12715D01*
X192102Y12761D01*
X156324Y48539D01*
X155125Y51434D01*
X155125Y54566D01*
X156324Y57461D01*
X158539Y59676D01*
X161434Y60875D01*
X164566Y60875D01*
X167461Y59676D01*
X202306Y24831D01*
X202405Y24752D01*
X202499Y24668D01*
X202541Y24644D01*
X202579Y24614D01*
X202693Y24560D01*
X202804Y24499D01*
X202850Y24486D01*
X202894Y24465D01*
X203017Y24439D01*
X203139Y24404D01*
X203200Y24399D01*
X203235Y24392D01*
X203283Y24393D01*
X203383Y24385D01*
X371107Y24385D01*
X371233Y24399D01*
X371359Y24406D01*
X371405Y24419D01*
X371453Y24425D01*
X371572Y24467D01*
X371694Y24502D01*
X371736Y24526D01*
X371782Y24542D01*
X371888Y24611D01*
X371998Y24672D01*
X372044Y24712D01*
X372074Y24731D01*
X372108Y24766D01*
X372184Y24831D01*
X381679Y34326D01*
X381758Y34425D01*
X381842Y34519D01*
X381866Y34561D01*
X381896Y34599D01*
X381950Y34713D01*
X382011Y34824D01*
X382024Y34870D01*
X382045Y34914D01*
X382071Y35037D01*
X382106Y35159D01*
X382111Y35220D01*
X382118Y35255D01*
X382117Y35303D01*
X382125Y35403D01*
X382125Y61566D01*
X383324Y64461D01*
X385539Y66676D01*
X388434Y67875D01*
X391566Y67875D01*
X394461Y66676D01*
X396676Y64461D01*
X397875Y61566D01*
X397875Y29944D01*
X396676Y27049D01*
X394246Y24620D01*
X382388Y12761D01*
X382325Y12683D01*
X382255Y12610D01*
X382217Y12546D01*
X382171Y12488D01*
X382128Y12397D01*
X382077Y12311D01*
X382054Y12240D01*
X382022Y12173D01*
X382001Y12075D01*
X381970Y11979D01*
X381964Y11905D01*
X381949Y11832D01*
X381950Y11732D01*
X381942Y11632D01*
X381953Y11558D01*
X381955Y11484D01*
X381979Y11387D01*
X381994Y11287D01*
X382022Y11218D01*
X382040Y11146D01*
X382086Y11056D01*
X382123Y10963D01*
X382165Y10902D01*
X382199Y10836D01*
X382265Y10759D01*
X382322Y10677D01*
X382377Y10627D01*
X382425Y10571D01*
X382506Y10511D01*
X382581Y10444D01*
X382646Y10408D01*
X382705Y10363D01*
X382798Y10324D01*
X382886Y10275D01*
X382957Y10255D01*
X383025Y10225D01*
X383124Y10208D01*
X383221Y10180D01*
X383321Y10172D01*
X383368Y10164D01*
X383404Y10166D01*
X383465Y10161D01*
X446382Y10161D01*
X446530Y10178D01*
X446680Y10190D01*
X446703Y10198D01*
X446728Y10201D01*
X446869Y10251D01*
X447011Y10297D01*
X447033Y10310D01*
X447056Y10318D01*
X447182Y10400D01*
X447310Y10476D01*
X447328Y10494D01*
X447349Y10507D01*
X447453Y10615D01*
X447560Y10719D01*
X447574Y10740D01*
X447591Y10758D01*
X447668Y10887D01*
X447749Y11012D01*
X447757Y11036D01*
X447770Y11057D01*
X447816Y11199D01*
X447866Y11340D01*
X447869Y11365D01*
X447876Y11389D01*
X447888Y11538D01*
X447905Y11687D01*
X447902Y11711D01*
X447904Y11736D01*
X447882Y11884D01*
X447865Y12033D01*
X447856Y12056D01*
X447852Y12081D01*
X447797Y12220D01*
X447746Y12361D01*
X447733Y12382D01*
X447724Y12405D01*
X447638Y12528D01*
X447557Y12653D01*
X447539Y12670D01*
X447525Y12691D01*
X447414Y12791D01*
X447306Y12895D01*
X447284Y12908D01*
X447266Y12924D01*
X447135Y12997D01*
X447006Y13073D01*
X446978Y13083D01*
X446961Y13093D01*
X446915Y13106D01*
X446776Y13155D01*
X445288Y13554D01*
X439551Y16866D01*
X434866Y21551D01*
X431554Y27288D01*
X429839Y33688D01*
X429839Y40312D01*
X431554Y46712D01*
X434866Y52449D01*
X439551Y57134D01*
X445288Y60446D01*
X451688Y62161D01*
X458312Y62161D01*
X464712Y60446D01*
X470449Y57134D01*
X475134Y52449D01*
X478446Y46712D01*
X480161Y40312D01*
X480161Y33688D01*
X478446Y27288D01*
X475134Y21551D01*
X470449Y16866D01*
X464712Y13554D01*
X463224Y13155D01*
X463085Y13100D01*
X462944Y13050D01*
X462923Y13036D01*
X462900Y13027D01*
X462777Y12942D01*
X462651Y12861D01*
X462634Y12843D01*
X462613Y12829D01*
X462513Y12718D01*
X462409Y12610D01*
X462396Y12589D01*
X462379Y12570D01*
X462307Y12439D01*
X462230Y12311D01*
X462223Y12287D01*
X462210Y12266D01*
X462169Y12121D01*
X462124Y11979D01*
X462122Y11954D01*
X462115Y11930D01*
X462108Y11781D01*
X462096Y11632D01*
X462100Y11607D01*
X462098Y11582D01*
X462125Y11436D01*
X462148Y11287D01*
X462157Y11264D01*
X462161Y11240D01*
X462221Y11102D01*
X462276Y10963D01*
X462290Y10943D01*
X462300Y10920D01*
X462390Y10800D01*
X462475Y10677D01*
X462494Y10660D01*
X462509Y10641D01*
X462623Y10544D01*
X462734Y10444D01*
X462756Y10432D01*
X462775Y10416D01*
X462908Y10348D01*
X463039Y10275D01*
X463063Y10268D01*
X463085Y10257D01*
X463230Y10221D01*
X463374Y10180D01*
X463404Y10178D01*
X463423Y10173D01*
X463471Y10173D01*
X463618Y10161D01*
X483416Y10161D01*
X483442Y10164D01*
X483468Y10162D01*
X483615Y10184D01*
X483762Y10201D01*
X483787Y10209D01*
X483813Y10213D01*
X483951Y10268D01*
X484090Y10318D01*
X484112Y10332D01*
X484137Y10342D01*
X484258Y10427D01*
X484383Y10507D01*
X484401Y10526D01*
X484423Y10541D01*
X484522Y10651D01*
X484625Y10758D01*
X484639Y10780D01*
X484656Y10800D01*
X484728Y10930D01*
X484804Y11057D01*
X484812Y11082D01*
X484825Y11105D01*
X484865Y11248D01*
X484910Y11389D01*
X484912Y11415D01*
X484920Y11440D01*
X484939Y11684D01*
X484939Y495316D01*
X484936Y495342D01*
X484938Y495368D01*
X484916Y495515D01*
X484899Y495662D01*
X484891Y495687D01*
X484887Y495713D01*
X484832Y495851D01*
X484782Y495990D01*
X484768Y496012D01*
X484758Y496037D01*
X484673Y496158D01*
X484593Y496283D01*
X484574Y496301D01*
X484559Y496323D01*
X484449Y496422D01*
X484342Y496525D01*
X484320Y496539D01*
X484300Y496556D01*
X484170Y496628D01*
X484043Y496704D01*
X484018Y496712D01*
X483995Y496725D01*
X483852Y496765D01*
X483711Y496810D01*
X483685Y496812D01*
X483660Y496820D01*
X483416Y496839D01*
X463618Y496839D01*
X463470Y496822D01*
X463320Y496810D01*
X463297Y496802D01*
X463272Y496799D01*
X463131Y496749D01*
X462989Y496703D01*
X462967Y496690D01*
X462944Y496682D01*
X462818Y496600D01*
X462690Y496524D01*
X462672Y496506D01*
X462651Y496493D01*
X462547Y496385D01*
X462440Y496281D01*
X462426Y496260D01*
X462409Y496242D01*
X462332Y496113D01*
X462251Y495988D01*
X462243Y495964D01*
X462230Y495943D01*
X462184Y495801D01*
X462134Y495660D01*
X462131Y495635D01*
X462124Y495611D01*
X462112Y495462D01*
X462095Y495313D01*
X462098Y495289D01*
X462096Y495264D01*
X462118Y495116D01*
X462135Y494967D01*
X462144Y494944D01*
X462148Y494919D01*
X462203Y494780D01*
X462254Y494639D01*
X462267Y494618D01*
X462276Y494595D01*
X462362Y494472D01*
X462443Y494347D01*
X462461Y494330D01*
X462475Y494309D01*
X462586Y494209D01*
X462694Y494105D01*
X462716Y494092D01*
X462734Y494076D01*
X462865Y494003D01*
X462994Y493927D01*
X463022Y493917D01*
X463039Y493907D01*
X463085Y493894D01*
X463224Y493845D01*
X464712Y493446D01*
X470449Y490134D01*
X475134Y485449D01*
X478446Y479712D01*
X480161Y473312D01*
X480161Y466688D01*
X478446Y460288D01*
X475134Y454551D01*
X470449Y449866D01*
X464712Y446554D01*
X458312Y444839D01*
X451688Y444839D01*
X445288Y446554D01*
X439551Y449866D01*
X434866Y454551D01*
X431554Y460288D01*
X429839Y466688D01*
X429839Y473312D01*
X431554Y479712D01*
X434866Y485449D01*
X439551Y490134D01*
X445288Y493446D01*
X446776Y493845D01*
X446915Y493900D01*
X447056Y493950D01*
X447077Y493964D01*
X447100Y493973D01*
X447223Y494058D01*
X447349Y494139D01*
X447366Y494157D01*
X447387Y494171D01*
X447487Y494282D01*
X447591Y494390D01*
X447604Y494411D01*
X447621Y494430D01*
X447693Y494561D01*
X447770Y494689D01*
X447777Y494713D01*
X447790Y494734D01*
X447831Y494879D01*
X447876Y495021D01*
X447878Y495046D01*
X447885Y495070D01*
X447892Y495219D01*
X447904Y495368D01*
X447900Y495393D01*
X447902Y495418D01*
X447875Y495564D01*
X447852Y495713D01*
X447843Y495736D01*
X447839Y495760D01*
X447779Y495898D01*
X447724Y496037D01*
X447710Y496057D01*
X447700Y496080D01*
X447610Y496200D01*
X447525Y496323D01*
X447506Y496340D01*
X447491Y496359D01*
X447377Y496456D01*
X447266Y496556D01*
X447244Y496568D01*
X447225Y496584D01*
X447092Y496652D01*
X446961Y496725D01*
X446937Y496732D01*
X446915Y496743D01*
X446770Y496779D01*
X446626Y496820D01*
X446596Y496822D01*
X446577Y496827D01*
X446529Y496827D01*
X446382Y496839D01*
X44618Y496839D01*
X44470Y496822D01*
X44320Y496810D01*
X44297Y496802D01*
X44272Y496799D01*
X44131Y496749D01*
X43989Y496703D01*
X43967Y496690D01*
X43944Y496682D01*
X43818Y496600D01*
X43690Y496524D01*
X43672Y496506D01*
X43651Y496493D01*
X43547Y496385D01*
X43440Y496281D01*
X43426Y496260D01*
X43409Y496242D01*
X43332Y496113D01*
X43251Y495988D01*
X43243Y495964D01*
X43230Y495943D01*
X43184Y495801D01*
X43134Y495660D01*
X43131Y495635D01*
X43124Y495611D01*
X43112Y495462D01*
X43095Y495313D01*
X43098Y495289D01*
X43096Y495264D01*
X43118Y495116D01*
X43135Y494967D01*
X43144Y494944D01*
X43148Y494919D01*
X43203Y494780D01*
X43254Y494639D01*
X43267Y494618D01*
X43276Y494595D01*
X43362Y494472D01*
X43443Y494347D01*
X43461Y494330D01*
X43475Y494309D01*
X43586Y494209D01*
X43694Y494105D01*
X43716Y494092D01*
X43734Y494076D01*
X43865Y494003D01*
X43994Y493927D01*
X44022Y493917D01*
X44039Y493907D01*
X44085Y493894D01*
X44224Y493845D01*
X45712Y493446D01*
X51449Y490134D01*
X56134Y485449D01*
X59446Y479712D01*
X61161Y473312D01*
X61161Y466688D01*
X59446Y460288D01*
X56134Y454551D01*
X51449Y449866D01*
X45712Y446554D01*
X39312Y444839D01*
X32688Y444839D01*
X26288Y446554D01*
X20551Y449866D01*
X15866Y454551D01*
X13003Y459510D01*
X12929Y459611D01*
X12861Y459716D01*
X12825Y459750D01*
X12796Y459790D01*
X12700Y459871D01*
X12610Y459958D01*
X12568Y459983D01*
X12530Y460016D01*
X12418Y460073D01*
X12311Y460137D01*
X12264Y460152D01*
X12220Y460175D01*
X12098Y460205D01*
X11979Y460243D01*
X11930Y460247D01*
X11881Y460259D01*
X11756Y460261D01*
X11632Y460271D01*
X11583Y460264D01*
X11533Y460264D01*
X11411Y460238D01*
X11287Y460219D01*
X11241Y460201D01*
X11192Y460190D01*
X11080Y460137D01*
X10963Y460091D01*
X10923Y460062D01*
X10878Y460041D01*
X10780Y459963D01*
X10677Y459892D01*
X10644Y459855D01*
X10605Y459824D01*
X10527Y459726D01*
X10444Y459633D01*
X10420Y459589D01*
X10389Y459550D01*
X10336Y459437D01*
X10275Y459328D01*
X10262Y459280D01*
X10240Y459235D01*
X10214Y459113D01*
X10180Y458992D01*
X10175Y458930D01*
X10168Y458894D01*
X10169Y458846D01*
X10161Y458749D01*
X10161Y399975D01*
X10172Y399875D01*
X10174Y399775D01*
X10192Y399702D01*
X10201Y399629D01*
X10234Y399534D01*
X10259Y399437D01*
X10293Y399370D01*
X10318Y399300D01*
X10373Y399216D01*
X10419Y399127D01*
X10467Y399070D01*
X10507Y399008D01*
X10579Y398938D01*
X10644Y398861D01*
X10704Y398817D01*
X10758Y398765D01*
X10844Y398714D01*
X10925Y398654D01*
X10993Y398625D01*
X11057Y398587D01*
X11153Y398556D01*
X11245Y398516D01*
X11318Y398503D01*
X11389Y398480D01*
X11489Y398472D01*
X11588Y398455D01*
X11662Y398458D01*
X11736Y398452D01*
X11836Y398467D01*
X11936Y398472D01*
X12007Y398493D01*
X12081Y398504D01*
X12174Y398541D01*
X12271Y398569D01*
X12336Y398605D01*
X12405Y398633D01*
X12487Y398690D01*
X12575Y398739D01*
X12651Y398804D01*
X12691Y398832D01*
X12715Y398858D01*
X12761Y398898D01*
X23110Y409246D01*
X25539Y411676D01*
X28434Y412875D01*
X115146Y412875D01*
X118041Y411676D01*
X120436Y409281D01*
X120535Y409202D01*
X120629Y409118D01*
X120671Y409094D01*
X120709Y409064D01*
X120823Y409010D01*
X120934Y408949D01*
X120980Y408936D01*
X121024Y408915D01*
X121147Y408889D01*
X121269Y408854D01*
X121330Y408849D01*
X121364Y408842D01*
X121412Y408843D01*
X121513Y408835D01*
X125902Y408835D01*
X127193Y407543D01*
X127213Y407527D01*
X127230Y407507D01*
X127350Y407419D01*
X127466Y407327D01*
X127490Y407316D01*
X127511Y407300D01*
X127647Y407241D01*
X127781Y407178D01*
X127807Y407172D01*
X127831Y407162D01*
X127977Y407136D01*
X128122Y407104D01*
X128148Y407105D01*
X128174Y407100D01*
X128322Y407108D01*
X128470Y407110D01*
X128496Y407117D01*
X128522Y407118D01*
X128664Y407159D01*
X128808Y407195D01*
X128831Y407207D01*
X128857Y407215D01*
X128986Y407287D01*
X129118Y407355D01*
X129138Y407372D01*
X129161Y407385D01*
X129347Y407543D01*
X129449Y407645D01*
X129528Y407744D01*
X129612Y407838D01*
X129636Y407881D01*
X129666Y407918D01*
X129720Y408033D01*
X129781Y408143D01*
X129794Y408190D01*
X129815Y408234D01*
X129841Y408357D01*
X129876Y408479D01*
X129881Y408539D01*
X129888Y408574D01*
X129887Y408622D01*
X129895Y408723D01*
X129895Y458337D01*
X129881Y458463D01*
X129874Y458589D01*
X129861Y458635D01*
X129855Y458683D01*
X129813Y458802D01*
X129778Y458924D01*
X129754Y458966D01*
X129738Y459012D01*
X129669Y459118D01*
X129608Y459228D01*
X129568Y459274D01*
X129549Y459304D01*
X129514Y459338D01*
X129449Y459414D01*
X125835Y463028D01*
X125718Y463122D01*
X125603Y463219D01*
X125581Y463230D01*
X125562Y463245D01*
X125427Y463309D01*
X125292Y463378D01*
X125269Y463384D01*
X125247Y463394D01*
X125100Y463425D01*
X124954Y463462D01*
X124930Y463462D01*
X124906Y463467D01*
X124757Y463465D01*
X124606Y463467D01*
X124582Y463462D01*
X124558Y463461D01*
X124412Y463425D01*
X124265Y463393D01*
X124243Y463382D01*
X124220Y463376D01*
X124086Y463307D01*
X123951Y463243D01*
X123932Y463228D01*
X123910Y463217D01*
X123796Y463119D01*
X123678Y463025D01*
X123663Y463006D01*
X123645Y462991D01*
X123555Y462870D01*
X123462Y462752D01*
X123449Y462726D01*
X123438Y462710D01*
X123419Y462667D01*
X123351Y462534D01*
X122053Y459400D01*
X119480Y456828D01*
X116119Y455435D01*
X112481Y455435D01*
X109120Y456828D01*
X106548Y459400D01*
X105155Y462761D01*
X105155Y481639D01*
X106548Y485000D01*
X109120Y487572D01*
X112481Y488965D01*
X116119Y488965D01*
X119480Y487572D01*
X122052Y485000D01*
X123445Y481639D01*
X123445Y481598D01*
X123448Y481572D01*
X123446Y481546D01*
X123468Y481399D01*
X123485Y481252D01*
X123493Y481227D01*
X123497Y481201D01*
X123552Y481063D01*
X123602Y480924D01*
X123616Y480902D01*
X123626Y480877D01*
X123711Y480756D01*
X123791Y480631D01*
X123810Y480613D01*
X123825Y480591D01*
X123935Y480492D01*
X124042Y480389D01*
X124064Y480375D01*
X124084Y480358D01*
X124214Y480286D01*
X124341Y480210D01*
X124366Y480202D01*
X124389Y480189D01*
X124532Y480149D01*
X124673Y480104D01*
X124699Y480102D01*
X124724Y480094D01*
X124968Y480075D01*
X129366Y480075D01*
X132261Y478876D01*
X144446Y466691D01*
X145645Y463796D01*
X145645Y408723D01*
X145659Y408597D01*
X145666Y408471D01*
X145679Y408424D01*
X145685Y408376D01*
X145727Y408257D01*
X145762Y408136D01*
X145786Y408094D01*
X145795Y408069D01*
X145795Y403553D01*
X145809Y403427D01*
X145816Y403301D01*
X145829Y403255D01*
X145835Y403207D01*
X145877Y403088D01*
X145912Y402966D01*
X145936Y402924D01*
X145952Y402878D01*
X146021Y402772D01*
X146082Y402662D01*
X146122Y402616D01*
X146141Y402586D01*
X146176Y402552D01*
X146241Y402476D01*
X156646Y392070D01*
X156647Y392070D01*
X159076Y389641D01*
X160275Y386746D01*
X160275Y354337D01*
X160275Y354335D01*
X160275Y354333D01*
X160295Y354157D01*
X160315Y353991D01*
X160315Y353989D01*
X160316Y353987D01*
X160391Y353754D01*
X160529Y353421D01*
X160529Y336979D01*
X159291Y333991D01*
X157005Y331705D01*
X154017Y330467D01*
X150783Y330467D01*
X147795Y331705D01*
X145509Y333991D01*
X144271Y336979D01*
X144271Y353421D01*
X144409Y353754D01*
X144410Y353756D01*
X144411Y353758D01*
X144457Y353923D01*
X144505Y354089D01*
X144505Y354091D01*
X144506Y354093D01*
X144525Y354337D01*
X144525Y381287D01*
X144511Y381413D01*
X144504Y381539D01*
X144491Y381585D01*
X144485Y381633D01*
X144443Y381752D01*
X144408Y381874D01*
X144384Y381916D01*
X144368Y381962D01*
X144299Y382068D01*
X144238Y382178D01*
X144198Y382224D01*
X144179Y382254D01*
X144144Y382288D01*
X144079Y382364D01*
X136104Y390339D01*
X136005Y390418D01*
X135911Y390502D01*
X135869Y390526D01*
X135831Y390556D01*
X135717Y390610D01*
X135606Y390671D01*
X135560Y390684D01*
X135516Y390705D01*
X135393Y390731D01*
X135271Y390766D01*
X135210Y390771D01*
X135176Y390778D01*
X135128Y390777D01*
X135027Y390785D01*
X130638Y390785D01*
X129347Y392077D01*
X129327Y392093D01*
X129310Y392113D01*
X129213Y392184D01*
X129180Y392214D01*
X129161Y392225D01*
X129074Y392293D01*
X129050Y392304D01*
X129029Y392320D01*
X128893Y392379D01*
X128759Y392442D01*
X128733Y392448D01*
X128709Y392458D01*
X128563Y392484D01*
X128418Y392516D01*
X128392Y392515D01*
X128366Y392520D01*
X128218Y392512D01*
X128070Y392510D01*
X128044Y392503D01*
X128018Y392502D01*
X127876Y392461D01*
X127732Y392425D01*
X127709Y392413D01*
X127683Y392405D01*
X127554Y392333D01*
X127422Y392265D01*
X127402Y392248D01*
X127379Y392235D01*
X127287Y392157D01*
X127277Y392150D01*
X127264Y392138D01*
X127193Y392077D01*
X125902Y390785D01*
X111638Y390785D01*
X110745Y391678D01*
X110745Y395602D01*
X110742Y395628D01*
X110744Y395654D01*
X110722Y395801D01*
X110705Y395948D01*
X110697Y395973D01*
X110693Y395999D01*
X110638Y396137D01*
X110588Y396276D01*
X110574Y396298D01*
X110564Y396323D01*
X110479Y396444D01*
X110399Y396569D01*
X110380Y396587D01*
X110365Y396609D01*
X110255Y396708D01*
X110148Y396811D01*
X110126Y396825D01*
X110106Y396842D01*
X109976Y396914D01*
X109849Y396990D01*
X109824Y396998D01*
X109801Y397011D01*
X109658Y397051D01*
X109517Y397096D01*
X109491Y397098D01*
X109466Y397106D01*
X109222Y397125D01*
X33893Y397125D01*
X33767Y397111D01*
X33641Y397104D01*
X33595Y397091D01*
X33547Y397085D01*
X33428Y397043D01*
X33306Y397008D01*
X33264Y396984D01*
X33218Y396968D01*
X33112Y396899D01*
X33002Y396838D01*
X32956Y396798D01*
X32926Y396779D01*
X32892Y396744D01*
X32816Y396679D01*
X24831Y388694D01*
X24752Y388595D01*
X24668Y388501D01*
X24644Y388459D01*
X24614Y388421D01*
X24560Y388307D01*
X24499Y388196D01*
X24486Y388150D01*
X24465Y388106D01*
X24439Y387983D01*
X24404Y387861D01*
X24399Y387800D01*
X24392Y387766D01*
X24393Y387718D01*
X24385Y387617D01*
X24385Y318893D01*
X24399Y318767D01*
X24406Y318641D01*
X24419Y318595D01*
X24425Y318547D01*
X24467Y318428D01*
X24502Y318306D01*
X24526Y318264D01*
X24542Y318218D01*
X24611Y318112D01*
X24672Y318002D01*
X24712Y317956D01*
X24731Y317926D01*
X24766Y317892D01*
X24831Y317816D01*
X27226Y315421D01*
X27325Y315342D01*
X27419Y315258D01*
X27461Y315234D01*
X27499Y315204D01*
X27613Y315150D01*
X27724Y315089D01*
X27770Y315076D01*
X27814Y315055D01*
X27937Y315029D01*
X28059Y314994D01*
X28120Y314989D01*
X28155Y314982D01*
X28203Y314983D01*
X28303Y314975D01*
X37992Y314975D01*
X37994Y314975D01*
X37996Y314975D01*
X38167Y314995D01*
X38338Y315015D01*
X38340Y315015D01*
X38342Y315016D01*
X38575Y315091D01*
X41361Y316245D01*
X60239Y316245D01*
X63600Y314852D01*
X66172Y312280D01*
X67565Y308919D01*
X67565Y307379D01*
X67576Y307279D01*
X67578Y307179D01*
X67596Y307106D01*
X67605Y307033D01*
X67638Y306938D01*
X67663Y306841D01*
X67697Y306774D01*
X67722Y306704D01*
X67777Y306620D01*
X67823Y306531D01*
X67871Y306474D01*
X67911Y306412D01*
X67983Y306342D01*
X68048Y306265D01*
X68108Y306221D01*
X68162Y306169D01*
X68248Y306118D01*
X68329Y306058D01*
X68397Y306029D01*
X68461Y305991D01*
X68557Y305960D01*
X68649Y305920D01*
X68722Y305907D01*
X68793Y305884D01*
X68893Y305876D01*
X68992Y305859D01*
X69066Y305862D01*
X69140Y305856D01*
X69240Y305871D01*
X69340Y305876D01*
X69411Y305897D01*
X69485Y305908D01*
X69578Y305945D01*
X69675Y305973D01*
X69740Y306009D01*
X69809Y306037D01*
X69891Y306094D01*
X69979Y306143D01*
X70055Y306208D01*
X70095Y306236D01*
X70119Y306262D01*
X70165Y306302D01*
X83110Y319246D01*
X85539Y321676D01*
X88434Y322875D01*
X281107Y322875D01*
X281233Y322889D01*
X281359Y322896D01*
X281405Y322909D01*
X281453Y322915D01*
X281572Y322957D01*
X281694Y322992D01*
X281736Y323016D01*
X281782Y323032D01*
X281888Y323101D01*
X281998Y323162D01*
X282044Y323202D01*
X282074Y323221D01*
X282108Y323256D01*
X282184Y323321D01*
X296225Y337362D01*
X296304Y337461D01*
X296388Y337555D01*
X296412Y337597D01*
X296442Y337635D01*
X296496Y337749D01*
X296557Y337860D01*
X296570Y337906D01*
X296591Y337950D01*
X296617Y338073D01*
X296652Y338195D01*
X296657Y338256D01*
X296664Y338291D01*
X296663Y338339D01*
X296671Y338439D01*
X296671Y353421D01*
X296809Y353754D01*
X296810Y353756D01*
X296811Y353758D01*
X296858Y353925D01*
X296905Y354089D01*
X296905Y354091D01*
X296906Y354093D01*
X296925Y354337D01*
X296925Y385162D01*
X296922Y385188D01*
X296924Y385214D01*
X296902Y385361D01*
X296885Y385508D01*
X296877Y385533D01*
X296873Y385559D01*
X296818Y385697D01*
X296768Y385836D01*
X296754Y385858D01*
X296744Y385883D01*
X296659Y386004D01*
X296579Y386129D01*
X296560Y386147D01*
X296545Y386169D01*
X296435Y386268D01*
X296328Y386371D01*
X296306Y386385D01*
X296286Y386402D01*
X296156Y386474D01*
X296029Y386550D01*
X296004Y386558D01*
X295981Y386571D01*
X295838Y386611D01*
X295697Y386656D01*
X295671Y386658D01*
X295646Y386666D01*
X295402Y386685D01*
X290708Y386685D01*
X289815Y387578D01*
X289815Y406842D01*
X290708Y407735D01*
X323972Y407735D01*
X324865Y406842D01*
X324865Y387578D01*
X323972Y386685D01*
X314198Y386685D01*
X314172Y386682D01*
X314146Y386684D01*
X313999Y386662D01*
X313852Y386645D01*
X313827Y386637D01*
X313801Y386633D01*
X313663Y386578D01*
X313524Y386528D01*
X313502Y386514D01*
X313477Y386504D01*
X313356Y386419D01*
X313231Y386339D01*
X313213Y386320D01*
X313191Y386305D01*
X313092Y386195D01*
X312989Y386088D01*
X312975Y386066D01*
X312958Y386046D01*
X312886Y385916D01*
X312810Y385789D01*
X312802Y385764D01*
X312789Y385741D01*
X312749Y385598D01*
X312704Y385457D01*
X312702Y385431D01*
X312694Y385406D01*
X312675Y385162D01*
X312675Y354337D01*
X312675Y354335D01*
X312675Y354333D01*
X312695Y354162D01*
X312715Y353991D01*
X312715Y353989D01*
X312716Y353987D01*
X312791Y353754D01*
X312929Y353421D01*
X312929Y336979D01*
X312791Y336646D01*
X312790Y336644D01*
X312789Y336642D01*
X312742Y336475D01*
X312695Y336311D01*
X312695Y336309D01*
X312694Y336307D01*
X312675Y336063D01*
X312675Y333234D01*
X311476Y330339D01*
X289461Y308324D01*
X286566Y307125D01*
X93893Y307125D01*
X93767Y307111D01*
X93641Y307104D01*
X93595Y307091D01*
X93547Y307085D01*
X93428Y307043D01*
X93306Y307008D01*
X93264Y306984D01*
X93218Y306968D01*
X93112Y306899D01*
X93002Y306838D01*
X92956Y306798D01*
X92926Y306779D01*
X92892Y306744D01*
X92816Y306679D01*
X83321Y297184D01*
X83242Y297085D01*
X83158Y296991D01*
X83134Y296949D01*
X83104Y296911D01*
X83050Y296797D01*
X82989Y296686D01*
X82976Y296640D01*
X82955Y296596D01*
X82929Y296473D01*
X82894Y296351D01*
X82889Y296290D01*
X82882Y296255D01*
X82883Y296207D01*
X82875Y296107D01*
X82875Y198893D01*
X82889Y198767D01*
X82896Y198641D01*
X82909Y198595D01*
X82915Y198547D01*
X82957Y198428D01*
X82992Y198306D01*
X83016Y198264D01*
X83032Y198218D01*
X83101Y198112D01*
X83162Y198002D01*
X83202Y197956D01*
X83221Y197926D01*
X83256Y197892D01*
X83321Y197816D01*
X120976Y160161D01*
X121533Y158815D01*
X121534Y158813D01*
X121535Y158811D01*
X121569Y158750D01*
X121582Y158718D01*
X121608Y158681D01*
X121620Y158658D01*
X121703Y158510D01*
X121704Y158509D01*
X121705Y158507D01*
X121864Y158321D01*
X123222Y156962D01*
X124825Y153093D01*
X124825Y130907D01*
X123222Y127038D01*
X120262Y124078D01*
X116393Y122475D01*
X112207Y122475D01*
X108338Y124078D01*
X105378Y127038D01*
X103775Y130907D01*
X103775Y153094D01*
X103970Y153564D01*
X103991Y153637D01*
X104021Y153707D01*
X104039Y153804D01*
X104066Y153899D01*
X104069Y153975D01*
X104083Y154050D01*
X104078Y154149D01*
X104083Y154247D01*
X104069Y154322D01*
X104065Y154398D01*
X104038Y154493D01*
X104020Y154590D01*
X103990Y154660D01*
X103968Y154733D01*
X103920Y154819D01*
X103881Y154909D01*
X103836Y154971D01*
X103798Y155037D01*
X103702Y155151D01*
X103673Y155189D01*
X103659Y155201D01*
X103640Y155224D01*
X68324Y190539D01*
X67125Y193434D01*
X67125Y197595D01*
X67114Y197695D01*
X67112Y197795D01*
X67094Y197868D01*
X67085Y197941D01*
X67051Y198036D01*
X67027Y198133D01*
X66993Y198199D01*
X66968Y198270D01*
X66913Y198354D01*
X66867Y198443D01*
X66819Y198500D01*
X66779Y198562D01*
X66707Y198632D01*
X66642Y198709D01*
X66582Y198753D01*
X66528Y198805D01*
X66442Y198856D01*
X66361Y198916D01*
X66293Y198945D01*
X66229Y198983D01*
X66133Y199014D01*
X66041Y199054D01*
X65968Y199067D01*
X65897Y199090D01*
X65797Y199098D01*
X65698Y199115D01*
X65624Y199112D01*
X65550Y199118D01*
X65450Y199103D01*
X65350Y199098D01*
X65279Y199077D01*
X65205Y199066D01*
X65112Y199029D01*
X65015Y199001D01*
X64950Y198965D01*
X64881Y198937D01*
X64799Y198880D01*
X64711Y198831D01*
X64635Y198766D01*
X64595Y198738D01*
X64571Y198712D01*
X64525Y198672D01*
X63600Y197747D01*
X60239Y196355D01*
X43459Y196355D01*
X43359Y196344D01*
X43259Y196342D01*
X43186Y196324D01*
X43113Y196315D01*
X43018Y196282D01*
X42921Y196257D01*
X42854Y196223D01*
X42784Y196198D01*
X42700Y196143D01*
X42611Y196097D01*
X42554Y196049D01*
X42492Y196009D01*
X42422Y195937D01*
X42345Y195872D01*
X42301Y195812D01*
X42249Y195758D01*
X42198Y195672D01*
X42138Y195591D01*
X42109Y195523D01*
X42071Y195459D01*
X42040Y195363D01*
X42000Y195271D01*
X41987Y195198D01*
X41964Y195127D01*
X41956Y195027D01*
X41939Y194928D01*
X41942Y194854D01*
X41936Y194780D01*
X41951Y194680D01*
X41956Y194580D01*
X41977Y194509D01*
X41988Y194435D01*
X42025Y194342D01*
X42053Y194245D01*
X42089Y194180D01*
X42117Y194111D01*
X42174Y194029D01*
X42223Y193941D01*
X42288Y193865D01*
X42316Y193825D01*
X42342Y193801D01*
X42382Y193755D01*
X51676Y184461D01*
X52875Y181566D01*
X52875Y178434D01*
X51676Y175539D01*
X49461Y173324D01*
X46566Y172125D01*
X43434Y172125D01*
X40539Y173324D01*
X12761Y201102D01*
X12683Y201165D01*
X12610Y201235D01*
X12546Y201273D01*
X12488Y201319D01*
X12397Y201362D01*
X12311Y201413D01*
X12240Y201436D01*
X12173Y201468D01*
X12075Y201489D01*
X11979Y201520D01*
X11905Y201526D01*
X11832Y201541D01*
X11732Y201540D01*
X11632Y201548D01*
X11558Y201537D01*
X11484Y201535D01*
X11387Y201511D01*
X11287Y201496D01*
X11218Y201468D01*
X11146Y201450D01*
X11056Y201404D01*
X10963Y201367D01*
X10902Y201325D01*
X10836Y201291D01*
X10759Y201225D01*
X10677Y201168D01*
X10627Y201113D01*
X10571Y201065D01*
X10511Y200984D01*
X10444Y200909D01*
X10408Y200844D01*
X10363Y200785D01*
X10324Y200692D01*
X10275Y200604D01*
X10255Y200533D01*
X10225Y200465D01*
X10208Y200366D01*
X10180Y200269D01*
X10172Y200169D01*
X10164Y200122D01*
X10166Y200086D01*
X10161Y200025D01*
X10161Y48251D01*
X10175Y48127D01*
X10181Y48002D01*
X10195Y47954D01*
X10201Y47905D01*
X10243Y47788D01*
X10277Y47667D01*
X10301Y47624D01*
X10318Y47577D01*
X10386Y47472D01*
X10447Y47363D01*
X10480Y47326D01*
X10507Y47284D01*
X10597Y47197D01*
X10681Y47105D01*
X10722Y47077D01*
X10758Y47042D01*
X10865Y46978D01*
X10968Y46907D01*
X11014Y46889D01*
X11057Y46863D01*
X11176Y46825D01*
X11292Y46779D01*
X11342Y46772D01*
X11389Y46757D01*
X11513Y46747D01*
X11637Y46729D01*
X11687Y46733D01*
X11736Y46729D01*
X11860Y46748D01*
X11984Y46758D01*
X12032Y46773D01*
X12081Y46781D01*
X12197Y46827D01*
X12316Y46865D01*
X12359Y46891D01*
X12405Y46909D01*
X12507Y46981D01*
X12615Y47045D01*
X12650Y47080D01*
X12691Y47108D01*
X12774Y47201D01*
X12864Y47288D01*
X12900Y47340D01*
X12924Y47367D01*
X12947Y47409D01*
X13003Y47490D01*
X15866Y52449D01*
X20551Y57134D01*
X26288Y60446D01*
X32688Y62161D01*
X39312Y62161D01*
X45712Y60446D01*
X51449Y57134D01*
X56134Y52449D01*
X59446Y46712D01*
X61161Y40312D01*
X61161Y33688D01*
X59446Y27288D01*
X56134Y21551D01*
X51449Y16866D01*
X45712Y13554D01*
X44224Y13155D01*
X44085Y13100D01*
X43944Y13050D01*
X43923Y13036D01*
X43900Y13027D01*
X43777Y12942D01*
X43651Y12861D01*
X43634Y12843D01*
X43613Y12829D01*
X43513Y12718D01*
X43409Y12610D01*
X43396Y12589D01*
X43379Y12570D01*
X43307Y12439D01*
X43230Y12311D01*
X43223Y12287D01*
X43210Y12266D01*
X43169Y12121D01*
X43124Y11979D01*
X43122Y11954D01*
X43115Y11930D01*
X43108Y11781D01*
X43096Y11632D01*
X43100Y11607D01*
X43098Y11582D01*
X43125Y11436D01*
X43148Y11287D01*
X43157Y11264D01*
X43161Y11240D01*
X43221Y11102D01*
X43276Y10963D01*
X43290Y10943D01*
X43300Y10920D01*
X43390Y10800D01*
X43475Y10677D01*
X43494Y10660D01*
X43509Y10641D01*
X43623Y10544D01*
X43734Y10444D01*
X43756Y10432D01*
X43775Y10416D01*
X43908Y10348D01*
X44039Y10275D01*
X44063Y10268D01*
X44085Y10257D01*
X44230Y10221D01*
X44374Y10180D01*
X44404Y10178D01*
X44423Y10173D01*
X44471Y10173D01*
X44618Y10161D01*
X191025Y10161D01*
X191125Y10172D01*
G37*
%LPC*%
G36*
X263434Y28635D02*
X263434Y28635D01*
X260539Y29834D01*
X247324Y43049D01*
X246125Y45944D01*
X246125Y74560D01*
X246111Y74685D01*
X246104Y74811D01*
X246091Y74858D01*
X246085Y74906D01*
X246043Y75025D01*
X246008Y75146D01*
X245984Y75188D01*
X245968Y75234D01*
X245899Y75340D01*
X245838Y75450D01*
X245798Y75497D01*
X245779Y75527D01*
X245744Y75560D01*
X245679Y75637D01*
X245078Y76238D01*
X243475Y80107D01*
X243475Y102293D01*
X245078Y106162D01*
X248038Y109122D01*
X251907Y110725D01*
X256093Y110725D01*
X259962Y109122D01*
X262922Y106162D01*
X264525Y102293D01*
X264525Y80107D01*
X262922Y76238D01*
X262321Y75637D01*
X262242Y75537D01*
X262158Y75444D01*
X262134Y75402D01*
X262104Y75364D01*
X262050Y75249D01*
X261989Y75139D01*
X261976Y75092D01*
X261955Y75049D01*
X261929Y74925D01*
X261894Y74803D01*
X261889Y74743D01*
X261882Y74708D01*
X261883Y74660D01*
X261875Y74560D01*
X261875Y51403D01*
X261889Y51277D01*
X261896Y51151D01*
X261909Y51105D01*
X261915Y51057D01*
X261957Y50938D01*
X261992Y50816D01*
X262016Y50774D01*
X262032Y50728D01*
X262101Y50622D01*
X262162Y50512D01*
X262202Y50466D01*
X262221Y50436D01*
X262256Y50402D01*
X262321Y50326D01*
X267816Y44831D01*
X267915Y44752D01*
X268009Y44668D01*
X268051Y44644D01*
X268089Y44614D01*
X268203Y44560D01*
X268314Y44499D01*
X268360Y44486D01*
X268404Y44465D01*
X268527Y44439D01*
X268649Y44404D01*
X268710Y44399D01*
X268745Y44392D01*
X268793Y44393D01*
X268893Y44385D01*
X317617Y44385D01*
X317743Y44399D01*
X317869Y44406D01*
X317915Y44419D01*
X317963Y44425D01*
X318082Y44467D01*
X318204Y44502D01*
X318246Y44526D01*
X318292Y44542D01*
X318398Y44611D01*
X318508Y44672D01*
X318554Y44712D01*
X318584Y44731D01*
X318618Y44766D01*
X318694Y44831D01*
X338079Y64216D01*
X338158Y64315D01*
X338242Y64409D01*
X338266Y64451D01*
X338296Y64489D01*
X338350Y64603D01*
X338411Y64714D01*
X338424Y64760D01*
X338445Y64804D01*
X338471Y64927D01*
X338506Y65049D01*
X338511Y65110D01*
X338518Y65145D01*
X338517Y65193D01*
X338525Y65293D01*
X338525Y70711D01*
X338514Y70811D01*
X338512Y70911D01*
X338494Y70984D01*
X338485Y71057D01*
X338452Y71152D01*
X338427Y71249D01*
X338393Y71316D01*
X338368Y71386D01*
X338313Y71470D01*
X338267Y71559D01*
X338219Y71616D01*
X338179Y71678D01*
X338107Y71748D01*
X338042Y71825D01*
X337982Y71869D01*
X337928Y71921D01*
X337842Y71972D01*
X337761Y72032D01*
X337693Y72061D01*
X337629Y72099D01*
X337533Y72130D01*
X337441Y72170D01*
X337368Y72183D01*
X337297Y72206D01*
X337197Y72214D01*
X337098Y72231D01*
X337024Y72228D01*
X336950Y72234D01*
X336850Y72219D01*
X336750Y72214D01*
X336679Y72193D01*
X336605Y72182D01*
X336512Y72145D01*
X336415Y72117D01*
X336350Y72081D01*
X336281Y72053D01*
X336199Y71996D01*
X336111Y71947D01*
X336035Y71882D01*
X335995Y71854D01*
X335971Y71828D01*
X335925Y71788D01*
X314461Y50324D01*
X311566Y49125D01*
X307434Y49125D01*
X304539Y50324D01*
X302324Y52539D01*
X301125Y55434D01*
X301125Y58566D01*
X302324Y61461D01*
X304539Y63676D01*
X305966Y64267D01*
X305968Y64268D01*
X305970Y64269D01*
X306121Y64353D01*
X306271Y64436D01*
X306273Y64438D01*
X306274Y64439D01*
X306461Y64597D01*
X321679Y79816D01*
X321758Y79915D01*
X321842Y80009D01*
X321866Y80051D01*
X321896Y80089D01*
X321950Y80203D01*
X322011Y80314D01*
X322024Y80360D01*
X322045Y80404D01*
X322071Y80527D01*
X322106Y80649D01*
X322111Y80710D01*
X322118Y80745D01*
X322117Y80793D01*
X322125Y80893D01*
X322125Y123566D01*
X323324Y126461D01*
X324738Y127875D01*
X324801Y127954D01*
X324871Y128026D01*
X324909Y128090D01*
X324955Y128148D01*
X324998Y128239D01*
X325049Y128325D01*
X325072Y128396D01*
X325104Y128463D01*
X325125Y128561D01*
X325156Y128657D01*
X325162Y128731D01*
X325177Y128804D01*
X325176Y128904D01*
X325184Y129004D01*
X325173Y129078D01*
X325171Y129152D01*
X325147Y129249D01*
X325132Y129349D01*
X325104Y129418D01*
X325086Y129490D01*
X325040Y129579D01*
X325003Y129673D01*
X324961Y129734D01*
X324927Y129800D01*
X324862Y129876D01*
X324804Y129959D01*
X324749Y130009D01*
X324701Y130065D01*
X324620Y130125D01*
X324545Y130192D01*
X324480Y130228D01*
X324421Y130273D01*
X324328Y130312D01*
X324240Y130361D01*
X324169Y130381D01*
X324101Y130411D01*
X324002Y130428D01*
X323905Y130456D01*
X323805Y130464D01*
X323758Y130472D01*
X323722Y130470D01*
X323661Y130475D01*
X303464Y130475D01*
X303388Y130467D01*
X303312Y130468D01*
X303215Y130447D01*
X303118Y130435D01*
X303046Y130410D01*
X302971Y130393D01*
X302882Y130351D01*
X302790Y130318D01*
X302725Y130276D01*
X302656Y130244D01*
X302579Y130182D01*
X302497Y130129D01*
X302444Y130074D01*
X302384Y130026D01*
X302323Y129949D01*
X302255Y129878D01*
X302215Y129813D01*
X302168Y129753D01*
X302100Y129619D01*
X302076Y129579D01*
X302070Y129561D01*
X302057Y129535D01*
X301022Y127038D01*
X298062Y124078D01*
X294193Y122475D01*
X290007Y122475D01*
X286138Y124078D01*
X283178Y127038D01*
X281575Y130907D01*
X281575Y136990D01*
X281575Y136992D01*
X281575Y136994D01*
X281555Y137170D01*
X281535Y137337D01*
X281535Y137338D01*
X281534Y137341D01*
X281459Y137573D01*
X280575Y139708D01*
X280575Y144292D01*
X281459Y146427D01*
X281460Y146429D01*
X281461Y146430D01*
X281507Y146595D01*
X281555Y146762D01*
X281555Y146764D01*
X281556Y146766D01*
X281575Y147010D01*
X281575Y153093D01*
X283178Y156962D01*
X286138Y159922D01*
X290007Y161525D01*
X294193Y161525D01*
X298062Y159922D01*
X301022Y156962D01*
X302057Y154465D01*
X302094Y154398D01*
X302122Y154327D01*
X302178Y154246D01*
X302226Y154160D01*
X302277Y154104D01*
X302321Y154041D01*
X302394Y153975D01*
X302460Y153902D01*
X302523Y153859D01*
X302580Y153808D01*
X302666Y153760D01*
X302747Y153704D01*
X302818Y153676D01*
X302885Y153639D01*
X302980Y153612D01*
X303071Y153576D01*
X303147Y153565D01*
X303220Y153544D01*
X303369Y153532D01*
X303416Y153525D01*
X303435Y153527D01*
X303464Y153525D01*
X331595Y153525D01*
X331721Y153539D01*
X331847Y153546D01*
X331894Y153559D01*
X331942Y153565D01*
X332061Y153607D01*
X332182Y153642D01*
X332224Y153666D01*
X332270Y153682D01*
X332376Y153751D01*
X332486Y153812D01*
X332532Y153852D01*
X332562Y153871D01*
X332596Y153906D01*
X332672Y153971D01*
X333029Y154328D01*
X333108Y154427D01*
X333192Y154520D01*
X333216Y154563D01*
X333246Y154601D01*
X333300Y154715D01*
X333361Y154825D01*
X333374Y154872D01*
X333395Y154916D01*
X333421Y155039D01*
X333456Y155161D01*
X333461Y155222D01*
X333468Y155256D01*
X333467Y155304D01*
X333475Y155405D01*
X333475Y192278D01*
X333461Y192403D01*
X333454Y192529D01*
X333441Y192576D01*
X333435Y192624D01*
X333393Y192743D01*
X333358Y192864D01*
X333334Y192906D01*
X333318Y192952D01*
X333249Y193058D01*
X333188Y193168D01*
X333148Y193215D01*
X333129Y193245D01*
X333094Y193278D01*
X333029Y193355D01*
X332435Y193948D01*
X332435Y227621D01*
X332424Y227721D01*
X332422Y227821D01*
X332404Y227894D01*
X332395Y227967D01*
X332362Y228062D01*
X332337Y228159D01*
X332303Y228226D01*
X332278Y228296D01*
X332223Y228380D01*
X332177Y228469D01*
X332129Y228526D01*
X332089Y228588D01*
X332017Y228658D01*
X331952Y228735D01*
X331892Y228779D01*
X331838Y228831D01*
X331752Y228882D01*
X331671Y228942D01*
X331603Y228971D01*
X331539Y229009D01*
X331443Y229040D01*
X331351Y229080D01*
X331278Y229093D01*
X331207Y229116D01*
X331107Y229124D01*
X331008Y229141D01*
X330934Y229138D01*
X330860Y229144D01*
X330760Y229129D01*
X330660Y229124D01*
X330589Y229103D01*
X330515Y229092D01*
X330422Y229055D01*
X330325Y229027D01*
X330260Y228991D01*
X330191Y228963D01*
X330109Y228906D01*
X330021Y228857D01*
X329945Y228792D01*
X329905Y228764D01*
X329881Y228738D01*
X329835Y228698D01*
X323321Y222184D01*
X323242Y222085D01*
X323158Y221991D01*
X323134Y221949D01*
X323104Y221911D01*
X323050Y221797D01*
X322989Y221686D01*
X322976Y221640D01*
X322955Y221596D01*
X322929Y221473D01*
X322894Y221351D01*
X322889Y221290D01*
X322882Y221255D01*
X322883Y221207D01*
X322875Y221107D01*
X322875Y193434D01*
X321676Y190539D01*
X304461Y173324D01*
X301566Y172125D01*
X276098Y172125D01*
X276072Y172122D01*
X276046Y172124D01*
X275899Y172102D01*
X275752Y172085D01*
X275727Y172077D01*
X275701Y172073D01*
X275563Y172018D01*
X275424Y171968D01*
X275402Y171954D01*
X275377Y171944D01*
X275256Y171859D01*
X275131Y171779D01*
X275113Y171760D01*
X275091Y171745D01*
X274992Y171635D01*
X274889Y171528D01*
X274875Y171506D01*
X274858Y171486D01*
X274786Y171356D01*
X274710Y171229D01*
X274702Y171204D01*
X274689Y171181D01*
X274649Y171038D01*
X274604Y170897D01*
X274602Y170871D01*
X274594Y170846D01*
X274575Y170602D01*
X274575Y158640D01*
X274589Y158515D01*
X274596Y158389D01*
X274609Y158342D01*
X274615Y158294D01*
X274657Y158175D01*
X274692Y158054D01*
X274716Y158012D01*
X274732Y157966D01*
X274801Y157860D01*
X274862Y157750D01*
X274902Y157703D01*
X274921Y157673D01*
X274956Y157640D01*
X275021Y157563D01*
X275622Y156962D01*
X277225Y153093D01*
X277225Y130907D01*
X275622Y127038D01*
X272662Y124078D01*
X268793Y122475D01*
X264607Y122475D01*
X260738Y124078D01*
X257778Y127038D01*
X256175Y130907D01*
X256175Y153093D01*
X257778Y156962D01*
X258379Y157563D01*
X258458Y157663D01*
X258542Y157756D01*
X258566Y157798D01*
X258596Y157836D01*
X258650Y157951D01*
X258711Y158061D01*
X258724Y158108D01*
X258745Y158151D01*
X258771Y158275D01*
X258806Y158397D01*
X258811Y158457D01*
X258818Y158492D01*
X258817Y158540D01*
X258825Y158640D01*
X258825Y178266D01*
X260024Y181161D01*
X265539Y186676D01*
X268434Y187875D01*
X296107Y187875D01*
X296233Y187889D01*
X296359Y187896D01*
X296405Y187909D01*
X296453Y187915D01*
X296572Y187957D01*
X296694Y187992D01*
X296736Y188016D01*
X296782Y188032D01*
X296888Y188101D01*
X296998Y188162D01*
X297044Y188202D01*
X297074Y188221D01*
X297108Y188256D01*
X297184Y188321D01*
X306679Y197816D01*
X306758Y197915D01*
X306842Y198009D01*
X306866Y198051D01*
X306896Y198089D01*
X306950Y198203D01*
X307011Y198314D01*
X307024Y198360D01*
X307045Y198404D01*
X307071Y198527D01*
X307106Y198649D01*
X307111Y198710D01*
X307118Y198745D01*
X307117Y198793D01*
X307125Y198893D01*
X307125Y226566D01*
X308324Y229461D01*
X325539Y246676D01*
X328434Y247875D01*
X386107Y247875D01*
X386233Y247889D01*
X386359Y247896D01*
X386405Y247909D01*
X386453Y247915D01*
X386572Y247957D01*
X386694Y247992D01*
X386736Y248016D01*
X386782Y248032D01*
X386888Y248101D01*
X386998Y248162D01*
X387044Y248202D01*
X387074Y248221D01*
X387108Y248256D01*
X387184Y248321D01*
X396679Y257816D01*
X396758Y257915D01*
X396842Y258009D01*
X396866Y258051D01*
X396896Y258089D01*
X396950Y258203D01*
X397011Y258314D01*
X397024Y258360D01*
X397045Y258404D01*
X397071Y258527D01*
X397106Y258649D01*
X397111Y258710D01*
X397118Y258745D01*
X397117Y258793D01*
X397125Y258893D01*
X397125Y286566D01*
X398324Y289461D01*
X419888Y311025D01*
X422783Y312224D01*
X444085Y312224D01*
X444211Y312238D01*
X444337Y312245D01*
X444384Y312258D01*
X444432Y312264D01*
X444551Y312306D01*
X444672Y312341D01*
X444714Y312365D01*
X444760Y312381D01*
X444866Y312450D01*
X444976Y312511D01*
X445022Y312551D01*
X445052Y312570D01*
X445086Y312605D01*
X445162Y312670D01*
X446612Y314119D01*
X450848Y315874D01*
X455432Y315874D01*
X459668Y314119D01*
X462910Y310877D01*
X464665Y306641D01*
X464665Y302057D01*
X462910Y297821D01*
X459668Y294579D01*
X455432Y292824D01*
X450848Y292824D01*
X446612Y294579D01*
X445162Y296028D01*
X445063Y296107D01*
X444970Y296191D01*
X444927Y296215D01*
X444889Y296245D01*
X444775Y296299D01*
X444665Y296360D01*
X444618Y296373D01*
X444574Y296394D01*
X444451Y296420D01*
X444329Y296455D01*
X444268Y296460D01*
X444234Y296467D01*
X444186Y296466D01*
X444085Y296474D01*
X428242Y296474D01*
X428116Y296460D01*
X427990Y296453D01*
X427944Y296440D01*
X427896Y296434D01*
X427777Y296392D01*
X427655Y296357D01*
X427613Y296333D01*
X427567Y296317D01*
X427461Y296248D01*
X427351Y296187D01*
X427305Y296147D01*
X427275Y296128D01*
X427241Y296093D01*
X427165Y296028D01*
X413321Y282184D01*
X413242Y282085D01*
X413158Y281991D01*
X413134Y281949D01*
X413104Y281911D01*
X413050Y281797D01*
X412989Y281686D01*
X412976Y281640D01*
X412955Y281596D01*
X412929Y281473D01*
X412894Y281351D01*
X412889Y281290D01*
X412882Y281255D01*
X412883Y281207D01*
X412875Y281107D01*
X412875Y253434D01*
X411676Y250539D01*
X394461Y233324D01*
X391566Y232125D01*
X386689Y232125D01*
X386589Y232114D01*
X386489Y232112D01*
X386416Y232094D01*
X386343Y232085D01*
X386248Y232052D01*
X386151Y232027D01*
X386084Y231993D01*
X386014Y231968D01*
X385930Y231913D01*
X385841Y231867D01*
X385784Y231819D01*
X385722Y231779D01*
X385652Y231707D01*
X385575Y231642D01*
X385531Y231582D01*
X385479Y231528D01*
X385428Y231442D01*
X385368Y231361D01*
X385339Y231293D01*
X385301Y231229D01*
X385270Y231133D01*
X385230Y231041D01*
X385217Y230968D01*
X385194Y230897D01*
X385186Y230797D01*
X385169Y230698D01*
X385172Y230624D01*
X385166Y230550D01*
X385181Y230450D01*
X385186Y230350D01*
X385207Y230279D01*
X385218Y230205D01*
X385255Y230112D01*
X385283Y230015D01*
X385319Y229950D01*
X385347Y229881D01*
X385404Y229799D01*
X385453Y229711D01*
X385518Y229635D01*
X385546Y229595D01*
X385572Y229571D01*
X385612Y229525D01*
X386676Y228461D01*
X387875Y225566D01*
X387875Y222434D01*
X386676Y219539D01*
X371041Y203904D01*
X368146Y202705D01*
X358048Y202705D01*
X358022Y202702D01*
X357996Y202704D01*
X357849Y202682D01*
X357702Y202665D01*
X357677Y202657D01*
X357651Y202653D01*
X357513Y202598D01*
X357374Y202548D01*
X357352Y202534D01*
X357327Y202524D01*
X357206Y202439D01*
X357081Y202359D01*
X357063Y202340D01*
X357041Y202325D01*
X356942Y202215D01*
X356839Y202108D01*
X356825Y202086D01*
X356808Y202066D01*
X356736Y201936D01*
X356660Y201809D01*
X356652Y201784D01*
X356639Y201761D01*
X356599Y201618D01*
X356554Y201477D01*
X356552Y201451D01*
X356544Y201426D01*
X356525Y201182D01*
X356525Y147708D01*
X354770Y143472D01*
X343528Y132230D01*
X339292Y130475D01*
X336339Y130475D01*
X336239Y130464D01*
X336139Y130462D01*
X336066Y130444D01*
X335993Y130435D01*
X335898Y130402D01*
X335801Y130377D01*
X335734Y130343D01*
X335664Y130318D01*
X335580Y130263D01*
X335491Y130217D01*
X335434Y130169D01*
X335372Y130129D01*
X335302Y130057D01*
X335225Y129992D01*
X335181Y129932D01*
X335129Y129878D01*
X335078Y129792D01*
X335018Y129711D01*
X334989Y129643D01*
X334951Y129579D01*
X334920Y129483D01*
X334880Y129391D01*
X334867Y129318D01*
X334844Y129247D01*
X334836Y129147D01*
X334819Y129048D01*
X334822Y128974D01*
X334816Y128900D01*
X334831Y128800D01*
X334836Y128700D01*
X334857Y128629D01*
X334868Y128555D01*
X334905Y128462D01*
X334933Y128365D01*
X334969Y128300D01*
X334997Y128231D01*
X335054Y128149D01*
X335103Y128061D01*
X335168Y127985D01*
X335196Y127945D01*
X335222Y127921D01*
X335262Y127875D01*
X336676Y126461D01*
X337875Y123566D01*
X337875Y94089D01*
X337886Y93989D01*
X337888Y93889D01*
X337906Y93816D01*
X337915Y93743D01*
X337948Y93648D01*
X337973Y93551D01*
X338007Y93484D01*
X338032Y93414D01*
X338087Y93330D01*
X338133Y93241D01*
X338181Y93184D01*
X338221Y93122D01*
X338293Y93052D01*
X338358Y92975D01*
X338418Y92931D01*
X338472Y92879D01*
X338558Y92828D01*
X338639Y92768D01*
X338707Y92739D01*
X338771Y92701D01*
X338867Y92670D01*
X338959Y92630D01*
X339032Y92617D01*
X339103Y92594D01*
X339203Y92586D01*
X339302Y92569D01*
X339376Y92572D01*
X339450Y92566D01*
X339550Y92581D01*
X339650Y92586D01*
X339721Y92607D01*
X339795Y92618D01*
X339888Y92655D01*
X339985Y92683D01*
X340050Y92719D01*
X340119Y92747D01*
X340201Y92804D01*
X340289Y92853D01*
X340365Y92918D01*
X340405Y92946D01*
X340429Y92972D01*
X340475Y93012D01*
X355510Y108046D01*
X357939Y110476D01*
X360834Y111675D01*
X426411Y111675D01*
X426562Y111692D01*
X426713Y111705D01*
X426740Y111713D01*
X426757Y111715D01*
X426801Y111730D01*
X426948Y111773D01*
X429043Y112562D01*
X429154Y112619D01*
X429269Y112669D01*
X429309Y112699D01*
X429353Y112721D01*
X429448Y112802D01*
X429549Y112877D01*
X429581Y112915D01*
X429619Y112947D01*
X429693Y113047D01*
X429774Y113143D01*
X429797Y113187D01*
X429826Y113227D01*
X429876Y113342D01*
X429933Y113453D01*
X429945Y113501D01*
X429964Y113547D01*
X429987Y113670D01*
X430017Y113791D01*
X430017Y113841D01*
X430026Y113890D01*
X430020Y114015D01*
X430022Y114140D01*
X430011Y114189D01*
X430009Y114238D01*
X429974Y114358D01*
X429947Y114480D01*
X429926Y114525D01*
X429912Y114573D01*
X429851Y114682D01*
X429798Y114795D01*
X429767Y114834D01*
X429742Y114877D01*
X429658Y114970D01*
X429580Y115067D01*
X429541Y115098D01*
X429508Y115135D01*
X429405Y115206D01*
X429307Y115283D01*
X429251Y115312D01*
X429221Y115333D01*
X429176Y115350D01*
X429089Y115395D01*
X426845Y116324D01*
X416490Y126679D01*
X416391Y126758D01*
X416297Y126842D01*
X416255Y126866D01*
X416217Y126896D01*
X416103Y126950D01*
X415992Y127011D01*
X415946Y127024D01*
X415902Y127045D01*
X415779Y127071D01*
X415657Y127106D01*
X415596Y127111D01*
X415561Y127118D01*
X415513Y127117D01*
X415413Y127125D01*
X373434Y127125D01*
X370539Y128324D01*
X368324Y130539D01*
X367125Y133434D01*
X367125Y136566D01*
X368324Y139461D01*
X370539Y141676D01*
X373434Y142875D01*
X420872Y142875D01*
X423767Y141676D01*
X437982Y127461D01*
X439181Y124566D01*
X439181Y121434D01*
X438047Y118696D01*
X438026Y118623D01*
X437996Y118553D01*
X437978Y118456D01*
X437951Y118361D01*
X437947Y118285D01*
X437934Y118210D01*
X437939Y118111D01*
X437934Y118012D01*
X437948Y117938D01*
X437951Y117862D01*
X437979Y117767D01*
X437997Y117670D01*
X438027Y117600D01*
X438048Y117527D01*
X438096Y117441D01*
X438135Y117350D01*
X438181Y117289D01*
X438218Y117223D01*
X438284Y117150D01*
X438343Y117070D01*
X438401Y117021D01*
X438452Y116965D01*
X438534Y116909D01*
X438609Y116845D01*
X438677Y116810D01*
X438739Y116767D01*
X438832Y116731D01*
X438920Y116686D01*
X438993Y116668D01*
X439064Y116640D01*
X439162Y116626D01*
X439258Y116602D01*
X439334Y116601D01*
X439409Y116590D01*
X439507Y116599D01*
X439606Y116597D01*
X439680Y116613D01*
X439756Y116620D01*
X439901Y116661D01*
X439947Y116671D01*
X439964Y116679D01*
X439991Y116687D01*
X444279Y118303D01*
X444369Y118349D01*
X444463Y118387D01*
X444523Y118429D01*
X444589Y118463D01*
X444666Y118528D01*
X444749Y118586D01*
X444798Y118640D01*
X444855Y118688D01*
X444915Y118769D01*
X444982Y118844D01*
X445018Y118909D01*
X445062Y118968D01*
X445102Y119061D01*
X445151Y119149D01*
X445171Y119221D01*
X445200Y119288D01*
X445218Y119388D01*
X445246Y119485D01*
X445254Y119584D01*
X445262Y119631D01*
X445260Y119667D01*
X445265Y119729D01*
X445265Y142894D01*
X445251Y143020D01*
X445244Y143146D01*
X445231Y143193D01*
X445225Y143241D01*
X445183Y143360D01*
X445148Y143481D01*
X445124Y143523D01*
X445108Y143569D01*
X445039Y143675D01*
X444978Y143785D01*
X444938Y143831D01*
X444919Y143861D01*
X444884Y143895D01*
X444819Y143971D01*
X443370Y145421D01*
X441615Y149657D01*
X441615Y154241D01*
X443370Y158477D01*
X446612Y161719D01*
X450848Y163474D01*
X455432Y163474D01*
X459668Y161719D01*
X462910Y158477D01*
X464665Y154241D01*
X464665Y149657D01*
X462910Y145421D01*
X461461Y143971D01*
X461382Y143872D01*
X461298Y143779D01*
X461274Y143736D01*
X461244Y143698D01*
X461190Y143584D01*
X461129Y143474D01*
X461116Y143427D01*
X461095Y143383D01*
X461069Y143260D01*
X461034Y143138D01*
X461029Y143077D01*
X461022Y143043D01*
X461023Y142995D01*
X461015Y142894D01*
X461015Y114939D01*
X461032Y114788D01*
X461045Y114637D01*
X461053Y114610D01*
X461055Y114593D01*
X461062Y114571D01*
X461016Y113124D01*
X461017Y113104D01*
X461015Y113075D01*
X461015Y111605D01*
X460983Y111504D01*
X460980Y111477D01*
X460975Y111460D01*
X460974Y111437D01*
X460377Y110118D01*
X460371Y110100D01*
X460357Y110073D01*
X459795Y108715D01*
X459726Y108634D01*
X459713Y108610D01*
X459702Y108596D01*
X459692Y108575D01*
X458637Y107586D01*
X458624Y107571D01*
X458601Y107551D01*
X457561Y106512D01*
X457467Y106463D01*
X457446Y106446D01*
X457431Y106437D01*
X457414Y106422D01*
X456059Y105912D01*
X456042Y105903D01*
X456013Y105893D01*
X454655Y105331D01*
X454550Y105322D01*
X454524Y105314D01*
X454506Y105312D01*
X454462Y105297D01*
X454315Y105254D01*
X428919Y95685D01*
X428901Y95676D01*
X428873Y95667D01*
X427515Y95104D01*
X427410Y95095D01*
X427384Y95087D01*
X427366Y95085D01*
X427344Y95078D01*
X425897Y95124D01*
X425878Y95123D01*
X425848Y95125D01*
X424378Y95125D01*
X424277Y95157D01*
X424250Y95160D01*
X424233Y95165D01*
X424210Y95166D01*
X422891Y95763D01*
X422873Y95769D01*
X422846Y95783D01*
X422782Y95809D01*
X422780Y95810D01*
X422778Y95811D01*
X422611Y95858D01*
X422447Y95905D01*
X422445Y95905D01*
X422443Y95906D01*
X422199Y95925D01*
X366293Y95925D01*
X366167Y95911D01*
X366041Y95904D01*
X365995Y95891D01*
X365947Y95885D01*
X365828Y95843D01*
X365706Y95808D01*
X365664Y95784D01*
X365618Y95768D01*
X365512Y95699D01*
X365402Y95638D01*
X365356Y95598D01*
X365326Y95579D01*
X365292Y95544D01*
X365216Y95479D01*
X354871Y85134D01*
X354792Y85035D01*
X354708Y84941D01*
X354684Y84899D01*
X354654Y84861D01*
X354600Y84747D01*
X354539Y84636D01*
X354526Y84590D01*
X354505Y84546D01*
X354479Y84423D01*
X354444Y84301D01*
X354439Y84240D01*
X354432Y84205D01*
X354433Y84157D01*
X354425Y84057D01*
X354425Y73031D01*
X354389Y72967D01*
X354376Y72920D01*
X354355Y72877D01*
X354329Y72753D01*
X354294Y72631D01*
X354289Y72571D01*
X354282Y72536D01*
X354283Y72488D01*
X354275Y72388D01*
X354275Y59834D01*
X353076Y56939D01*
X325971Y29834D01*
X323076Y28635D01*
X263434Y28635D01*
G37*
%LPD*%
%LPC*%
G36*
X137607Y122475D02*
X137607Y122475D01*
X133738Y124078D01*
X130778Y127038D01*
X129175Y130907D01*
X129175Y153093D01*
X130778Y156962D01*
X131379Y157563D01*
X131458Y157662D01*
X131542Y157756D01*
X131566Y157799D01*
X131596Y157836D01*
X131650Y157951D01*
X131711Y158061D01*
X131724Y158108D01*
X131745Y158151D01*
X131771Y158275D01*
X131806Y158397D01*
X131811Y158457D01*
X131818Y158492D01*
X131817Y158540D01*
X131825Y158640D01*
X131825Y171407D01*
X131811Y171533D01*
X131804Y171659D01*
X131791Y171705D01*
X131785Y171753D01*
X131743Y171872D01*
X131708Y171994D01*
X131684Y172036D01*
X131668Y172082D01*
X131599Y172188D01*
X131538Y172298D01*
X131498Y172344D01*
X131479Y172374D01*
X131444Y172408D01*
X131379Y172484D01*
X100754Y203110D01*
X100753Y203110D01*
X98324Y205539D01*
X97125Y208434D01*
X97125Y286566D01*
X98324Y289461D01*
X100753Y291890D01*
X100754Y291890D01*
X107886Y299022D01*
X107886Y299023D01*
X110315Y301452D01*
X113210Y302651D01*
X364362Y302651D01*
X364488Y302665D01*
X364614Y302672D01*
X364660Y302685D01*
X364708Y302691D01*
X364827Y302733D01*
X364949Y302768D01*
X364991Y302792D01*
X365037Y302808D01*
X365143Y302877D01*
X365253Y302938D01*
X365299Y302978D01*
X365329Y302997D01*
X365363Y303032D01*
X365439Y303097D01*
X421738Y359395D01*
X421738Y359396D01*
X424167Y361825D01*
X427062Y363024D01*
X444085Y363024D01*
X444211Y363038D01*
X444337Y363045D01*
X444384Y363058D01*
X444432Y363064D01*
X444551Y363106D01*
X444672Y363141D01*
X444714Y363165D01*
X444760Y363181D01*
X444866Y363250D01*
X444976Y363311D01*
X445022Y363351D01*
X445052Y363370D01*
X445086Y363405D01*
X445162Y363470D01*
X446612Y364919D01*
X450848Y366674D01*
X455432Y366674D01*
X459668Y364919D01*
X462910Y361677D01*
X464665Y357441D01*
X464665Y352857D01*
X462910Y348621D01*
X459668Y345379D01*
X455432Y343624D01*
X450848Y343624D01*
X446612Y345379D01*
X445162Y346828D01*
X445063Y346907D01*
X444970Y346991D01*
X444927Y347015D01*
X444889Y347045D01*
X444775Y347099D01*
X444665Y347160D01*
X444618Y347173D01*
X444574Y347194D01*
X444451Y347220D01*
X444329Y347255D01*
X444268Y347260D01*
X444234Y347267D01*
X444186Y347266D01*
X444085Y347274D01*
X432521Y347274D01*
X432395Y347260D01*
X432269Y347253D01*
X432223Y347240D01*
X432175Y347234D01*
X432056Y347192D01*
X431934Y347157D01*
X431892Y347133D01*
X431846Y347117D01*
X431740Y347048D01*
X431630Y346987D01*
X431584Y346947D01*
X431554Y346928D01*
X431520Y346893D01*
X431444Y346828D01*
X375145Y290530D01*
X375145Y290529D01*
X372716Y288100D01*
X369821Y286901D01*
X118669Y286901D01*
X118543Y286887D01*
X118417Y286880D01*
X118371Y286867D01*
X118323Y286861D01*
X118204Y286819D01*
X118082Y286784D01*
X118040Y286760D01*
X117994Y286744D01*
X117888Y286675D01*
X117778Y286614D01*
X117732Y286574D01*
X117702Y286555D01*
X117668Y286520D01*
X117592Y286455D01*
X113321Y282184D01*
X113242Y282085D01*
X113158Y281991D01*
X113134Y281949D01*
X113104Y281911D01*
X113050Y281797D01*
X112989Y281686D01*
X112976Y281640D01*
X112955Y281596D01*
X112929Y281473D01*
X112894Y281351D01*
X112889Y281290D01*
X112882Y281256D01*
X112883Y281208D01*
X112875Y281107D01*
X112875Y213893D01*
X112889Y213767D01*
X112896Y213641D01*
X112909Y213595D01*
X112915Y213547D01*
X112957Y213428D01*
X112992Y213306D01*
X113016Y213264D01*
X113032Y213218D01*
X113101Y213112D01*
X113162Y213002D01*
X113202Y212956D01*
X113221Y212926D01*
X113256Y212892D01*
X113321Y212816D01*
X143946Y182190D01*
X143947Y182190D01*
X146376Y179761D01*
X147575Y176866D01*
X147575Y158640D01*
X147589Y158515D01*
X147596Y158389D01*
X147609Y158342D01*
X147615Y158294D01*
X147657Y158175D01*
X147692Y158054D01*
X147716Y158012D01*
X147732Y157966D01*
X147801Y157860D01*
X147862Y157750D01*
X147902Y157703D01*
X147921Y157673D01*
X147956Y157640D01*
X148021Y157563D01*
X148622Y156962D01*
X150225Y153093D01*
X150225Y130907D01*
X148622Y127038D01*
X145662Y124078D01*
X141793Y122475D01*
X137607Y122475D01*
G37*
%LPD*%
%LPC*%
G36*
X188407Y122475D02*
X188407Y122475D01*
X184538Y124078D01*
X181578Y127038D01*
X179975Y130907D01*
X179975Y153093D01*
X181578Y156962D01*
X184538Y159922D01*
X184785Y160025D01*
X184852Y160062D01*
X184923Y160090D01*
X185003Y160146D01*
X185090Y160194D01*
X185146Y160245D01*
X185209Y160289D01*
X185275Y160362D01*
X185348Y160428D01*
X185391Y160491D01*
X185442Y160548D01*
X185490Y160634D01*
X185546Y160715D01*
X185574Y160786D01*
X185611Y160853D01*
X185638Y160948D01*
X185674Y161039D01*
X185685Y161115D01*
X185706Y161188D01*
X185718Y161337D01*
X185725Y161384D01*
X185723Y161403D01*
X185725Y161432D01*
X185725Y170602D01*
X185722Y170628D01*
X185724Y170654D01*
X185702Y170801D01*
X185685Y170948D01*
X185677Y170973D01*
X185673Y170999D01*
X185618Y171137D01*
X185568Y171276D01*
X185554Y171298D01*
X185544Y171323D01*
X185459Y171444D01*
X185379Y171569D01*
X185360Y171587D01*
X185345Y171609D01*
X185235Y171708D01*
X185128Y171811D01*
X185106Y171825D01*
X185086Y171842D01*
X184956Y171914D01*
X184829Y171990D01*
X184804Y171998D01*
X184781Y172011D01*
X184638Y172051D01*
X184497Y172096D01*
X184471Y172098D01*
X184446Y172106D01*
X184202Y172125D01*
X163434Y172125D01*
X160539Y173324D01*
X143324Y190539D01*
X142125Y193434D01*
X142125Y196566D01*
X143324Y199461D01*
X145539Y201676D01*
X148434Y202875D01*
X151566Y202875D01*
X154461Y201676D01*
X167816Y188321D01*
X167915Y188242D01*
X168009Y188158D01*
X168051Y188134D01*
X168089Y188104D01*
X168203Y188050D01*
X168314Y187989D01*
X168360Y187976D01*
X168404Y187955D01*
X168527Y187929D01*
X168649Y187894D01*
X168710Y187889D01*
X168745Y187882D01*
X168793Y187883D01*
X168893Y187875D01*
X184202Y187875D01*
X184228Y187878D01*
X184254Y187876D01*
X184401Y187898D01*
X184548Y187915D01*
X184573Y187923D01*
X184599Y187927D01*
X184737Y187982D01*
X184876Y188032D01*
X184898Y188046D01*
X184923Y188056D01*
X185044Y188141D01*
X185169Y188221D01*
X185187Y188240D01*
X185209Y188255D01*
X185308Y188365D01*
X185411Y188472D01*
X185425Y188494D01*
X185442Y188514D01*
X185514Y188644D01*
X185590Y188771D01*
X185598Y188796D01*
X185611Y188819D01*
X185651Y188962D01*
X185696Y189103D01*
X185698Y189129D01*
X185706Y189154D01*
X185725Y189398D01*
X185725Y190767D01*
X185711Y190893D01*
X185704Y191019D01*
X185691Y191066D01*
X185685Y191114D01*
X185643Y191233D01*
X185608Y191354D01*
X185584Y191396D01*
X185575Y191421D01*
X185575Y208812D01*
X186468Y209705D01*
X200602Y209705D01*
X200628Y209708D01*
X200654Y209706D01*
X200801Y209728D01*
X200948Y209745D01*
X200973Y209753D01*
X200999Y209757D01*
X201137Y209812D01*
X201276Y209862D01*
X201298Y209876D01*
X201323Y209886D01*
X201444Y209971D01*
X201569Y210051D01*
X201587Y210070D01*
X201609Y210085D01*
X201708Y210195D01*
X201811Y210302D01*
X201825Y210324D01*
X201842Y210344D01*
X201914Y210474D01*
X201990Y210601D01*
X201998Y210626D01*
X202011Y210649D01*
X202051Y210792D01*
X202096Y210933D01*
X202098Y210959D01*
X202106Y210984D01*
X202125Y211228D01*
X202125Y211566D01*
X203324Y214461D01*
X205539Y216676D01*
X208434Y217875D01*
X271566Y217875D01*
X274461Y216676D01*
X276676Y214461D01*
X277875Y211566D01*
X277875Y208434D01*
X276676Y205539D01*
X274461Y203324D01*
X271566Y202125D01*
X208434Y202125D01*
X205539Y203324D01*
X204225Y204638D01*
X204146Y204701D01*
X204074Y204771D01*
X204010Y204809D01*
X203952Y204855D01*
X203861Y204898D01*
X203775Y204949D01*
X203704Y204972D01*
X203637Y205004D01*
X203539Y205025D01*
X203443Y205056D01*
X203369Y205062D01*
X203296Y205077D01*
X203196Y205076D01*
X203096Y205084D01*
X203022Y205073D01*
X202948Y205071D01*
X202851Y205047D01*
X202751Y205032D01*
X202682Y205004D01*
X202610Y204986D01*
X202521Y204940D01*
X202427Y204903D01*
X202366Y204861D01*
X202300Y204827D01*
X202224Y204762D01*
X202141Y204704D01*
X202091Y204649D01*
X202035Y204601D01*
X201975Y204520D01*
X201908Y204445D01*
X201872Y204380D01*
X201827Y204321D01*
X201788Y204228D01*
X201739Y204140D01*
X201719Y204069D01*
X201689Y204001D01*
X201672Y203902D01*
X201644Y203805D01*
X201636Y203705D01*
X201628Y203658D01*
X201630Y203622D01*
X201625Y203561D01*
X201625Y191411D01*
X201589Y191347D01*
X201576Y191300D01*
X201555Y191256D01*
X201529Y191133D01*
X201494Y191011D01*
X201489Y190951D01*
X201482Y190916D01*
X201483Y190868D01*
X201475Y190767D01*
X201475Y143534D01*
X201141Y142727D01*
X201140Y142725D01*
X201139Y142723D01*
X201092Y142556D01*
X201045Y142392D01*
X201045Y142390D01*
X201044Y142388D01*
X201025Y142144D01*
X201025Y130907D01*
X199422Y127038D01*
X196462Y124078D01*
X192593Y122475D01*
X188407Y122475D01*
G37*
%LPD*%
%LPC*%
G36*
X226983Y330467D02*
X226983Y330467D01*
X223995Y331705D01*
X221709Y333991D01*
X220471Y336979D01*
X220471Y353421D01*
X220609Y353754D01*
X220610Y353756D01*
X220611Y353758D01*
X220657Y353923D01*
X220705Y354089D01*
X220705Y354091D01*
X220706Y354093D01*
X220725Y354337D01*
X220725Y365166D01*
X221924Y368061D01*
X232369Y378506D01*
X232448Y378605D01*
X232532Y378699D01*
X232556Y378741D01*
X232586Y378779D01*
X232640Y378893D01*
X232701Y379004D01*
X232714Y379050D01*
X232735Y379094D01*
X232761Y379217D01*
X232796Y379339D01*
X232801Y379400D01*
X232808Y379435D01*
X232807Y379483D01*
X232815Y379583D01*
X232815Y392167D01*
X232801Y392293D01*
X232794Y392419D01*
X232781Y392466D01*
X232775Y392514D01*
X232733Y392633D01*
X232698Y392754D01*
X232674Y392796D01*
X232665Y392821D01*
X232665Y398866D01*
X232665Y398868D01*
X232665Y398870D01*
X232646Y399036D01*
X232625Y399212D01*
X232625Y399214D01*
X232624Y399216D01*
X232549Y399449D01*
X232315Y400014D01*
X232315Y438658D01*
X232301Y438783D01*
X232294Y438909D01*
X232281Y438956D01*
X232275Y439004D01*
X232233Y439123D01*
X232198Y439244D01*
X232174Y439286D01*
X232165Y439311D01*
X232165Y456702D01*
X233058Y457595D01*
X247322Y457595D01*
X248215Y456702D01*
X248215Y439301D01*
X248179Y439237D01*
X248166Y439190D01*
X248145Y439147D01*
X248119Y439023D01*
X248084Y438901D01*
X248079Y438841D01*
X248072Y438806D01*
X248073Y438758D01*
X248065Y438658D01*
X248065Y410492D01*
X248079Y410367D01*
X248086Y410241D01*
X248099Y410194D01*
X248105Y410146D01*
X248147Y410027D01*
X248182Y409906D01*
X248206Y409864D01*
X248222Y409818D01*
X248291Y409712D01*
X248352Y409602D01*
X248392Y409555D01*
X248411Y409525D01*
X248446Y409492D01*
X248511Y409415D01*
X249113Y408813D01*
X249133Y408797D01*
X249150Y408777D01*
X249270Y408689D01*
X249386Y408597D01*
X249410Y408586D01*
X249431Y408570D01*
X249567Y408511D01*
X249701Y408448D01*
X249727Y408442D01*
X249751Y408432D01*
X249896Y408406D01*
X250042Y408374D01*
X250068Y408375D01*
X250094Y408370D01*
X250242Y408378D01*
X250390Y408380D01*
X250416Y408387D01*
X250442Y408388D01*
X250584Y408429D01*
X250728Y408465D01*
X250751Y408477D01*
X250777Y408485D01*
X250907Y408557D01*
X251038Y408625D01*
X251058Y408642D01*
X251081Y408655D01*
X251267Y408813D01*
X252558Y410105D01*
X266822Y410105D01*
X267715Y409212D01*
X267715Y392811D01*
X267679Y392747D01*
X267666Y392700D01*
X267645Y392656D01*
X267619Y392533D01*
X267584Y392411D01*
X267579Y392351D01*
X267572Y392316D01*
X267573Y392268D01*
X267565Y392167D01*
X267565Y389203D01*
X267579Y389077D01*
X267586Y388951D01*
X267599Y388905D01*
X267605Y388857D01*
X267647Y388738D01*
X267682Y388616D01*
X267706Y388574D01*
X267722Y388528D01*
X267791Y388422D01*
X267852Y388312D01*
X267892Y388266D01*
X267911Y388236D01*
X267946Y388202D01*
X268011Y388126D01*
X276676Y379461D01*
X277875Y376566D01*
X277875Y373434D01*
X276676Y370539D01*
X274461Y368324D01*
X271566Y367125D01*
X268434Y367125D01*
X265539Y368324D01*
X253014Y380849D01*
X251815Y383744D01*
X251815Y392167D01*
X251801Y392293D01*
X251794Y392419D01*
X251781Y392466D01*
X251775Y392514D01*
X251733Y392632D01*
X251698Y392754D01*
X251674Y392796D01*
X251658Y392842D01*
X251589Y392948D01*
X251528Y393058D01*
X251488Y393105D01*
X251469Y393135D01*
X251434Y393168D01*
X251369Y393244D01*
X251267Y393346D01*
X251247Y393363D01*
X251230Y393383D01*
X251110Y393471D01*
X250994Y393563D01*
X250971Y393574D01*
X250949Y393590D01*
X250813Y393649D01*
X250679Y393712D01*
X250653Y393718D01*
X250629Y393728D01*
X250484Y393754D01*
X250339Y393786D01*
X250312Y393785D01*
X250286Y393790D01*
X250138Y393782D01*
X249990Y393780D01*
X249965Y393773D01*
X249938Y393772D01*
X249796Y393731D01*
X249652Y393695D01*
X249629Y393683D01*
X249603Y393675D01*
X249474Y393603D01*
X249342Y393535D01*
X249322Y393518D01*
X249299Y393505D01*
X249113Y393347D01*
X249011Y393245D01*
X248932Y393146D01*
X248848Y393052D01*
X248824Y393009D01*
X248794Y392972D01*
X248740Y392857D01*
X248679Y392747D01*
X248666Y392700D01*
X248645Y392656D01*
X248619Y392533D01*
X248584Y392411D01*
X248579Y392351D01*
X248572Y392316D01*
X248573Y392268D01*
X248565Y392167D01*
X248565Y374124D01*
X247366Y371229D01*
X236921Y360784D01*
X236842Y360685D01*
X236758Y360591D01*
X236734Y360549D01*
X236704Y360511D01*
X236650Y360397D01*
X236589Y360286D01*
X236576Y360240D01*
X236555Y360196D01*
X236529Y360073D01*
X236494Y359951D01*
X236489Y359890D01*
X236482Y359855D01*
X236483Y359807D01*
X236475Y359707D01*
X236475Y354337D01*
X236475Y354335D01*
X236475Y354333D01*
X236495Y354157D01*
X236515Y353991D01*
X236515Y353989D01*
X236516Y353987D01*
X236591Y353754D01*
X236729Y353421D01*
X236729Y336979D01*
X235491Y333991D01*
X233205Y331705D01*
X230217Y330467D01*
X226983Y330467D01*
G37*
%LPD*%
G36*
X32638Y204267D02*
X32638Y204267D01*
X32712Y204269D01*
X32809Y204293D01*
X32909Y204308D01*
X32978Y204336D01*
X33050Y204354D01*
X33140Y204400D01*
X33233Y204437D01*
X33294Y204479D01*
X33360Y204513D01*
X33437Y204579D01*
X33519Y204636D01*
X33569Y204691D01*
X33625Y204739D01*
X33685Y204820D01*
X33752Y204895D01*
X33788Y204960D01*
X33833Y205019D01*
X33872Y205112D01*
X33921Y205200D01*
X33941Y205271D01*
X33971Y205339D01*
X33988Y205438D01*
X34016Y205535D01*
X34024Y205635D01*
X34032Y205682D01*
X34030Y205718D01*
X34035Y205779D01*
X34035Y207319D01*
X35428Y210680D01*
X38000Y213252D01*
X41361Y214645D01*
X60239Y214645D01*
X63600Y213253D01*
X64525Y212328D01*
X64604Y212265D01*
X64676Y212195D01*
X64740Y212157D01*
X64798Y212111D01*
X64889Y212068D01*
X64975Y212017D01*
X65046Y211994D01*
X65113Y211962D01*
X65211Y211941D01*
X65307Y211910D01*
X65381Y211904D01*
X65454Y211889D01*
X65554Y211890D01*
X65654Y211882D01*
X65728Y211893D01*
X65802Y211895D01*
X65899Y211919D01*
X65999Y211934D01*
X66068Y211962D01*
X66140Y211980D01*
X66229Y212026D01*
X66323Y212063D01*
X66384Y212105D01*
X66450Y212139D01*
X66526Y212204D01*
X66609Y212262D01*
X66659Y212317D01*
X66715Y212365D01*
X66775Y212446D01*
X66842Y212521D01*
X66878Y212586D01*
X66923Y212645D01*
X66962Y212738D01*
X67011Y212826D01*
X67031Y212897D01*
X67061Y212965D01*
X67078Y213064D01*
X67106Y213161D01*
X67114Y213261D01*
X67122Y213308D01*
X67120Y213344D01*
X67125Y213405D01*
X67125Y248395D01*
X67114Y248495D01*
X67112Y248595D01*
X67094Y248668D01*
X67085Y248741D01*
X67051Y248836D01*
X67027Y248933D01*
X66993Y248999D01*
X66968Y249070D01*
X66913Y249154D01*
X66867Y249243D01*
X66819Y249300D01*
X66779Y249362D01*
X66707Y249432D01*
X66642Y249509D01*
X66582Y249553D01*
X66528Y249605D01*
X66442Y249656D01*
X66361Y249716D01*
X66293Y249745D01*
X66229Y249783D01*
X66133Y249814D01*
X66041Y249854D01*
X65968Y249867D01*
X65897Y249890D01*
X65797Y249898D01*
X65698Y249915D01*
X65624Y249912D01*
X65550Y249918D01*
X65450Y249903D01*
X65350Y249898D01*
X65279Y249877D01*
X65205Y249866D01*
X65112Y249829D01*
X65015Y249801D01*
X64950Y249765D01*
X64881Y249737D01*
X64799Y249680D01*
X64711Y249631D01*
X64635Y249566D01*
X64595Y249538D01*
X64571Y249512D01*
X64525Y249472D01*
X63600Y248547D01*
X60239Y247155D01*
X41361Y247155D01*
X38000Y248548D01*
X35428Y251120D01*
X34035Y254481D01*
X34035Y258119D01*
X35428Y261480D01*
X38000Y264052D01*
X41361Y265445D01*
X60239Y265445D01*
X63600Y264053D01*
X64525Y263128D01*
X64604Y263065D01*
X64676Y262995D01*
X64740Y262957D01*
X64798Y262911D01*
X64889Y262868D01*
X64975Y262817D01*
X65046Y262794D01*
X65113Y262762D01*
X65211Y262741D01*
X65307Y262710D01*
X65381Y262704D01*
X65454Y262689D01*
X65554Y262690D01*
X65654Y262682D01*
X65728Y262693D01*
X65802Y262695D01*
X65899Y262719D01*
X65999Y262734D01*
X66068Y262762D01*
X66140Y262780D01*
X66229Y262826D01*
X66323Y262863D01*
X66384Y262905D01*
X66450Y262939D01*
X66526Y263004D01*
X66609Y263062D01*
X66659Y263117D01*
X66715Y263165D01*
X66775Y263246D01*
X66842Y263321D01*
X66878Y263386D01*
X66923Y263445D01*
X66962Y263538D01*
X67011Y263626D01*
X67031Y263697D01*
X67061Y263765D01*
X67078Y263864D01*
X67106Y263961D01*
X67114Y264061D01*
X67122Y264108D01*
X67120Y264144D01*
X67125Y264205D01*
X67125Y273795D01*
X67114Y273895D01*
X67112Y273995D01*
X67094Y274068D01*
X67085Y274141D01*
X67051Y274236D01*
X67027Y274333D01*
X66993Y274399D01*
X66968Y274470D01*
X66913Y274554D01*
X66867Y274643D01*
X66819Y274700D01*
X66779Y274762D01*
X66707Y274832D01*
X66642Y274909D01*
X66582Y274953D01*
X66528Y275005D01*
X66442Y275056D01*
X66361Y275116D01*
X66293Y275145D01*
X66229Y275183D01*
X66133Y275214D01*
X66041Y275254D01*
X65968Y275267D01*
X65897Y275290D01*
X65797Y275298D01*
X65698Y275315D01*
X65624Y275312D01*
X65550Y275318D01*
X65450Y275303D01*
X65350Y275298D01*
X65279Y275277D01*
X65205Y275266D01*
X65112Y275229D01*
X65015Y275201D01*
X64950Y275165D01*
X64881Y275137D01*
X64799Y275080D01*
X64711Y275031D01*
X64635Y274966D01*
X64595Y274938D01*
X64571Y274912D01*
X64525Y274872D01*
X63600Y273947D01*
X60239Y272555D01*
X41361Y272555D01*
X38000Y273948D01*
X35428Y276520D01*
X34035Y279881D01*
X34035Y283519D01*
X35428Y286880D01*
X38000Y289452D01*
X41361Y290845D01*
X60239Y290845D01*
X63600Y289453D01*
X64525Y288528D01*
X64604Y288465D01*
X64676Y288395D01*
X64740Y288357D01*
X64798Y288311D01*
X64889Y288268D01*
X64975Y288217D01*
X65046Y288194D01*
X65113Y288162D01*
X65211Y288141D01*
X65307Y288110D01*
X65381Y288104D01*
X65454Y288089D01*
X65554Y288090D01*
X65654Y288082D01*
X65728Y288093D01*
X65802Y288095D01*
X65899Y288119D01*
X65999Y288134D01*
X66068Y288162D01*
X66140Y288180D01*
X66229Y288226D01*
X66323Y288263D01*
X66384Y288305D01*
X66450Y288339D01*
X66526Y288404D01*
X66609Y288462D01*
X66659Y288517D01*
X66715Y288565D01*
X66775Y288646D01*
X66842Y288721D01*
X66878Y288786D01*
X66923Y288845D01*
X66962Y288938D01*
X67011Y289026D01*
X67031Y289097D01*
X67061Y289165D01*
X67078Y289264D01*
X67106Y289361D01*
X67114Y289461D01*
X67122Y289508D01*
X67120Y289544D01*
X67125Y289605D01*
X67125Y299195D01*
X67114Y299295D01*
X67112Y299395D01*
X67094Y299468D01*
X67085Y299541D01*
X67051Y299636D01*
X67027Y299733D01*
X66993Y299799D01*
X66968Y299870D01*
X66913Y299954D01*
X66867Y300043D01*
X66819Y300100D01*
X66779Y300162D01*
X66707Y300232D01*
X66642Y300309D01*
X66582Y300353D01*
X66528Y300405D01*
X66442Y300456D01*
X66361Y300516D01*
X66293Y300545D01*
X66229Y300583D01*
X66133Y300614D01*
X66041Y300654D01*
X65968Y300667D01*
X65897Y300690D01*
X65797Y300698D01*
X65698Y300715D01*
X65624Y300712D01*
X65550Y300718D01*
X65450Y300703D01*
X65350Y300698D01*
X65279Y300677D01*
X65205Y300666D01*
X65112Y300629D01*
X65015Y300601D01*
X64950Y300565D01*
X64881Y300537D01*
X64799Y300480D01*
X64711Y300431D01*
X64635Y300366D01*
X64595Y300338D01*
X64571Y300312D01*
X64525Y300272D01*
X63600Y299347D01*
X60239Y297955D01*
X41361Y297955D01*
X38575Y299109D01*
X38573Y299110D01*
X38571Y299111D01*
X38409Y299157D01*
X38240Y299205D01*
X38238Y299205D01*
X38236Y299206D01*
X37992Y299225D01*
X25908Y299225D01*
X25882Y299222D01*
X25856Y299224D01*
X25709Y299202D01*
X25562Y299185D01*
X25537Y299177D01*
X25511Y299173D01*
X25373Y299118D01*
X25234Y299068D01*
X25212Y299054D01*
X25187Y299044D01*
X25066Y298959D01*
X24941Y298879D01*
X24923Y298860D01*
X24901Y298845D01*
X24802Y298735D01*
X24699Y298628D01*
X24685Y298606D01*
X24668Y298586D01*
X24596Y298456D01*
X24520Y298329D01*
X24512Y298304D01*
X24499Y298281D01*
X24459Y298138D01*
X24414Y297997D01*
X24412Y297971D01*
X24404Y297946D01*
X24385Y297702D01*
X24385Y212383D01*
X24399Y212257D01*
X24406Y212131D01*
X24419Y212085D01*
X24425Y212037D01*
X24467Y211918D01*
X24502Y211796D01*
X24526Y211754D01*
X24542Y211708D01*
X24611Y211602D01*
X24672Y211492D01*
X24712Y211446D01*
X24731Y211416D01*
X24766Y211382D01*
X24831Y211306D01*
X31435Y204702D01*
X31513Y204639D01*
X31586Y204569D01*
X31650Y204531D01*
X31708Y204485D01*
X31799Y204442D01*
X31885Y204391D01*
X31956Y204368D01*
X32023Y204336D01*
X32121Y204315D01*
X32217Y204284D01*
X32291Y204278D01*
X32364Y204263D01*
X32464Y204264D01*
X32564Y204256D01*
X32638Y204267D01*
G37*
%LPC*%
G36*
X186434Y232125D02*
X186434Y232125D01*
X183539Y233324D01*
X181324Y235539D01*
X180125Y238434D01*
X180125Y241566D01*
X181324Y244461D01*
X183539Y246676D01*
X186434Y247875D01*
X281107Y247875D01*
X281233Y247889D01*
X281359Y247896D01*
X281405Y247909D01*
X281453Y247915D01*
X281572Y247957D01*
X281694Y247992D01*
X281736Y248016D01*
X281782Y248032D01*
X281888Y248101D01*
X281998Y248162D01*
X282044Y248202D01*
X282074Y248221D01*
X282108Y248256D01*
X282184Y248321D01*
X296225Y262362D01*
X296304Y262461D01*
X296388Y262555D01*
X296412Y262597D01*
X296442Y262635D01*
X296496Y262749D01*
X296557Y262860D01*
X296570Y262906D01*
X296591Y262950D01*
X296617Y263073D01*
X296652Y263195D01*
X296657Y263256D01*
X296664Y263291D01*
X296663Y263339D01*
X296671Y263439D01*
X296671Y277221D01*
X297909Y280209D01*
X300195Y282495D01*
X303183Y283733D01*
X306417Y283733D01*
X309405Y282495D01*
X311691Y280209D01*
X312929Y277221D01*
X312929Y260779D01*
X312791Y260446D01*
X312790Y260444D01*
X312789Y260442D01*
X312740Y260269D01*
X312695Y260111D01*
X312695Y260109D01*
X312694Y260107D01*
X312675Y259863D01*
X312675Y258234D01*
X311476Y255339D01*
X289461Y233324D01*
X286566Y232125D01*
X186434Y232125D01*
G37*
%LPD*%
%LPC*%
G36*
X344048Y388245D02*
X344048Y388245D01*
X343155Y389138D01*
X343155Y405539D01*
X343191Y405603D01*
X343204Y405650D01*
X343225Y405694D01*
X343251Y405817D01*
X343286Y405939D01*
X343291Y405999D01*
X343298Y406034D01*
X343297Y406082D01*
X343305Y406183D01*
X343305Y427746D01*
X344504Y430641D01*
X353744Y439881D01*
X353807Y439959D01*
X353877Y440032D01*
X353915Y440096D01*
X353961Y440154D01*
X354004Y440245D01*
X354055Y440331D01*
X354078Y440402D01*
X354110Y440469D01*
X354131Y440567D01*
X354162Y440663D01*
X354168Y440737D01*
X354183Y440810D01*
X354182Y440910D01*
X354190Y441010D01*
X354179Y441084D01*
X354177Y441158D01*
X354153Y441255D01*
X354138Y441355D01*
X354110Y441424D01*
X354092Y441496D01*
X354046Y441586D01*
X354009Y441679D01*
X353967Y441740D01*
X353933Y441806D01*
X353867Y441883D01*
X353810Y441965D01*
X353755Y442015D01*
X353707Y442071D01*
X353626Y442131D01*
X353551Y442198D01*
X353486Y442234D01*
X353427Y442279D01*
X353334Y442318D01*
X353246Y442367D01*
X353175Y442387D01*
X353107Y442417D01*
X353008Y442434D01*
X352911Y442462D01*
X352811Y442470D01*
X352764Y442478D01*
X352728Y442476D01*
X352667Y442481D01*
X345883Y442481D01*
X341121Y447243D01*
X341121Y453977D01*
X345883Y458739D01*
X352617Y458739D01*
X357379Y453977D01*
X357379Y447193D01*
X357390Y447093D01*
X357392Y446993D01*
X357410Y446920D01*
X357419Y446847D01*
X357452Y446752D01*
X357477Y446655D01*
X357511Y446588D01*
X357536Y446518D01*
X357591Y446434D01*
X357637Y446345D01*
X357685Y446288D01*
X357725Y446226D01*
X357797Y446156D01*
X357862Y446079D01*
X357922Y446035D01*
X357976Y445983D01*
X358062Y445932D01*
X358143Y445872D01*
X358211Y445843D01*
X358275Y445805D01*
X358371Y445774D01*
X358463Y445734D01*
X358536Y445721D01*
X358607Y445698D01*
X358707Y445690D01*
X358806Y445673D01*
X358880Y445676D01*
X358954Y445670D01*
X359054Y445685D01*
X359154Y445690D01*
X359225Y445711D01*
X359299Y445722D01*
X359392Y445759D01*
X359489Y445787D01*
X359554Y445823D01*
X359623Y445851D01*
X359705Y445908D01*
X359793Y445957D01*
X359869Y446022D01*
X359909Y446050D01*
X359933Y446076D01*
X359979Y446116D01*
X366679Y452816D01*
X366758Y452915D01*
X366842Y453009D01*
X366866Y453051D01*
X366896Y453089D01*
X366950Y453203D01*
X367011Y453314D01*
X367024Y453360D01*
X367045Y453404D01*
X367071Y453527D01*
X367106Y453649D01*
X367111Y453710D01*
X367118Y453745D01*
X367117Y453793D01*
X367125Y453893D01*
X367125Y461107D01*
X367111Y461233D01*
X367104Y461359D01*
X367091Y461405D01*
X367085Y461453D01*
X367043Y461572D01*
X367008Y461694D01*
X366984Y461736D01*
X366968Y461782D01*
X366899Y461888D01*
X366838Y461998D01*
X366798Y462044D01*
X366779Y462074D01*
X366744Y462108D01*
X366679Y462184D01*
X361174Y467689D01*
X361075Y467768D01*
X360981Y467852D01*
X360939Y467876D01*
X360901Y467906D01*
X360787Y467960D01*
X360676Y468021D01*
X360630Y468034D01*
X360586Y468055D01*
X360463Y468081D01*
X360341Y468116D01*
X360280Y468121D01*
X360245Y468128D01*
X360197Y468127D01*
X360097Y468135D01*
X353502Y468135D01*
X353376Y468121D01*
X353250Y468114D01*
X353204Y468101D01*
X353156Y468095D01*
X353037Y468053D01*
X352915Y468018D01*
X352873Y467994D01*
X352828Y467978D01*
X352722Y467909D01*
X352671Y467881D01*
X345883Y467881D01*
X341121Y472643D01*
X341121Y479377D01*
X345883Y484139D01*
X352667Y484139D01*
X352698Y484114D01*
X352812Y484060D01*
X352923Y483999D01*
X352969Y483986D01*
X353013Y483965D01*
X353136Y483939D01*
X353258Y483904D01*
X353319Y483899D01*
X353354Y483892D01*
X353402Y483893D01*
X353502Y483885D01*
X365556Y483885D01*
X368451Y482686D01*
X381676Y469461D01*
X382875Y466566D01*
X382875Y448434D01*
X381676Y445539D01*
X359501Y423364D01*
X359422Y423265D01*
X359338Y423171D01*
X359314Y423129D01*
X359284Y423091D01*
X359230Y422977D01*
X359169Y422866D01*
X359156Y422820D01*
X359135Y422776D01*
X359109Y422653D01*
X359074Y422531D01*
X359069Y422470D01*
X359062Y422435D01*
X359063Y422387D01*
X359055Y422287D01*
X359055Y406183D01*
X359057Y406166D01*
X359056Y406154D01*
X359066Y406084D01*
X359069Y406057D01*
X359076Y405931D01*
X359089Y405884D01*
X359095Y405836D01*
X359137Y405717D01*
X359172Y405596D01*
X359196Y405554D01*
X359205Y405529D01*
X359205Y389138D01*
X358312Y388245D01*
X344048Y388245D01*
G37*
%LPD*%
%LPC*%
G36*
X208434Y367125D02*
X208434Y367125D01*
X205539Y368324D01*
X192054Y381809D01*
X190855Y384704D01*
X190855Y390897D01*
X190841Y391023D01*
X190834Y391149D01*
X190821Y391196D01*
X190815Y391244D01*
X190773Y391362D01*
X190738Y391484D01*
X190714Y391526D01*
X190698Y391572D01*
X190629Y391678D01*
X190568Y391788D01*
X190528Y391835D01*
X190509Y391865D01*
X190474Y391898D01*
X190409Y391974D01*
X190307Y392076D01*
X190287Y392093D01*
X190270Y392113D01*
X190173Y392184D01*
X190140Y392214D01*
X190121Y392224D01*
X190034Y392293D01*
X190011Y392304D01*
X189989Y392320D01*
X189853Y392379D01*
X189719Y392442D01*
X189693Y392448D01*
X189669Y392458D01*
X189524Y392484D01*
X189379Y392516D01*
X189352Y392515D01*
X189326Y392520D01*
X189178Y392512D01*
X189030Y392510D01*
X189005Y392503D01*
X188978Y392502D01*
X188836Y392461D01*
X188692Y392425D01*
X188669Y392413D01*
X188643Y392405D01*
X188514Y392333D01*
X188382Y392265D01*
X188362Y392248D01*
X188339Y392235D01*
X188248Y392157D01*
X188237Y392150D01*
X188224Y392137D01*
X188153Y392077D01*
X186862Y390785D01*
X172598Y390785D01*
X171705Y391678D01*
X171705Y407948D01*
X171758Y408014D01*
X171842Y408108D01*
X171866Y408151D01*
X171896Y408188D01*
X171950Y408303D01*
X172011Y408413D01*
X172024Y408460D01*
X172045Y408504D01*
X172071Y408627D01*
X172106Y408749D01*
X172111Y408809D01*
X172118Y408844D01*
X172117Y408892D01*
X172125Y408993D01*
X172125Y421566D01*
X173324Y424461D01*
X175539Y426676D01*
X178434Y427875D01*
X181566Y427875D01*
X184461Y426676D01*
X186676Y424461D01*
X187925Y421446D01*
X187949Y421402D01*
X187966Y421354D01*
X188034Y421250D01*
X188094Y421141D01*
X188128Y421104D01*
X188155Y421061D01*
X188245Y420975D01*
X188328Y420883D01*
X188370Y420854D01*
X188406Y420819D01*
X188513Y420755D01*
X188615Y420685D01*
X188662Y420666D01*
X188705Y420640D01*
X188823Y420603D01*
X188939Y420557D01*
X188989Y420550D01*
X189037Y420534D01*
X189161Y420524D01*
X189284Y420506D01*
X189334Y420510D01*
X189384Y420506D01*
X189507Y420525D01*
X189631Y420535D01*
X189679Y420550D01*
X189729Y420558D01*
X189844Y420604D01*
X189963Y420642D01*
X190006Y420668D01*
X190053Y420687D01*
X190155Y420758D01*
X190261Y420822D01*
X190298Y420857D01*
X190339Y420886D01*
X190422Y420978D01*
X190511Y421065D01*
X190539Y421107D01*
X190572Y421144D01*
X190632Y421253D01*
X190700Y421358D01*
X190717Y421405D01*
X190741Y421449D01*
X190775Y421569D01*
X190816Y421686D01*
X190822Y421736D01*
X190836Y421785D01*
X190855Y422029D01*
X190855Y439157D01*
X190841Y439283D01*
X190834Y439409D01*
X190821Y439456D01*
X190815Y439504D01*
X190773Y439623D01*
X190738Y439744D01*
X190714Y439786D01*
X190705Y439811D01*
X190705Y456202D01*
X191598Y457095D01*
X205862Y457095D01*
X206755Y456202D01*
X206755Y439801D01*
X206719Y439737D01*
X206706Y439690D01*
X206685Y439646D01*
X206659Y439523D01*
X206624Y439401D01*
X206619Y439341D01*
X206612Y439306D01*
X206613Y439258D01*
X206605Y439157D01*
X206605Y408723D01*
X206619Y408597D01*
X206626Y408471D01*
X206639Y408424D01*
X206645Y408376D01*
X206687Y408257D01*
X206722Y408136D01*
X206746Y408094D01*
X206755Y408069D01*
X206755Y391541D01*
X206719Y391477D01*
X206706Y391430D01*
X206685Y391386D01*
X206659Y391263D01*
X206624Y391141D01*
X206619Y391081D01*
X206612Y391046D01*
X206613Y390998D01*
X206605Y390897D01*
X206605Y390163D01*
X206619Y390037D01*
X206626Y389911D01*
X206639Y389865D01*
X206645Y389817D01*
X206687Y389698D01*
X206722Y389576D01*
X206746Y389534D01*
X206762Y389488D01*
X206831Y389382D01*
X206892Y389272D01*
X206932Y389226D01*
X206951Y389196D01*
X206986Y389162D01*
X207051Y389086D01*
X216676Y379461D01*
X217875Y376566D01*
X217875Y373434D01*
X216676Y370539D01*
X214461Y368324D01*
X211566Y367125D01*
X208434Y367125D01*
G37*
%LPD*%
%LPC*%
G36*
X125383Y330467D02*
X125383Y330467D01*
X122395Y331705D01*
X120109Y333991D01*
X118871Y336979D01*
X118871Y349361D01*
X118857Y349487D01*
X118850Y349613D01*
X118837Y349659D01*
X118831Y349707D01*
X118789Y349826D01*
X118754Y349948D01*
X118730Y349990D01*
X118714Y350036D01*
X118645Y350142D01*
X118584Y350252D01*
X118544Y350298D01*
X118525Y350328D01*
X118490Y350362D01*
X118425Y350438D01*
X93884Y374979D01*
X93785Y375058D01*
X93691Y375142D01*
X93649Y375166D01*
X93611Y375196D01*
X93497Y375250D01*
X93386Y375311D01*
X93340Y375324D01*
X93296Y375345D01*
X93173Y375371D01*
X93051Y375406D01*
X92990Y375411D01*
X92955Y375418D01*
X92907Y375417D01*
X92807Y375425D01*
X63608Y375425D01*
X63606Y375425D01*
X63604Y375425D01*
X63433Y375405D01*
X63262Y375385D01*
X63260Y375385D01*
X63258Y375384D01*
X63025Y375309D01*
X60239Y374155D01*
X41361Y374155D01*
X38000Y375548D01*
X35428Y378120D01*
X34035Y381481D01*
X34035Y385119D01*
X35428Y388480D01*
X38000Y391052D01*
X41361Y392445D01*
X60239Y392445D01*
X63025Y391291D01*
X63027Y391290D01*
X63029Y391289D01*
X63191Y391243D01*
X63360Y391195D01*
X63362Y391195D01*
X63364Y391194D01*
X63608Y391175D01*
X98266Y391175D01*
X101161Y389976D01*
X133676Y357461D01*
X134875Y354566D01*
X134875Y354337D01*
X134875Y354335D01*
X134875Y354333D01*
X134895Y354162D01*
X134915Y353991D01*
X134915Y353989D01*
X134916Y353987D01*
X134991Y353754D01*
X135129Y353421D01*
X135129Y336979D01*
X133891Y333991D01*
X131605Y331705D01*
X128617Y330467D01*
X125383Y330467D01*
G37*
%LPD*%
%LPC*%
G36*
X133434Y202125D02*
X133434Y202125D01*
X130539Y203324D01*
X128324Y205539D01*
X127125Y208434D01*
X127125Y221107D01*
X127111Y221233D01*
X127104Y221359D01*
X127091Y221405D01*
X127085Y221453D01*
X127043Y221572D01*
X127008Y221694D01*
X126984Y221736D01*
X126968Y221782D01*
X126899Y221888D01*
X126838Y221998D01*
X126798Y222044D01*
X126779Y222074D01*
X126744Y222108D01*
X126679Y222184D01*
X120324Y228539D01*
X119125Y231434D01*
X119125Y259863D01*
X119125Y259865D01*
X119125Y259867D01*
X119105Y260039D01*
X119085Y260209D01*
X119085Y260211D01*
X119084Y260213D01*
X119009Y260446D01*
X118871Y260779D01*
X118871Y277221D01*
X120109Y280209D01*
X122395Y282495D01*
X125383Y283733D01*
X128617Y283733D01*
X131605Y282495D01*
X133891Y280209D01*
X135129Y277221D01*
X135129Y260779D01*
X134991Y260446D01*
X134990Y260444D01*
X134989Y260442D01*
X134940Y260269D01*
X134895Y260111D01*
X134895Y260109D01*
X134894Y260107D01*
X134875Y259863D01*
X134875Y236893D01*
X134889Y236767D01*
X134896Y236641D01*
X134909Y236595D01*
X134915Y236547D01*
X134957Y236428D01*
X134992Y236306D01*
X135016Y236264D01*
X135032Y236218D01*
X135101Y236112D01*
X135162Y236002D01*
X135202Y235956D01*
X135221Y235926D01*
X135256Y235892D01*
X135321Y235816D01*
X141676Y229461D01*
X142875Y226566D01*
X142875Y208434D01*
X141676Y205539D01*
X139461Y203324D01*
X136566Y202125D01*
X133434Y202125D01*
G37*
%LPD*%
%LPC*%
G36*
X239207Y122475D02*
X239207Y122475D01*
X235338Y124078D01*
X232378Y127038D01*
X230775Y130907D01*
X230775Y153093D01*
X232378Y156962D01*
X235338Y159922D01*
X239207Y161525D01*
X243393Y161525D01*
X247262Y159922D01*
X250222Y156962D01*
X251825Y153093D01*
X251825Y130907D01*
X250222Y127038D01*
X247262Y124078D01*
X243393Y122475D01*
X239207Y122475D01*
G37*
%LPD*%
%LPC*%
G36*
X163007Y122475D02*
X163007Y122475D01*
X159138Y124078D01*
X156178Y127038D01*
X154575Y130907D01*
X154575Y153093D01*
X156178Y156962D01*
X159138Y159922D01*
X163007Y161525D01*
X167193Y161525D01*
X171062Y159922D01*
X174022Y156962D01*
X175625Y153093D01*
X175625Y130907D01*
X174022Y127038D01*
X171062Y124078D01*
X167193Y122475D01*
X163007Y122475D01*
G37*
%LPD*%
%LPC*%
G36*
X213807Y122475D02*
X213807Y122475D01*
X209938Y124078D01*
X206978Y127038D01*
X205375Y130907D01*
X205375Y153093D01*
X206978Y156962D01*
X209938Y159922D01*
X213807Y161525D01*
X217993Y161525D01*
X221862Y159922D01*
X224822Y156962D01*
X226425Y153093D01*
X226425Y130907D01*
X224822Y127038D01*
X221862Y124078D01*
X217993Y122475D01*
X213807Y122475D01*
G37*
%LPD*%
%LPC*%
G36*
X124907Y71675D02*
X124907Y71675D01*
X121038Y73278D01*
X118078Y76238D01*
X116475Y80107D01*
X116475Y102293D01*
X118078Y106162D01*
X121038Y109122D01*
X124907Y110725D01*
X129093Y110725D01*
X132962Y109122D01*
X135922Y106162D01*
X137525Y102293D01*
X137525Y80107D01*
X135922Y76238D01*
X132962Y73278D01*
X129093Y71675D01*
X124907Y71675D01*
G37*
%LPD*%
%LPC*%
G36*
X277307Y71675D02*
X277307Y71675D01*
X273438Y73278D01*
X270478Y76238D01*
X268875Y80107D01*
X268875Y102293D01*
X270478Y106162D01*
X273438Y109122D01*
X277307Y110725D01*
X281493Y110725D01*
X285362Y109122D01*
X288322Y106162D01*
X289925Y102293D01*
X289925Y80107D01*
X288322Y76238D01*
X285362Y73278D01*
X281493Y71675D01*
X277307Y71675D01*
G37*
%LPD*%
%LPC*%
G36*
X226507Y71675D02*
X226507Y71675D01*
X222638Y73278D01*
X219678Y76238D01*
X218075Y80107D01*
X218075Y102293D01*
X219678Y106162D01*
X222638Y109122D01*
X226507Y110725D01*
X230693Y110725D01*
X234562Y109122D01*
X237522Y106162D01*
X239125Y102293D01*
X239125Y80107D01*
X237522Y76238D01*
X234562Y73278D01*
X230693Y71675D01*
X226507Y71675D01*
G37*
%LPD*%
%LPC*%
G36*
X175707Y71675D02*
X175707Y71675D01*
X171838Y73278D01*
X168878Y76238D01*
X167275Y80107D01*
X167275Y102293D01*
X168878Y106162D01*
X171838Y109122D01*
X175707Y110725D01*
X179893Y110725D01*
X183762Y109122D01*
X186722Y106162D01*
X188325Y102293D01*
X188325Y80107D01*
X186722Y76238D01*
X183762Y73278D01*
X179893Y71675D01*
X175707Y71675D01*
G37*
%LPD*%
%LPC*%
G36*
X150307Y71675D02*
X150307Y71675D01*
X146438Y73278D01*
X143478Y76238D01*
X141875Y80107D01*
X141875Y102293D01*
X143478Y106162D01*
X146438Y109122D01*
X150307Y110725D01*
X154493Y110725D01*
X158362Y109122D01*
X161322Y106162D01*
X162925Y102293D01*
X162925Y80107D01*
X161322Y76238D01*
X158362Y73278D01*
X154493Y71675D01*
X150307Y71675D01*
G37*
%LPD*%
%LPC*%
G36*
X41361Y323355D02*
X41361Y323355D01*
X38000Y324748D01*
X35428Y327320D01*
X34035Y330681D01*
X34035Y334319D01*
X35428Y337680D01*
X38000Y340252D01*
X41361Y341645D01*
X60239Y341645D01*
X63600Y340252D01*
X66172Y337680D01*
X67565Y334319D01*
X67565Y330681D01*
X66172Y327320D01*
X63600Y324748D01*
X60239Y323355D01*
X41361Y323355D01*
G37*
%LPD*%
%LPC*%
G36*
X41361Y348755D02*
X41361Y348755D01*
X38000Y350148D01*
X35428Y352720D01*
X34035Y356081D01*
X34035Y359719D01*
X35428Y363080D01*
X38000Y365652D01*
X41361Y367045D01*
X60239Y367045D01*
X63600Y365652D01*
X66172Y363080D01*
X67565Y359719D01*
X67565Y356081D01*
X66172Y352720D01*
X63600Y350148D01*
X60239Y348755D01*
X41361Y348755D01*
G37*
%LPD*%
%LPC*%
G36*
X176183Y254267D02*
X176183Y254267D01*
X173195Y255505D01*
X170909Y257791D01*
X169671Y260779D01*
X169671Y277221D01*
X170909Y280209D01*
X173195Y282495D01*
X176183Y283733D01*
X179417Y283733D01*
X182405Y282495D01*
X184691Y280209D01*
X185929Y277221D01*
X185929Y260779D01*
X184691Y257791D01*
X182405Y255505D01*
X179417Y254267D01*
X176183Y254267D01*
G37*
%LPD*%
%LPC*%
G36*
X201583Y254267D02*
X201583Y254267D01*
X198595Y255505D01*
X196309Y257791D01*
X195071Y260779D01*
X195071Y277221D01*
X196309Y280209D01*
X198595Y282495D01*
X201583Y283733D01*
X204817Y283733D01*
X207805Y282495D01*
X210091Y280209D01*
X211329Y277221D01*
X211329Y260779D01*
X210091Y257791D01*
X207805Y255505D01*
X204817Y254267D01*
X201583Y254267D01*
G37*
%LPD*%
%LPC*%
G36*
X252383Y254267D02*
X252383Y254267D01*
X249395Y255505D01*
X247109Y257791D01*
X245871Y260779D01*
X245871Y277221D01*
X247109Y280209D01*
X249395Y282495D01*
X252383Y283733D01*
X255617Y283733D01*
X258605Y282495D01*
X260891Y280209D01*
X262129Y277221D01*
X262129Y260779D01*
X260891Y257791D01*
X258605Y255505D01*
X255617Y254267D01*
X252383Y254267D01*
G37*
%LPD*%
%LPC*%
G36*
X328583Y254267D02*
X328583Y254267D01*
X325595Y255505D01*
X323309Y257791D01*
X322071Y260779D01*
X322071Y277221D01*
X323309Y280209D01*
X325595Y282495D01*
X328583Y283733D01*
X331817Y283733D01*
X334805Y282495D01*
X337091Y280209D01*
X338329Y277221D01*
X338329Y260779D01*
X337091Y257791D01*
X334805Y255505D01*
X331817Y254267D01*
X328583Y254267D01*
G37*
%LPD*%
%LPC*%
G36*
X353983Y254267D02*
X353983Y254267D01*
X350995Y255505D01*
X348709Y257791D01*
X347471Y260779D01*
X347471Y277221D01*
X348709Y280209D01*
X350995Y282495D01*
X353983Y283733D01*
X357217Y283733D01*
X360205Y282495D01*
X362491Y280209D01*
X363729Y277221D01*
X363729Y260779D01*
X362491Y257791D01*
X360205Y255505D01*
X357217Y254267D01*
X353983Y254267D01*
G37*
%LPD*%
%LPC*%
G36*
X277783Y254267D02*
X277783Y254267D01*
X274795Y255505D01*
X272509Y257791D01*
X271271Y260779D01*
X271271Y277221D01*
X272509Y280209D01*
X274795Y282495D01*
X277783Y283733D01*
X281017Y283733D01*
X284005Y282495D01*
X286291Y280209D01*
X287529Y277221D01*
X287529Y260779D01*
X286291Y257791D01*
X284005Y255505D01*
X281017Y254267D01*
X277783Y254267D01*
G37*
%LPD*%
%LPC*%
G36*
X226983Y254267D02*
X226983Y254267D01*
X223995Y255505D01*
X221709Y257791D01*
X220471Y260779D01*
X220471Y277221D01*
X221709Y280209D01*
X223995Y282495D01*
X226983Y283733D01*
X230217Y283733D01*
X233205Y282495D01*
X235491Y280209D01*
X236729Y277221D01*
X236729Y260779D01*
X235491Y257791D01*
X233205Y255505D01*
X230217Y254267D01*
X226983Y254267D01*
G37*
%LPD*%
%LPC*%
G36*
X328583Y330467D02*
X328583Y330467D01*
X325595Y331705D01*
X323309Y333991D01*
X322071Y336979D01*
X322071Y353421D01*
X323309Y356409D01*
X325595Y358695D01*
X328583Y359933D01*
X331817Y359933D01*
X334805Y358695D01*
X337091Y356409D01*
X338329Y353421D01*
X338329Y336979D01*
X337091Y333991D01*
X334805Y331705D01*
X331817Y330467D01*
X328583Y330467D01*
G37*
%LPD*%
%LPC*%
G36*
X176183Y330467D02*
X176183Y330467D01*
X173195Y331705D01*
X170909Y333991D01*
X169671Y336979D01*
X169671Y353421D01*
X170909Y356409D01*
X173195Y358695D01*
X176183Y359933D01*
X179417Y359933D01*
X182405Y358695D01*
X184691Y356409D01*
X185929Y353421D01*
X185929Y336979D01*
X184691Y333991D01*
X182405Y331705D01*
X179417Y330467D01*
X176183Y330467D01*
G37*
%LPD*%
%LPC*%
G36*
X201583Y330467D02*
X201583Y330467D01*
X198595Y331705D01*
X196309Y333991D01*
X195071Y336979D01*
X195071Y353421D01*
X196309Y356409D01*
X198595Y358695D01*
X201583Y359933D01*
X204817Y359933D01*
X207805Y358695D01*
X210091Y356409D01*
X211329Y353421D01*
X211329Y336979D01*
X210091Y333991D01*
X207805Y331705D01*
X204817Y330467D01*
X201583Y330467D01*
G37*
%LPD*%
%LPC*%
G36*
X252383Y330467D02*
X252383Y330467D01*
X249395Y331705D01*
X247109Y333991D01*
X245871Y336979D01*
X245871Y353421D01*
X247109Y356409D01*
X249395Y358695D01*
X252383Y359933D01*
X255617Y359933D01*
X258605Y358695D01*
X260891Y356409D01*
X262129Y353421D01*
X262129Y336979D01*
X260891Y333991D01*
X258605Y331705D01*
X255617Y330467D01*
X252383Y330467D01*
G37*
%LPD*%
%LPC*%
G36*
X277783Y330467D02*
X277783Y330467D01*
X274795Y331705D01*
X272509Y333991D01*
X271271Y336979D01*
X271271Y353421D01*
X272509Y356409D01*
X274795Y358695D01*
X277783Y359933D01*
X281017Y359933D01*
X284005Y358695D01*
X286291Y356409D01*
X287529Y353421D01*
X287529Y336979D01*
X286291Y333991D01*
X284005Y331705D01*
X281017Y330467D01*
X277783Y330467D01*
G37*
%LPD*%
%LPC*%
G36*
X450848Y242024D02*
X450848Y242024D01*
X446612Y243779D01*
X443370Y247021D01*
X441615Y251257D01*
X441615Y255841D01*
X443370Y260077D01*
X446612Y263319D01*
X450848Y265074D01*
X455432Y265074D01*
X459668Y263319D01*
X462910Y260077D01*
X464665Y255841D01*
X464665Y251257D01*
X462910Y247021D01*
X459668Y243779D01*
X455432Y242024D01*
X450848Y242024D01*
G37*
%LPD*%
%LPC*%
G36*
X450848Y394424D02*
X450848Y394424D01*
X446612Y396179D01*
X443370Y399421D01*
X441615Y403657D01*
X441615Y408241D01*
X443370Y412477D01*
X446612Y415719D01*
X450848Y417474D01*
X455432Y417474D01*
X459668Y415719D01*
X462910Y412477D01*
X464665Y408241D01*
X464665Y403657D01*
X462910Y399421D01*
X459668Y396179D01*
X455432Y394424D01*
X450848Y394424D01*
G37*
%LPD*%
D10*
X240190Y448070D03*
X260190Y448070D03*
X173600Y200180D03*
X193600Y200180D03*
X366400Y81800D03*
X346400Y81800D03*
D11*
X127000Y262396D02*
X127000Y275604D01*
X152400Y275604D02*
X152400Y262396D01*
X279400Y262396D02*
X279400Y275604D01*
X304800Y275604D02*
X304800Y262396D01*
X177800Y262396D02*
X177800Y275604D01*
X203200Y275604D02*
X203200Y262396D01*
X254000Y262396D02*
X254000Y275604D01*
X228600Y275604D02*
X228600Y262396D01*
X330200Y262396D02*
X330200Y275604D01*
X355600Y275604D02*
X355600Y262396D01*
X355600Y338596D02*
X355600Y351804D01*
X330200Y351804D02*
X330200Y338596D01*
X304800Y338596D02*
X304800Y351804D01*
X279400Y351804D02*
X279400Y338596D01*
X254000Y338596D02*
X254000Y351804D01*
X228600Y351804D02*
X228600Y338596D01*
X203200Y338596D02*
X203200Y351804D01*
X177800Y351804D02*
X177800Y338596D01*
X152400Y338596D02*
X152400Y351804D01*
X127000Y351804D02*
X127000Y338596D01*
D12*
X203200Y100200D02*
X203200Y82200D01*
X190500Y133000D02*
X190500Y151000D01*
X177800Y100200D02*
X177800Y82200D01*
X165100Y133000D02*
X165100Y151000D01*
X152400Y100200D02*
X152400Y82200D01*
X139700Y133000D02*
X139700Y151000D01*
X215900Y151000D02*
X215900Y133000D01*
X228600Y100200D02*
X228600Y82200D01*
X241300Y133000D02*
X241300Y151000D01*
X254000Y100200D02*
X254000Y82200D01*
X266700Y133000D02*
X266700Y151000D01*
X127000Y100200D02*
X127000Y82200D01*
X114300Y133000D02*
X114300Y151000D01*
X279400Y100200D02*
X279400Y82200D01*
X292100Y133000D02*
X292100Y151000D01*
D13*
X114300Y464580D02*
X114300Y479820D01*
X88900Y479820D02*
X88900Y464580D01*
X58420Y205500D02*
X43180Y205500D01*
X43180Y230900D02*
X58420Y230900D01*
X58420Y256300D02*
X43180Y256300D01*
X43180Y281700D02*
X58420Y281700D01*
X58420Y307100D02*
X43180Y307100D01*
X43180Y332500D02*
X58420Y332500D01*
X58420Y357900D02*
X43180Y357900D01*
X43180Y383300D02*
X58420Y383300D01*
D14*
X349250Y450610D03*
X349250Y476010D03*
D15*
X198730Y399810D03*
X179730Y399810D03*
X179730Y448070D03*
X198730Y448070D03*
D16*
X342960Y210580D03*
X286960Y210580D03*
D17*
X307340Y397210D03*
X307340Y453210D03*
D15*
X351180Y397270D03*
X370180Y397270D03*
X118770Y399810D03*
X137770Y399810D03*
X259690Y401080D03*
X240690Y401080D03*
D18*
X453140Y253549D03*
X453140Y304349D03*
X453140Y355149D03*
X453140Y405949D03*
X453140Y151949D03*
X453140Y202749D03*
D19*
X96700Y383300D02*
X50800Y383300D01*
X127000Y353000D02*
X127000Y345200D01*
X127000Y353000D02*
X96700Y383300D01*
D20*
X210000Y210000D03*
D19*
X270000Y210000D01*
D20*
X270000Y210000D03*
X330000Y122000D03*
D19*
X330000Y77000D01*
X310000Y57000D02*
X309000Y57000D01*
X310000Y57000D02*
X330000Y77000D01*
D20*
X309000Y57000D03*
X163000Y53000D03*
X375000Y135000D03*
D19*
X419306Y135000D01*
X431306Y123000D01*
D20*
X431306Y123000D03*
X390000Y60000D03*
D19*
X199490Y16510D02*
X163000Y53000D01*
X199490Y16510D02*
X375000Y16510D01*
X390000Y31510D01*
X390000Y60000D01*
D20*
X188000Y240000D03*
D19*
X285000Y240000D01*
X304800Y259800D02*
X304800Y269000D01*
X304800Y259800D02*
X285000Y240000D01*
X260190Y448070D02*
X262120Y450000D01*
X304130Y450000D02*
X307340Y453210D01*
X304130Y450000D02*
X262120Y450000D01*
X370180Y397270D02*
X375000Y392450D01*
X375000Y360000D01*
X360000Y345000D01*
X355800Y345000D01*
X355600Y345200D01*
X173600Y218600D02*
X173600Y200180D01*
X173600Y218600D02*
X180000Y225000D01*
X285000Y225000D01*
X286960Y223040D01*
X286960Y210580D01*
X173600Y218600D02*
X152400Y239800D01*
X152400Y269000D01*
D20*
X158000Y446000D03*
D19*
X160070Y448070D01*
X179730Y448070D01*
X180000Y448340D01*
X180000Y465000D01*
X187000Y472000D01*
X262120Y464880D02*
X262120Y450000D01*
X255000Y472000D02*
X187000Y472000D01*
X255000Y472000D02*
X262120Y464880D01*
D20*
X315000Y480000D03*
D19*
X315000Y460870D01*
X307340Y453210D01*
D20*
X150000Y225000D03*
X75000Y150000D03*
X75000Y90000D03*
X204000Y49000D03*
D19*
X304800Y345200D02*
X304800Y394670D01*
X307340Y397210D01*
X114300Y155700D02*
X114300Y142000D01*
X75000Y195000D02*
X75000Y300000D01*
X90000Y315000D01*
X285000Y315000D01*
X304800Y334800D02*
X304800Y345200D01*
X114300Y155700D02*
X75000Y195000D01*
X285000Y315000D02*
X304800Y334800D01*
D21*
X292100Y142000D02*
X337000Y142000D01*
X345000Y150000D01*
X345000Y210000D01*
D20*
X380000Y224000D03*
D19*
X366580Y210580D01*
X342960Y210580D01*
D22*
X343540Y210000D01*
X345000Y210000D01*
D19*
X152400Y385180D02*
X137770Y399810D01*
X152400Y385180D02*
X152400Y345200D01*
X137770Y399810D02*
X137770Y462230D01*
X127800Y472200D01*
X114300Y472200D01*
X198730Y448070D02*
X198730Y399810D01*
D20*
X210000Y375000D03*
D19*
X198730Y386270D02*
X198730Y399810D01*
X198730Y386270D02*
X210000Y375000D01*
X254000Y91200D02*
X254000Y47510D01*
X265000Y36510D01*
X321510Y36510D01*
X346400Y61400D02*
X346400Y81800D01*
X346400Y61400D02*
X321510Y36510D01*
X346400Y81800D02*
X346400Y87800D01*
X362400Y103800D01*
X453140Y113227D02*
X453140Y151949D01*
X453140Y113227D02*
X426000Y103000D01*
X425200Y103800D02*
X362400Y103800D01*
X425200Y103800D02*
X426000Y103000D01*
X266700Y142000D02*
X266700Y176700D01*
X270000Y180000D01*
X300000Y180000D01*
X315000Y195000D01*
X315000Y225000D01*
X330000Y240000D01*
X390000Y240000D01*
X405000Y255000D01*
X405000Y285000D01*
X424349Y304349D02*
X453140Y304349D01*
X424349Y304349D02*
X405000Y285000D01*
X139700Y175300D02*
X139700Y142000D01*
X105000Y210000D02*
X105000Y285000D01*
X428628Y355149D02*
X453140Y355149D01*
X368255Y294776D02*
X114776Y294776D01*
X368255Y294776D02*
X428628Y355149D01*
X139700Y175300D02*
X105000Y210000D01*
X105000Y285000D02*
X114776Y294776D01*
X193600Y200180D02*
X193600Y180000D01*
X193600Y145100D01*
X190500Y142000D01*
X50800Y307100D02*
X24410Y307100D01*
X16510Y315000D01*
X16510Y391510D02*
X30000Y405000D01*
X105000Y405000D01*
X113580Y405000D01*
X118770Y399810D01*
X16510Y391510D02*
X16510Y315000D01*
D20*
X270000Y375000D03*
D19*
X259690Y385310D01*
X259690Y401080D01*
D20*
X105000Y405000D03*
X180000Y420000D03*
D19*
X180000Y400080D01*
X179730Y399810D01*
X193600Y180000D02*
X165000Y180000D01*
X150000Y195000D01*
D20*
X150000Y195000D03*
X45000Y180000D03*
D19*
X16510Y208490D01*
X16510Y315000D01*
X351180Y397270D02*
X351180Y426180D01*
X375000Y450000D02*
X375000Y465000D01*
X363990Y476010D01*
X349250Y476010D01*
X375000Y450000D02*
X351180Y426180D01*
D20*
X135000Y210000D03*
D19*
X135000Y225000D01*
X127000Y233000D02*
X127000Y269000D01*
X127000Y233000D02*
X135000Y225000D01*
X240190Y401580D02*
X240190Y448070D01*
X240190Y401580D02*
X240690Y401080D01*
X228600Y363600D02*
X228600Y345200D01*
X240690Y375690D02*
X240690Y401080D01*
X240690Y375690D02*
X228600Y363600D01*
M02*
