G04 EAGLE Gerber RS-274X export*
G75*
%MOMM*%
%FSLAX34Y34*%
%LPD*%
%INSilkscreen Bottom*%
%IPPOS*%
%AMOC8*
5,1,8,0,0,1.08239X$1,22.5*%
G01*
%ADD10C,0.076200*%
%ADD11C,0.101600*%


D10*
X249261Y429541D02*
X251349Y429541D01*
X251438Y429543D01*
X251526Y429549D01*
X251614Y429558D01*
X251702Y429571D01*
X251789Y429588D01*
X251875Y429608D01*
X251960Y429633D01*
X252045Y429660D01*
X252128Y429692D01*
X252209Y429726D01*
X252289Y429765D01*
X252367Y429806D01*
X252444Y429851D01*
X252518Y429899D01*
X252591Y429950D01*
X252661Y430004D01*
X252728Y430062D01*
X252794Y430122D01*
X252856Y430184D01*
X252916Y430250D01*
X252974Y430317D01*
X253028Y430387D01*
X253079Y430460D01*
X253127Y430534D01*
X253172Y430611D01*
X253213Y430689D01*
X253252Y430769D01*
X253286Y430850D01*
X253318Y430933D01*
X253345Y431018D01*
X253370Y431103D01*
X253390Y431189D01*
X253407Y431276D01*
X253420Y431364D01*
X253429Y431452D01*
X253435Y431540D01*
X253437Y431629D01*
X253438Y431629D02*
X253438Y436851D01*
X253437Y436851D02*
X253435Y436940D01*
X253429Y437028D01*
X253420Y437116D01*
X253407Y437204D01*
X253390Y437291D01*
X253370Y437377D01*
X253345Y437462D01*
X253318Y437547D01*
X253286Y437630D01*
X253252Y437711D01*
X253213Y437791D01*
X253172Y437869D01*
X253127Y437946D01*
X253079Y438020D01*
X253028Y438093D01*
X252974Y438163D01*
X252916Y438230D01*
X252856Y438296D01*
X252794Y438358D01*
X252728Y438418D01*
X252661Y438476D01*
X252591Y438530D01*
X252518Y438581D01*
X252444Y438629D01*
X252367Y438674D01*
X252289Y438715D01*
X252209Y438754D01*
X252128Y438788D01*
X252045Y438820D01*
X251960Y438847D01*
X251875Y438872D01*
X251789Y438892D01*
X251702Y438909D01*
X251614Y438922D01*
X251526Y438931D01*
X251438Y438937D01*
X251349Y438939D01*
X249261Y438939D01*
X245792Y436851D02*
X243182Y438939D01*
X243182Y429541D01*
X245792Y429541D02*
X240571Y429541D01*
X184759Y181651D02*
X182671Y181651D01*
X184759Y181651D02*
X184848Y181653D01*
X184936Y181659D01*
X185024Y181668D01*
X185112Y181681D01*
X185199Y181698D01*
X185285Y181718D01*
X185370Y181743D01*
X185455Y181770D01*
X185538Y181802D01*
X185619Y181836D01*
X185699Y181875D01*
X185777Y181916D01*
X185854Y181961D01*
X185928Y182009D01*
X186001Y182060D01*
X186071Y182114D01*
X186138Y182172D01*
X186204Y182232D01*
X186266Y182294D01*
X186326Y182360D01*
X186384Y182427D01*
X186438Y182497D01*
X186489Y182570D01*
X186537Y182644D01*
X186582Y182721D01*
X186623Y182799D01*
X186662Y182879D01*
X186696Y182960D01*
X186728Y183043D01*
X186755Y183128D01*
X186780Y183213D01*
X186800Y183299D01*
X186817Y183386D01*
X186830Y183474D01*
X186839Y183562D01*
X186845Y183650D01*
X186847Y183739D01*
X186848Y183739D02*
X186848Y188961D01*
X186847Y188961D02*
X186845Y189050D01*
X186839Y189138D01*
X186830Y189226D01*
X186817Y189314D01*
X186800Y189401D01*
X186780Y189487D01*
X186755Y189572D01*
X186728Y189657D01*
X186696Y189740D01*
X186662Y189821D01*
X186623Y189901D01*
X186582Y189979D01*
X186537Y190056D01*
X186489Y190130D01*
X186438Y190203D01*
X186384Y190273D01*
X186326Y190340D01*
X186266Y190406D01*
X186204Y190468D01*
X186138Y190528D01*
X186071Y190586D01*
X186001Y190640D01*
X185928Y190691D01*
X185854Y190739D01*
X185777Y190784D01*
X185699Y190825D01*
X185619Y190864D01*
X185538Y190898D01*
X185455Y190930D01*
X185370Y190957D01*
X185285Y190982D01*
X185199Y191002D01*
X185112Y191019D01*
X185024Y191032D01*
X184936Y191041D01*
X184848Y191047D01*
X184759Y191049D01*
X182671Y191049D01*
X176331Y191050D02*
X176236Y191048D01*
X176142Y191042D01*
X176048Y191033D01*
X175954Y191020D01*
X175861Y191003D01*
X175769Y190982D01*
X175677Y190957D01*
X175587Y190929D01*
X175498Y190897D01*
X175410Y190862D01*
X175324Y190823D01*
X175239Y190781D01*
X175156Y190735D01*
X175075Y190686D01*
X174996Y190634D01*
X174919Y190579D01*
X174845Y190520D01*
X174773Y190459D01*
X174703Y190395D01*
X174636Y190328D01*
X174572Y190258D01*
X174511Y190186D01*
X174452Y190112D01*
X174397Y190035D01*
X174345Y189956D01*
X174296Y189875D01*
X174250Y189792D01*
X174208Y189707D01*
X174169Y189621D01*
X174134Y189533D01*
X174102Y189444D01*
X174074Y189354D01*
X174049Y189262D01*
X174028Y189170D01*
X174011Y189077D01*
X173998Y188983D01*
X173989Y188889D01*
X173983Y188795D01*
X173981Y188700D01*
X176331Y191049D02*
X176439Y191047D01*
X176548Y191041D01*
X176656Y191031D01*
X176763Y191018D01*
X176870Y191000D01*
X176977Y190979D01*
X177082Y190954D01*
X177187Y190925D01*
X177290Y190893D01*
X177392Y190856D01*
X177493Y190816D01*
X177592Y190773D01*
X177690Y190726D01*
X177786Y190675D01*
X177880Y190621D01*
X177972Y190564D01*
X178062Y190503D01*
X178150Y190439D01*
X178235Y190373D01*
X178318Y190303D01*
X178398Y190230D01*
X178476Y190154D01*
X178551Y190076D01*
X178623Y189995D01*
X178692Y189911D01*
X178758Y189825D01*
X178821Y189737D01*
X178880Y189646D01*
X178937Y189554D01*
X178990Y189459D01*
X179039Y189362D01*
X179085Y189264D01*
X179128Y189165D01*
X179167Y189063D01*
X179202Y188961D01*
X174764Y186872D02*
X174695Y186941D01*
X174629Y187012D01*
X174565Y187085D01*
X174504Y187161D01*
X174446Y187240D01*
X174392Y187320D01*
X174340Y187403D01*
X174292Y187487D01*
X174246Y187573D01*
X174205Y187661D01*
X174166Y187751D01*
X174131Y187842D01*
X174100Y187934D01*
X174072Y188027D01*
X174048Y188121D01*
X174028Y188216D01*
X174011Y188312D01*
X173998Y188409D01*
X173989Y188506D01*
X173983Y188603D01*
X173981Y188700D01*
X174764Y186872D02*
X179202Y181651D01*
X173981Y181651D01*
X361842Y90931D02*
X363931Y90931D01*
X364020Y90933D01*
X364108Y90939D01*
X364196Y90948D01*
X364284Y90961D01*
X364371Y90978D01*
X364457Y90998D01*
X364542Y91023D01*
X364627Y91050D01*
X364710Y91082D01*
X364791Y91116D01*
X364871Y91155D01*
X364949Y91196D01*
X365026Y91241D01*
X365100Y91289D01*
X365173Y91340D01*
X365243Y91394D01*
X365310Y91452D01*
X365376Y91512D01*
X365438Y91574D01*
X365498Y91640D01*
X365556Y91707D01*
X365610Y91777D01*
X365661Y91850D01*
X365709Y91924D01*
X365754Y92001D01*
X365795Y92079D01*
X365834Y92159D01*
X365868Y92240D01*
X365900Y92323D01*
X365927Y92408D01*
X365952Y92493D01*
X365972Y92579D01*
X365989Y92666D01*
X366002Y92754D01*
X366011Y92842D01*
X366017Y92930D01*
X366019Y93019D01*
X366019Y98241D01*
X366017Y98330D01*
X366011Y98418D01*
X366002Y98506D01*
X365989Y98594D01*
X365972Y98681D01*
X365952Y98767D01*
X365927Y98852D01*
X365900Y98937D01*
X365868Y99020D01*
X365834Y99101D01*
X365795Y99181D01*
X365754Y99259D01*
X365709Y99336D01*
X365661Y99410D01*
X365610Y99483D01*
X365556Y99553D01*
X365498Y99620D01*
X365438Y99686D01*
X365376Y99748D01*
X365310Y99808D01*
X365243Y99866D01*
X365173Y99920D01*
X365100Y99971D01*
X365026Y100019D01*
X364949Y100064D01*
X364871Y100105D01*
X364791Y100144D01*
X364710Y100178D01*
X364627Y100210D01*
X364542Y100237D01*
X364457Y100262D01*
X364371Y100282D01*
X364284Y100299D01*
X364196Y100312D01*
X364108Y100321D01*
X364020Y100327D01*
X363931Y100329D01*
X361842Y100329D01*
X358373Y90931D02*
X355763Y90931D01*
X355662Y90933D01*
X355561Y90939D01*
X355460Y90949D01*
X355360Y90962D01*
X355260Y90980D01*
X355161Y91001D01*
X355063Y91027D01*
X354966Y91056D01*
X354870Y91088D01*
X354776Y91125D01*
X354683Y91165D01*
X354591Y91209D01*
X354502Y91256D01*
X354414Y91307D01*
X354328Y91361D01*
X354245Y91418D01*
X354163Y91478D01*
X354085Y91542D01*
X354008Y91608D01*
X353935Y91678D01*
X353864Y91750D01*
X353796Y91825D01*
X353731Y91903D01*
X353669Y91983D01*
X353610Y92065D01*
X353554Y92150D01*
X353502Y92237D01*
X353453Y92325D01*
X353407Y92416D01*
X353366Y92508D01*
X353327Y92602D01*
X353293Y92697D01*
X353262Y92793D01*
X353235Y92891D01*
X353211Y92989D01*
X353192Y93089D01*
X353176Y93189D01*
X353164Y93289D01*
X353156Y93390D01*
X353152Y93491D01*
X353152Y93593D01*
X353156Y93694D01*
X353164Y93795D01*
X353176Y93895D01*
X353192Y93995D01*
X353211Y94095D01*
X353235Y94193D01*
X353262Y94291D01*
X353293Y94387D01*
X353327Y94482D01*
X353366Y94576D01*
X353407Y94668D01*
X353453Y94759D01*
X353502Y94848D01*
X353554Y94934D01*
X353610Y95019D01*
X353669Y95101D01*
X353731Y95181D01*
X353796Y95259D01*
X353864Y95334D01*
X353935Y95406D01*
X354008Y95476D01*
X354085Y95542D01*
X354163Y95606D01*
X354245Y95666D01*
X354328Y95723D01*
X354414Y95777D01*
X354502Y95828D01*
X354591Y95875D01*
X354683Y95919D01*
X354776Y95959D01*
X354870Y95996D01*
X354966Y96028D01*
X355063Y96057D01*
X355161Y96083D01*
X355260Y96104D01*
X355360Y96122D01*
X355460Y96135D01*
X355561Y96145D01*
X355662Y96151D01*
X355763Y96153D01*
X355241Y100329D02*
X358373Y100329D01*
X355241Y100329D02*
X355151Y100327D01*
X355062Y100321D01*
X354972Y100312D01*
X354883Y100298D01*
X354795Y100281D01*
X354708Y100260D01*
X354621Y100235D01*
X354536Y100206D01*
X354452Y100174D01*
X354370Y100139D01*
X354289Y100099D01*
X354210Y100057D01*
X354133Y100011D01*
X354058Y99961D01*
X353985Y99909D01*
X353914Y99853D01*
X353846Y99795D01*
X353781Y99733D01*
X353718Y99669D01*
X353658Y99602D01*
X353601Y99533D01*
X353547Y99461D01*
X353496Y99387D01*
X353448Y99311D01*
X353404Y99233D01*
X353363Y99153D01*
X353325Y99071D01*
X353291Y98988D01*
X353261Y98903D01*
X353234Y98817D01*
X353211Y98731D01*
X353192Y98643D01*
X353177Y98554D01*
X353165Y98465D01*
X353157Y98376D01*
X353153Y98286D01*
X353153Y98196D01*
X353157Y98106D01*
X353165Y98017D01*
X353177Y97928D01*
X353192Y97839D01*
X353211Y97751D01*
X353234Y97665D01*
X353261Y97579D01*
X353291Y97494D01*
X353325Y97411D01*
X353363Y97329D01*
X353404Y97249D01*
X353448Y97171D01*
X353496Y97095D01*
X353547Y97021D01*
X353601Y96949D01*
X353658Y96880D01*
X353718Y96813D01*
X353781Y96749D01*
X353846Y96687D01*
X353914Y96629D01*
X353985Y96573D01*
X354058Y96521D01*
X354133Y96471D01*
X354210Y96425D01*
X354289Y96383D01*
X354370Y96343D01*
X354452Y96308D01*
X354536Y96276D01*
X354621Y96247D01*
X354708Y96222D01*
X354795Y96201D01*
X354883Y96184D01*
X354972Y96170D01*
X355062Y96161D01*
X355151Y96155D01*
X355241Y96153D01*
X355241Y96152D02*
X357329Y96152D01*
D11*
X195072Y374918D02*
X195072Y386602D01*
X191826Y386602D01*
X191713Y386600D01*
X191600Y386594D01*
X191487Y386584D01*
X191374Y386570D01*
X191262Y386553D01*
X191151Y386531D01*
X191041Y386506D01*
X190931Y386476D01*
X190823Y386443D01*
X190716Y386406D01*
X190610Y386366D01*
X190506Y386321D01*
X190403Y386273D01*
X190302Y386222D01*
X190203Y386167D01*
X190106Y386109D01*
X190011Y386047D01*
X189918Y385982D01*
X189828Y385914D01*
X189740Y385843D01*
X189654Y385768D01*
X189571Y385691D01*
X189491Y385611D01*
X189414Y385528D01*
X189339Y385442D01*
X189268Y385354D01*
X189200Y385264D01*
X189135Y385171D01*
X189073Y385076D01*
X189015Y384979D01*
X188960Y384880D01*
X188909Y384779D01*
X188861Y384676D01*
X188816Y384572D01*
X188776Y384466D01*
X188739Y384359D01*
X188706Y384251D01*
X188676Y384141D01*
X188651Y384031D01*
X188629Y383920D01*
X188612Y383808D01*
X188598Y383695D01*
X188588Y383582D01*
X188582Y383469D01*
X188580Y383356D01*
X188582Y383243D01*
X188588Y383130D01*
X188598Y383017D01*
X188612Y382904D01*
X188629Y382792D01*
X188651Y382681D01*
X188676Y382571D01*
X188706Y382461D01*
X188739Y382353D01*
X188776Y382246D01*
X188816Y382140D01*
X188861Y382036D01*
X188909Y381933D01*
X188960Y381832D01*
X189015Y381733D01*
X189073Y381636D01*
X189135Y381541D01*
X189200Y381448D01*
X189268Y381358D01*
X189339Y381270D01*
X189414Y381184D01*
X189491Y381101D01*
X189571Y381021D01*
X189654Y380944D01*
X189740Y380869D01*
X189828Y380798D01*
X189918Y380730D01*
X190011Y380665D01*
X190106Y380603D01*
X190203Y380545D01*
X190302Y380490D01*
X190403Y380439D01*
X190506Y380391D01*
X190610Y380346D01*
X190716Y380306D01*
X190823Y380269D01*
X190931Y380236D01*
X191041Y380206D01*
X191151Y380181D01*
X191262Y380159D01*
X191374Y380142D01*
X191487Y380128D01*
X191600Y380118D01*
X191713Y380112D01*
X191826Y380110D01*
X191826Y380111D02*
X195072Y380111D01*
X191177Y380111D02*
X188581Y374918D01*
X183716Y384006D02*
X180470Y386602D01*
X180470Y374918D01*
X177225Y374918D02*
X183716Y374918D01*
X201235Y423178D02*
X201235Y434862D01*
X197990Y434862D01*
X197877Y434860D01*
X197764Y434854D01*
X197651Y434844D01*
X197538Y434830D01*
X197426Y434813D01*
X197315Y434791D01*
X197205Y434766D01*
X197095Y434736D01*
X196987Y434703D01*
X196880Y434666D01*
X196774Y434626D01*
X196670Y434581D01*
X196567Y434533D01*
X196466Y434482D01*
X196367Y434427D01*
X196270Y434369D01*
X196175Y434307D01*
X196082Y434242D01*
X195992Y434174D01*
X195904Y434103D01*
X195818Y434028D01*
X195735Y433951D01*
X195655Y433871D01*
X195578Y433788D01*
X195503Y433702D01*
X195432Y433614D01*
X195364Y433524D01*
X195299Y433431D01*
X195237Y433336D01*
X195179Y433239D01*
X195124Y433140D01*
X195073Y433039D01*
X195025Y432936D01*
X194980Y432832D01*
X194940Y432726D01*
X194903Y432619D01*
X194870Y432511D01*
X194840Y432401D01*
X194815Y432291D01*
X194793Y432180D01*
X194776Y432068D01*
X194762Y431955D01*
X194752Y431842D01*
X194746Y431729D01*
X194744Y431616D01*
X194746Y431503D01*
X194752Y431390D01*
X194762Y431277D01*
X194776Y431164D01*
X194793Y431052D01*
X194815Y430941D01*
X194840Y430831D01*
X194870Y430721D01*
X194903Y430613D01*
X194940Y430506D01*
X194980Y430400D01*
X195025Y430296D01*
X195073Y430193D01*
X195124Y430092D01*
X195179Y429993D01*
X195237Y429896D01*
X195299Y429801D01*
X195364Y429708D01*
X195432Y429618D01*
X195503Y429530D01*
X195578Y429444D01*
X195655Y429361D01*
X195735Y429281D01*
X195818Y429204D01*
X195904Y429129D01*
X195992Y429058D01*
X196082Y428990D01*
X196175Y428925D01*
X196270Y428863D01*
X196367Y428805D01*
X196466Y428750D01*
X196567Y428699D01*
X196670Y428651D01*
X196774Y428606D01*
X196880Y428566D01*
X196987Y428529D01*
X197095Y428496D01*
X197205Y428466D01*
X197315Y428441D01*
X197426Y428419D01*
X197538Y428402D01*
X197651Y428388D01*
X197764Y428378D01*
X197877Y428372D01*
X197990Y428370D01*
X197990Y428371D02*
X201235Y428371D01*
X197341Y428371D02*
X194744Y423178D01*
X183388Y431941D02*
X183390Y432048D01*
X183396Y432154D01*
X183406Y432260D01*
X183419Y432366D01*
X183437Y432472D01*
X183458Y432576D01*
X183483Y432680D01*
X183512Y432783D01*
X183544Y432884D01*
X183581Y432984D01*
X183621Y433083D01*
X183664Y433181D01*
X183711Y433277D01*
X183762Y433371D01*
X183816Y433463D01*
X183873Y433553D01*
X183933Y433641D01*
X183997Y433726D01*
X184064Y433809D01*
X184134Y433890D01*
X184206Y433968D01*
X184282Y434044D01*
X184360Y434116D01*
X184441Y434186D01*
X184524Y434253D01*
X184609Y434317D01*
X184697Y434377D01*
X184787Y434434D01*
X184879Y434488D01*
X184973Y434539D01*
X185069Y434586D01*
X185167Y434629D01*
X185266Y434669D01*
X185366Y434706D01*
X185467Y434738D01*
X185570Y434767D01*
X185674Y434792D01*
X185778Y434813D01*
X185884Y434831D01*
X185990Y434844D01*
X186096Y434854D01*
X186202Y434860D01*
X186309Y434862D01*
X186430Y434860D01*
X186551Y434854D01*
X186671Y434844D01*
X186792Y434831D01*
X186911Y434813D01*
X187031Y434792D01*
X187149Y434767D01*
X187266Y434738D01*
X187383Y434705D01*
X187498Y434669D01*
X187612Y434628D01*
X187725Y434585D01*
X187837Y434537D01*
X187946Y434486D01*
X188054Y434431D01*
X188161Y434373D01*
X188265Y434312D01*
X188367Y434247D01*
X188467Y434179D01*
X188565Y434108D01*
X188661Y434034D01*
X188754Y433957D01*
X188844Y433876D01*
X188932Y433793D01*
X189017Y433707D01*
X189100Y433618D01*
X189179Y433527D01*
X189256Y433433D01*
X189329Y433337D01*
X189399Y433239D01*
X189466Y433138D01*
X189530Y433035D01*
X189591Y432930D01*
X189648Y432823D01*
X189701Y432715D01*
X189751Y432605D01*
X189797Y432493D01*
X189840Y432380D01*
X189879Y432265D01*
X184362Y429669D02*
X184283Y429747D01*
X184207Y429827D01*
X184134Y429910D01*
X184064Y429996D01*
X183997Y430083D01*
X183933Y430174D01*
X183873Y430266D01*
X183815Y430360D01*
X183761Y430457D01*
X183711Y430555D01*
X183664Y430655D01*
X183620Y430756D01*
X183580Y430859D01*
X183544Y430964D01*
X183512Y431069D01*
X183483Y431176D01*
X183458Y431283D01*
X183436Y431392D01*
X183419Y431501D01*
X183405Y431610D01*
X183396Y431720D01*
X183390Y431831D01*
X183388Y431941D01*
X184362Y429669D02*
X189879Y423178D01*
X183388Y423178D01*
X339852Y241822D02*
X339852Y230138D01*
X339852Y241822D02*
X336606Y241822D01*
X336493Y241820D01*
X336380Y241814D01*
X336267Y241804D01*
X336154Y241790D01*
X336042Y241773D01*
X335931Y241751D01*
X335821Y241726D01*
X335711Y241696D01*
X335603Y241663D01*
X335496Y241626D01*
X335390Y241586D01*
X335286Y241541D01*
X335183Y241493D01*
X335082Y241442D01*
X334983Y241387D01*
X334886Y241329D01*
X334791Y241267D01*
X334698Y241202D01*
X334608Y241134D01*
X334520Y241063D01*
X334434Y240988D01*
X334351Y240911D01*
X334271Y240831D01*
X334194Y240748D01*
X334119Y240662D01*
X334048Y240574D01*
X333980Y240484D01*
X333915Y240391D01*
X333853Y240296D01*
X333795Y240199D01*
X333740Y240100D01*
X333689Y239999D01*
X333641Y239896D01*
X333596Y239792D01*
X333556Y239686D01*
X333519Y239579D01*
X333486Y239471D01*
X333456Y239361D01*
X333431Y239251D01*
X333409Y239140D01*
X333392Y239028D01*
X333378Y238915D01*
X333368Y238802D01*
X333362Y238689D01*
X333360Y238576D01*
X333362Y238463D01*
X333368Y238350D01*
X333378Y238237D01*
X333392Y238124D01*
X333409Y238012D01*
X333431Y237901D01*
X333456Y237791D01*
X333486Y237681D01*
X333519Y237573D01*
X333556Y237466D01*
X333596Y237360D01*
X333641Y237256D01*
X333689Y237153D01*
X333740Y237052D01*
X333795Y236953D01*
X333853Y236856D01*
X333915Y236761D01*
X333980Y236668D01*
X334048Y236578D01*
X334119Y236490D01*
X334194Y236404D01*
X334271Y236321D01*
X334351Y236241D01*
X334434Y236164D01*
X334520Y236089D01*
X334608Y236018D01*
X334698Y235950D01*
X334791Y235885D01*
X334886Y235823D01*
X334983Y235765D01*
X335082Y235710D01*
X335183Y235659D01*
X335286Y235611D01*
X335390Y235566D01*
X335496Y235526D01*
X335603Y235489D01*
X335711Y235456D01*
X335821Y235426D01*
X335931Y235401D01*
X336042Y235379D01*
X336154Y235362D01*
X336267Y235348D01*
X336380Y235338D01*
X336493Y235332D01*
X336606Y235330D01*
X336606Y235331D02*
X339852Y235331D01*
X335957Y235331D02*
X333361Y230138D01*
X328496Y230138D02*
X325250Y230138D01*
X325137Y230140D01*
X325024Y230146D01*
X324911Y230156D01*
X324798Y230170D01*
X324686Y230187D01*
X324575Y230209D01*
X324465Y230234D01*
X324355Y230264D01*
X324247Y230297D01*
X324140Y230334D01*
X324034Y230374D01*
X323930Y230419D01*
X323827Y230467D01*
X323726Y230518D01*
X323627Y230573D01*
X323530Y230631D01*
X323435Y230693D01*
X323342Y230758D01*
X323252Y230826D01*
X323164Y230897D01*
X323078Y230972D01*
X322995Y231049D01*
X322915Y231129D01*
X322838Y231212D01*
X322763Y231298D01*
X322692Y231386D01*
X322624Y231476D01*
X322559Y231569D01*
X322497Y231664D01*
X322439Y231761D01*
X322384Y231860D01*
X322333Y231961D01*
X322285Y232064D01*
X322240Y232168D01*
X322200Y232274D01*
X322163Y232381D01*
X322130Y232489D01*
X322100Y232599D01*
X322075Y232709D01*
X322053Y232820D01*
X322036Y232932D01*
X322022Y233045D01*
X322012Y233158D01*
X322006Y233271D01*
X322004Y233384D01*
X322006Y233497D01*
X322012Y233610D01*
X322022Y233723D01*
X322036Y233836D01*
X322053Y233948D01*
X322075Y234059D01*
X322100Y234169D01*
X322130Y234279D01*
X322163Y234387D01*
X322200Y234494D01*
X322240Y234600D01*
X322285Y234704D01*
X322333Y234807D01*
X322384Y234908D01*
X322439Y235007D01*
X322497Y235104D01*
X322559Y235199D01*
X322624Y235292D01*
X322692Y235382D01*
X322763Y235470D01*
X322838Y235556D01*
X322915Y235639D01*
X322995Y235719D01*
X323078Y235796D01*
X323164Y235871D01*
X323252Y235942D01*
X323342Y236010D01*
X323435Y236075D01*
X323530Y236137D01*
X323627Y236195D01*
X323726Y236250D01*
X323827Y236301D01*
X323930Y236349D01*
X324034Y236394D01*
X324140Y236434D01*
X324247Y236471D01*
X324355Y236504D01*
X324465Y236534D01*
X324575Y236559D01*
X324686Y236581D01*
X324798Y236598D01*
X324911Y236612D01*
X325024Y236622D01*
X325137Y236628D01*
X325250Y236630D01*
X324601Y241822D02*
X328496Y241822D01*
X324601Y241822D02*
X324500Y241820D01*
X324400Y241814D01*
X324300Y241804D01*
X324200Y241791D01*
X324101Y241773D01*
X324002Y241752D01*
X323905Y241727D01*
X323808Y241698D01*
X323713Y241665D01*
X323619Y241629D01*
X323527Y241589D01*
X323436Y241546D01*
X323347Y241499D01*
X323260Y241449D01*
X323174Y241395D01*
X323091Y241338D01*
X323011Y241278D01*
X322932Y241215D01*
X322856Y241148D01*
X322783Y241079D01*
X322713Y241007D01*
X322645Y240933D01*
X322580Y240856D01*
X322519Y240776D01*
X322460Y240694D01*
X322405Y240610D01*
X322353Y240524D01*
X322304Y240436D01*
X322259Y240346D01*
X322217Y240254D01*
X322179Y240161D01*
X322145Y240066D01*
X322114Y239971D01*
X322087Y239874D01*
X322064Y239776D01*
X322044Y239677D01*
X322029Y239577D01*
X322017Y239477D01*
X322009Y239377D01*
X322005Y239276D01*
X322005Y239176D01*
X322009Y239075D01*
X322017Y238975D01*
X322029Y238875D01*
X322044Y238775D01*
X322064Y238676D01*
X322087Y238578D01*
X322114Y238481D01*
X322145Y238386D01*
X322179Y238291D01*
X322217Y238198D01*
X322259Y238106D01*
X322304Y238016D01*
X322353Y237928D01*
X322405Y237842D01*
X322460Y237758D01*
X322519Y237676D01*
X322580Y237596D01*
X322645Y237519D01*
X322713Y237445D01*
X322783Y237373D01*
X322856Y237304D01*
X322932Y237237D01*
X323011Y237174D01*
X323091Y237114D01*
X323174Y237057D01*
X323260Y237003D01*
X323347Y236953D01*
X323436Y236906D01*
X323527Y236863D01*
X323619Y236823D01*
X323713Y236787D01*
X323808Y236754D01*
X323905Y236725D01*
X324002Y236700D01*
X324101Y236679D01*
X324200Y236661D01*
X324300Y236648D01*
X324400Y236638D01*
X324500Y236632D01*
X324601Y236630D01*
X324601Y236629D02*
X327197Y236629D01*
X326898Y400318D02*
X338582Y400318D01*
X338582Y403564D01*
X338580Y403677D01*
X338574Y403790D01*
X338564Y403903D01*
X338550Y404016D01*
X338533Y404128D01*
X338511Y404239D01*
X338486Y404349D01*
X338456Y404459D01*
X338423Y404567D01*
X338386Y404674D01*
X338346Y404780D01*
X338301Y404884D01*
X338253Y404987D01*
X338202Y405088D01*
X338147Y405187D01*
X338089Y405284D01*
X338027Y405379D01*
X337962Y405472D01*
X337894Y405562D01*
X337823Y405650D01*
X337748Y405736D01*
X337671Y405819D01*
X337591Y405899D01*
X337508Y405976D01*
X337422Y406051D01*
X337334Y406122D01*
X337244Y406190D01*
X337151Y406255D01*
X337056Y406317D01*
X336959Y406375D01*
X336860Y406430D01*
X336759Y406481D01*
X336656Y406529D01*
X336552Y406574D01*
X336446Y406614D01*
X336339Y406651D01*
X336231Y406684D01*
X336121Y406714D01*
X336011Y406739D01*
X335900Y406761D01*
X335788Y406778D01*
X335675Y406792D01*
X335562Y406802D01*
X335449Y406808D01*
X335336Y406810D01*
X335223Y406808D01*
X335110Y406802D01*
X334997Y406792D01*
X334884Y406778D01*
X334772Y406761D01*
X334661Y406739D01*
X334551Y406714D01*
X334441Y406684D01*
X334333Y406651D01*
X334226Y406614D01*
X334120Y406574D01*
X334016Y406529D01*
X333913Y406481D01*
X333812Y406430D01*
X333713Y406375D01*
X333616Y406317D01*
X333521Y406255D01*
X333428Y406190D01*
X333338Y406122D01*
X333250Y406051D01*
X333164Y405976D01*
X333081Y405899D01*
X333001Y405819D01*
X332924Y405736D01*
X332849Y405650D01*
X332778Y405562D01*
X332710Y405472D01*
X332645Y405379D01*
X332583Y405284D01*
X332525Y405187D01*
X332470Y405088D01*
X332419Y404987D01*
X332371Y404884D01*
X332326Y404780D01*
X332286Y404674D01*
X332249Y404567D01*
X332216Y404459D01*
X332186Y404349D01*
X332161Y404239D01*
X332139Y404128D01*
X332122Y404016D01*
X332108Y403903D01*
X332098Y403790D01*
X332092Y403677D01*
X332090Y403564D01*
X332091Y403564D02*
X332091Y400318D01*
X332091Y404213D02*
X326898Y406809D01*
X329494Y411674D02*
X338582Y414271D01*
X329494Y411674D02*
X329494Y418165D01*
X332091Y416218D02*
X326898Y416218D01*
X372685Y384062D02*
X372685Y372378D01*
X372685Y384062D02*
X369440Y384062D01*
X369327Y384060D01*
X369214Y384054D01*
X369101Y384044D01*
X368988Y384030D01*
X368876Y384013D01*
X368765Y383991D01*
X368655Y383966D01*
X368545Y383936D01*
X368437Y383903D01*
X368330Y383866D01*
X368224Y383826D01*
X368120Y383781D01*
X368017Y383733D01*
X367916Y383682D01*
X367817Y383627D01*
X367720Y383569D01*
X367625Y383507D01*
X367532Y383442D01*
X367442Y383374D01*
X367354Y383303D01*
X367268Y383228D01*
X367185Y383151D01*
X367105Y383071D01*
X367028Y382988D01*
X366953Y382902D01*
X366882Y382814D01*
X366814Y382724D01*
X366749Y382631D01*
X366687Y382536D01*
X366629Y382439D01*
X366574Y382340D01*
X366523Y382239D01*
X366475Y382136D01*
X366430Y382032D01*
X366390Y381926D01*
X366353Y381819D01*
X366320Y381711D01*
X366290Y381601D01*
X366265Y381491D01*
X366243Y381380D01*
X366226Y381268D01*
X366212Y381155D01*
X366202Y381042D01*
X366196Y380929D01*
X366194Y380816D01*
X366196Y380703D01*
X366202Y380590D01*
X366212Y380477D01*
X366226Y380364D01*
X366243Y380252D01*
X366265Y380141D01*
X366290Y380031D01*
X366320Y379921D01*
X366353Y379813D01*
X366390Y379706D01*
X366430Y379600D01*
X366475Y379496D01*
X366523Y379393D01*
X366574Y379292D01*
X366629Y379193D01*
X366687Y379096D01*
X366749Y379001D01*
X366814Y378908D01*
X366882Y378818D01*
X366953Y378730D01*
X367028Y378644D01*
X367105Y378561D01*
X367185Y378481D01*
X367268Y378404D01*
X367354Y378329D01*
X367442Y378258D01*
X367532Y378190D01*
X367625Y378125D01*
X367720Y378063D01*
X367817Y378005D01*
X367916Y377950D01*
X368017Y377899D01*
X368120Y377851D01*
X368224Y377806D01*
X368330Y377766D01*
X368437Y377729D01*
X368545Y377696D01*
X368655Y377666D01*
X368765Y377641D01*
X368876Y377619D01*
X368988Y377602D01*
X369101Y377588D01*
X369214Y377578D01*
X369327Y377572D01*
X369440Y377570D01*
X369440Y377571D02*
X372685Y377571D01*
X368791Y377571D02*
X366194Y372378D01*
X361329Y372378D02*
X357434Y372378D01*
X357335Y372380D01*
X357235Y372386D01*
X357136Y372395D01*
X357038Y372408D01*
X356940Y372425D01*
X356842Y372446D01*
X356746Y372471D01*
X356651Y372499D01*
X356557Y372531D01*
X356464Y372566D01*
X356372Y372605D01*
X356282Y372648D01*
X356194Y372693D01*
X356107Y372743D01*
X356023Y372795D01*
X355940Y372851D01*
X355860Y372909D01*
X355782Y372971D01*
X355707Y373036D01*
X355634Y373104D01*
X355564Y373174D01*
X355496Y373247D01*
X355431Y373322D01*
X355369Y373400D01*
X355311Y373480D01*
X355255Y373563D01*
X355203Y373647D01*
X355153Y373734D01*
X355108Y373822D01*
X355065Y373912D01*
X355026Y374004D01*
X354991Y374097D01*
X354959Y374191D01*
X354931Y374286D01*
X354906Y374382D01*
X354885Y374480D01*
X354868Y374578D01*
X354855Y374676D01*
X354846Y374775D01*
X354840Y374875D01*
X354838Y374974D01*
X354838Y376273D01*
X354840Y376372D01*
X354846Y376472D01*
X354855Y376571D01*
X354868Y376669D01*
X354885Y376767D01*
X354906Y376865D01*
X354931Y376961D01*
X354959Y377056D01*
X354991Y377150D01*
X355026Y377243D01*
X355065Y377335D01*
X355108Y377425D01*
X355153Y377513D01*
X355203Y377600D01*
X355255Y377684D01*
X355311Y377767D01*
X355369Y377847D01*
X355431Y377925D01*
X355496Y378000D01*
X355564Y378073D01*
X355634Y378143D01*
X355707Y378211D01*
X355782Y378276D01*
X355860Y378338D01*
X355940Y378396D01*
X356023Y378452D01*
X356107Y378504D01*
X356194Y378554D01*
X356282Y378599D01*
X356372Y378642D01*
X356464Y378681D01*
X356557Y378716D01*
X356651Y378748D01*
X356746Y378776D01*
X356842Y378801D01*
X356940Y378822D01*
X357038Y378839D01*
X357136Y378852D01*
X357235Y378861D01*
X357335Y378867D01*
X357434Y378869D01*
X361329Y378869D01*
X361329Y384062D01*
X354838Y384062D01*
X140275Y386602D02*
X140275Y374918D01*
X140275Y386602D02*
X137030Y386602D01*
X136917Y386600D01*
X136804Y386594D01*
X136691Y386584D01*
X136578Y386570D01*
X136466Y386553D01*
X136355Y386531D01*
X136245Y386506D01*
X136135Y386476D01*
X136027Y386443D01*
X135920Y386406D01*
X135814Y386366D01*
X135710Y386321D01*
X135607Y386273D01*
X135506Y386222D01*
X135407Y386167D01*
X135310Y386109D01*
X135215Y386047D01*
X135122Y385982D01*
X135032Y385914D01*
X134944Y385843D01*
X134858Y385768D01*
X134775Y385691D01*
X134695Y385611D01*
X134618Y385528D01*
X134543Y385442D01*
X134472Y385354D01*
X134404Y385264D01*
X134339Y385171D01*
X134277Y385076D01*
X134219Y384979D01*
X134164Y384880D01*
X134113Y384779D01*
X134065Y384676D01*
X134020Y384572D01*
X133980Y384466D01*
X133943Y384359D01*
X133910Y384251D01*
X133880Y384141D01*
X133855Y384031D01*
X133833Y383920D01*
X133816Y383808D01*
X133802Y383695D01*
X133792Y383582D01*
X133786Y383469D01*
X133784Y383356D01*
X133786Y383243D01*
X133792Y383130D01*
X133802Y383017D01*
X133816Y382904D01*
X133833Y382792D01*
X133855Y382681D01*
X133880Y382571D01*
X133910Y382461D01*
X133943Y382353D01*
X133980Y382246D01*
X134020Y382140D01*
X134065Y382036D01*
X134113Y381933D01*
X134164Y381832D01*
X134219Y381733D01*
X134277Y381636D01*
X134339Y381541D01*
X134404Y381448D01*
X134472Y381358D01*
X134543Y381270D01*
X134618Y381184D01*
X134695Y381101D01*
X134775Y381021D01*
X134858Y380944D01*
X134944Y380869D01*
X135032Y380798D01*
X135122Y380730D01*
X135215Y380665D01*
X135310Y380603D01*
X135407Y380545D01*
X135506Y380490D01*
X135607Y380439D01*
X135710Y380391D01*
X135814Y380346D01*
X135920Y380306D01*
X136027Y380269D01*
X136135Y380236D01*
X136245Y380206D01*
X136355Y380181D01*
X136466Y380159D01*
X136578Y380142D01*
X136691Y380128D01*
X136804Y380118D01*
X136917Y380112D01*
X137030Y380110D01*
X137030Y380111D02*
X140275Y380111D01*
X136381Y380111D02*
X133784Y374918D01*
X128919Y381409D02*
X125024Y381409D01*
X124925Y381407D01*
X124825Y381401D01*
X124726Y381392D01*
X124628Y381379D01*
X124530Y381362D01*
X124432Y381341D01*
X124336Y381316D01*
X124241Y381288D01*
X124147Y381256D01*
X124054Y381221D01*
X123962Y381182D01*
X123872Y381139D01*
X123784Y381094D01*
X123697Y381044D01*
X123613Y380992D01*
X123530Y380936D01*
X123450Y380878D01*
X123372Y380816D01*
X123297Y380751D01*
X123224Y380683D01*
X123154Y380613D01*
X123086Y380540D01*
X123021Y380465D01*
X122959Y380387D01*
X122901Y380307D01*
X122845Y380224D01*
X122793Y380140D01*
X122743Y380053D01*
X122698Y379965D01*
X122655Y379875D01*
X122616Y379783D01*
X122581Y379690D01*
X122549Y379596D01*
X122521Y379501D01*
X122496Y379405D01*
X122475Y379307D01*
X122458Y379209D01*
X122445Y379111D01*
X122436Y379012D01*
X122430Y378912D01*
X122428Y378813D01*
X122428Y378164D01*
X122430Y378051D01*
X122436Y377938D01*
X122446Y377825D01*
X122460Y377712D01*
X122477Y377600D01*
X122499Y377489D01*
X122524Y377379D01*
X122554Y377269D01*
X122587Y377161D01*
X122624Y377054D01*
X122664Y376948D01*
X122709Y376844D01*
X122757Y376741D01*
X122808Y376640D01*
X122863Y376541D01*
X122921Y376444D01*
X122983Y376349D01*
X123048Y376256D01*
X123116Y376166D01*
X123187Y376078D01*
X123262Y375992D01*
X123339Y375909D01*
X123419Y375829D01*
X123502Y375752D01*
X123588Y375677D01*
X123676Y375606D01*
X123766Y375538D01*
X123859Y375473D01*
X123954Y375411D01*
X124051Y375353D01*
X124150Y375298D01*
X124251Y375247D01*
X124354Y375199D01*
X124458Y375154D01*
X124564Y375114D01*
X124671Y375077D01*
X124779Y375044D01*
X124889Y375014D01*
X124999Y374989D01*
X125110Y374967D01*
X125222Y374950D01*
X125335Y374936D01*
X125448Y374926D01*
X125561Y374920D01*
X125674Y374918D01*
X125787Y374920D01*
X125900Y374926D01*
X126013Y374936D01*
X126126Y374950D01*
X126238Y374967D01*
X126349Y374989D01*
X126459Y375014D01*
X126569Y375044D01*
X126677Y375077D01*
X126784Y375114D01*
X126890Y375154D01*
X126994Y375199D01*
X127097Y375247D01*
X127198Y375298D01*
X127297Y375353D01*
X127394Y375411D01*
X127489Y375473D01*
X127582Y375538D01*
X127672Y375606D01*
X127760Y375677D01*
X127846Y375752D01*
X127929Y375829D01*
X128009Y375909D01*
X128086Y375992D01*
X128161Y376078D01*
X128232Y376166D01*
X128300Y376256D01*
X128365Y376349D01*
X128427Y376444D01*
X128485Y376541D01*
X128540Y376640D01*
X128591Y376741D01*
X128639Y376844D01*
X128684Y376948D01*
X128724Y377054D01*
X128761Y377161D01*
X128794Y377269D01*
X128824Y377379D01*
X128849Y377489D01*
X128871Y377600D01*
X128888Y377712D01*
X128902Y377825D01*
X128912Y377938D01*
X128918Y378051D01*
X128920Y378164D01*
X128919Y378164D02*
X128919Y381409D01*
X128917Y381552D01*
X128911Y381695D01*
X128901Y381838D01*
X128887Y381980D01*
X128870Y382122D01*
X128848Y382264D01*
X128823Y382405D01*
X128793Y382545D01*
X128760Y382684D01*
X128723Y382822D01*
X128682Y382959D01*
X128638Y383095D01*
X128589Y383230D01*
X128537Y383363D01*
X128482Y383495D01*
X128422Y383625D01*
X128359Y383754D01*
X128293Y383881D01*
X128223Y384006D01*
X128150Y384128D01*
X128073Y384249D01*
X127993Y384368D01*
X127910Y384484D01*
X127824Y384599D01*
X127735Y384710D01*
X127642Y384820D01*
X127547Y384926D01*
X127448Y385030D01*
X127347Y385131D01*
X127243Y385230D01*
X127137Y385325D01*
X127027Y385418D01*
X126916Y385507D01*
X126801Y385593D01*
X126685Y385676D01*
X126566Y385756D01*
X126445Y385833D01*
X126323Y385906D01*
X126198Y385976D01*
X126071Y386042D01*
X125942Y386105D01*
X125812Y386165D01*
X125680Y386220D01*
X125547Y386272D01*
X125412Y386321D01*
X125276Y386365D01*
X125139Y386406D01*
X125001Y386443D01*
X124862Y386476D01*
X124722Y386506D01*
X124581Y386531D01*
X124439Y386553D01*
X124297Y386570D01*
X124155Y386584D01*
X124012Y386594D01*
X123869Y386600D01*
X123726Y386602D01*
X256032Y414288D02*
X256032Y425972D01*
X252786Y425972D01*
X252673Y425970D01*
X252560Y425964D01*
X252447Y425954D01*
X252334Y425940D01*
X252222Y425923D01*
X252111Y425901D01*
X252001Y425876D01*
X251891Y425846D01*
X251783Y425813D01*
X251676Y425776D01*
X251570Y425736D01*
X251466Y425691D01*
X251363Y425643D01*
X251262Y425592D01*
X251163Y425537D01*
X251066Y425479D01*
X250971Y425417D01*
X250878Y425352D01*
X250788Y425284D01*
X250700Y425213D01*
X250614Y425138D01*
X250531Y425061D01*
X250451Y424981D01*
X250374Y424898D01*
X250299Y424812D01*
X250228Y424724D01*
X250160Y424634D01*
X250095Y424541D01*
X250033Y424446D01*
X249975Y424349D01*
X249920Y424250D01*
X249869Y424149D01*
X249821Y424046D01*
X249776Y423942D01*
X249736Y423836D01*
X249699Y423729D01*
X249666Y423621D01*
X249636Y423511D01*
X249611Y423401D01*
X249589Y423290D01*
X249572Y423178D01*
X249558Y423065D01*
X249548Y422952D01*
X249542Y422839D01*
X249540Y422726D01*
X249542Y422613D01*
X249548Y422500D01*
X249558Y422387D01*
X249572Y422274D01*
X249589Y422162D01*
X249611Y422051D01*
X249636Y421941D01*
X249666Y421831D01*
X249699Y421723D01*
X249736Y421616D01*
X249776Y421510D01*
X249821Y421406D01*
X249869Y421303D01*
X249920Y421202D01*
X249975Y421103D01*
X250033Y421006D01*
X250095Y420911D01*
X250160Y420818D01*
X250228Y420728D01*
X250299Y420640D01*
X250374Y420554D01*
X250451Y420471D01*
X250531Y420391D01*
X250614Y420314D01*
X250700Y420239D01*
X250788Y420168D01*
X250878Y420100D01*
X250971Y420035D01*
X251066Y419973D01*
X251163Y419915D01*
X251262Y419860D01*
X251363Y419809D01*
X251466Y419761D01*
X251570Y419716D01*
X251676Y419676D01*
X251783Y419639D01*
X251891Y419606D01*
X252001Y419576D01*
X252111Y419551D01*
X252222Y419529D01*
X252334Y419512D01*
X252447Y419498D01*
X252560Y419488D01*
X252673Y419482D01*
X252786Y419480D01*
X252786Y419481D02*
X256032Y419481D01*
X252137Y419481D02*
X249541Y414288D01*
X244676Y424674D02*
X244676Y425972D01*
X238185Y425972D01*
X241430Y414288D01*
M02*
